<svg width="24" height="24" viewBox="0 0 24 24" fill="none" xmlns="http://www.w3.org/2000/svg">
<g clip-path="url(#clip0_3_49)">
<circle cx="12" cy="12" r="12" fill="white"/>
<circle cx="12" cy="12" r="11" fill="black"/>
<path d="M9.42089 4.29395H16.2881L17.0068 3.125L17.7256 4.29395H18V6.29395H9.44237V11.2764H15.5713C15.6394 10.9189 15.9709 10.6477 16.3711 10.6475C16.8208 10.6475 17.1855 10.9898 17.1855 11.4121C17.1853 11.8341 16.8214 12.1755 16.3721 12.1758V12.1768C16.8215 12.177 17.1855 12.5192 17.1855 12.9414C17.1854 13.3636 16.8207 13.7061 16.3711 13.7061C15.9711 13.7058 15.6397 13.4344 15.5713 13.0771H9.44237V18H18V20H8.77831C8.67329 20.0375 8.56026 20.0586 8.44237 20.0586C7.92441 20.0585 7.49804 19.6648 7.44726 19.1602C7.43342 19.1487 7.41807 19.1382 7.40526 19.125L5.60448 17.2754L5.50487 17.1719L5.4746 17.0322L5.00292 14.8613C4.94428 14.5916 5.11513 14.3245 5.38476 14.2656C5.65436 14.2072 5.92069 14.3789 5.97948 14.6484L6.42186 16.6797L7.44237 17.7285V13.5059C7.29802 13.6283 7.10923 13.706 6.8994 13.7061C6.44983 13.7061 6.08511 13.3636 6.08495 12.9414C6.08495 12.6383 6.2736 12.3776 6.54589 12.2539C6.22888 12.1494 6.00012 11.8695 5.99999 11.5361C5.99999 11.1138 6.36477 10.7715 6.81444 10.7715C7.0685 10.7715 7.29306 10.8825 7.44237 11.0537V5.29395C7.44244 4.90926 7.65999 4.57541 7.97851 4.4082C8.21432 3.96399 8.49817 3.42973 8.73144 3L9.42089 4.29395Z" fill="white"/>
</g>
<defs>
<clipPath id="clip0_3_49">
<rect width="24" height="24" fill="white"/>
</clipPath>
</defs>
</svg>
