<svg width="330" height="260" viewBox="0 0 330 260" fill="none" xmlns="http://www.w3.org/2000/svg">
<g clip-path="url(#clip0_19_5)">
<path d="M260.892 37.0524C261.15 36.9983 261.366 37.058 261.48 37.1022L261.559 37.1363L261.718 37.2233C262.07 37.4427 262.306 37.7744 262.47 38.0631C262.667 38.413 262.838 38.8457 262.994 39.3268C263.307 40.291 263.62 41.6264 263.978 43.2955C264.464 45.5586 265.05 48.4958 265.855 52.1412C266.193 52.0447 266.573 52.13 266.839 52.3961C267.043 52.6 267.129 52.8428 267.167 52.9654C267.214 53.1174 267.244 53.2823 267.265 53.4449C267.305 53.7728 267.317 54.1919 267.299 54.6988C267.274 55.3617 267.193 56.2156 267.037 57.2809C267.093 57.5156 267.149 57.7537 267.207 57.9928C268.851 64.7844 270.776 69.2306 271.798 71.3873C272.716 73.3258 273.795 75.854 275.982 80.6842C277.887 84.89 279.41 88.7271 280.692 92.0319C281.981 95.3522 283.012 98.0957 283.953 100.175C287.145 107.232 289.062 113.027 290.05 116.051C291.346 120.021 293.166 123.306 294.724 126.894C296.996 132.13 297.601 136.355 298.043 138.179C298.764 141.157 300.143 146.389 301.023 151.963C301.434 154.563 302.463 160.216 304.318 168.102C305.617 173.625 306.983 177.966 307.629 180.13C307.766 180.59 307.939 181.032 308.175 181.604C308.408 182.171 308.701 182.862 309.053 183.771C309.713 185.478 311.143 188.031 313.084 191.126C315.013 194.202 317.41 197.754 319.965 201.442C320.279 201.896 320.166 202.519 319.713 202.834C319.609 202.906 319.495 202.954 319.379 202.982C319.383 202.99 319.387 202.998 319.392 203.006C319.959 204.11 320.511 205.215 321.063 206.319C321.065 206.322 321.066 206.325 321.067 206.328C322.367 208.781 323.104 211.695 323.277 214.361L323.278 214.367C323.971 218.647 325.473 223.344 325.889 228.032C325.889 228.035 325.89 228.039 325.891 228.043C326.234 231.711 326.396 235.288 326.595 238.906C326.595 238.908 326.595 238.911 326.595 238.913C326.79 243.041 327.273 246.977 327.997 251.152L327.994 251.131C328.293 253.005 328.879 254.935 329.318 256.92C329.416 257.351 329.511 257.784 329.6 258.217C329.602 258.224 329.603 258.231 329.604 258.238L329.619 258.324C329.653 258.63 329.584 258.915 329.444 259.099C329.376 259.195 329.275 259.257 329.198 259.38C329.119 259.503 329.118 259.709 329.197 259.928C329.005 260.054 328.745 260.112 328.476 260.017C328.208 259.925 327.992 259.713 327.85 259.532C327.564 259.158 327.458 258.865 327.417 258.601L327.431 258.687C327.429 258.681 327.428 258.674 327.427 258.668C327.339 258.246 327.249 257.825 327.156 257.405C326.743 255.477 326.182 253.557 325.849 251.472L325.844 251.438C325.843 251.434 325.842 251.429 325.842 251.425C325.151 247.454 324.62 243.163 324.435 239.023L324.434 239.017C324.242 235.419 324.092 231.785 323.788 228.26C323.788 228.257 323.787 228.253 323.787 228.25C323.412 223.656 322.067 219.426 321.363 214.53L321.362 214.525C321.227 211.825 321.003 209.317 319.787 206.968C319.786 206.966 319.784 206.962 319.782 206.96C319.23 205.856 318.68 204.752 318.119 203.661C317.656 202.766 317.185 201.848 316.682 201.041C316.58 200.881 316.545 200.686 316.586 200.501C316.607 200.404 316.649 200.314 316.707 200.235C314.752 197.378 312.927 194.639 311.39 192.188C309.448 189.092 307.923 186.396 307.187 184.492C306.846 183.61 306.567 182.953 306.325 182.367C306.086 181.786 305.88 181.266 305.712 180.703C305.073 178.56 303.687 174.153 302.371 168.56C300.506 160.631 299.467 154.93 299.048 152.275C298.183 146.803 296.832 141.674 296.1 138.649C295.616 136.652 295.071 132.716 292.89 127.69C291.432 124.33 289.48 120.749 288.148 116.672C287.168 113.67 285.277 107.957 282.131 101C281.161 98.855 280.1 96.0335 278.828 92.7555C277.55 89.4615 276.042 85.6649 274.16 81.5094C271.947 76.621 270.902 74.167 269.99 72.2438C269.092 70.3484 267.553 66.8118 266.086 61.6041C265.889 62.21 265.666 62.8098 265.422 63.402C264.933 69.0281 264.44 74.5329 263.858 79.9459C263.155 86.4892 262.345 92.752 261.516 96.7447L261.507 96.7838L261.496 96.8219C260.682 99.6038 259.93 101.849 259.135 103.523C258.353 105.166 257.443 106.448 256.206 107.049C255.616 107.336 254.899 107.398 254.232 106.999C253.625 106.635 253.227 105.985 252.965 105.235C251.738 101.733 251.186 95.8744 252.239 89.8326C252.945 85.7845 254.078 80.7911 256.996 74.8951C258.018 72.8306 259.246 70.7813 260.404 68.7819C261.546 66.811 262.627 64.8731 263.457 62.9166C263.551 61.8324 263.646 60.7426 263.74 59.6481C263.786 59.1174 264.239 58.7195 264.765 58.735C264.858 58.2414 264.936 57.7846 265.002 57.3649C263.584 51.4048 262.696 46.8517 262.022 43.7154C261.662 42.0385 261.369 40.7974 261.092 39.944C261.018 39.717 260.947 39.5297 260.884 39.3766C260.66 39.2898 260.467 39.1233 260.351 38.8922C260.306 38.8005 260.215 38.6243 260.162 38.4781C260.147 38.4362 260.125 38.3714 260.108 38.2955C260.097 38.2426 260.061 38.0699 260.101 37.86C260.124 37.7428 260.179 37.5635 260.322 37.3932C260.477 37.2089 260.683 37.0961 260.892 37.0524ZM219.039 9.89416C221.197 8.58975 225.735 7.47804 231.229 8.2594C234.139 8.67314 236.381 9.17774 238.015 9.67541C239.597 10.1577 240.734 10.6695 241.308 11.1647C241.726 11.5248 241.773 12.1564 241.414 12.5748C241.266 12.7469 241.07 12.8551 240.864 12.899C240.975 13.0501 241.091 13.2083 241.211 13.3756C241.73 13.3007 242.216 13.6418 242.328 14.15C242.332 14.1577 242.343 14.1811 242.365 14.2233C242.411 14.308 242.484 14.4256 242.589 14.5748C242.798 14.8727 243.098 15.2444 243.458 15.6539C244.176 16.471 245.087 17.3816 245.894 18.0778C247.697 19.4692 250.275 21.729 252.683 24.0621C254.941 26.2509 257.117 28.5694 258.352 30.3278L258.587 30.6715L258.635 30.7457L258.67 30.8268C258.85 31.2471 259.029 31.6957 259.245 32.2272C259.462 32.7624 259.722 33.3984 260.071 34.2135C260.288 34.7209 260.053 35.3084 259.546 35.526C259.038 35.7433 258.451 35.5074 258.233 34.9996C257.877 34.1681 257.612 33.5192 257.392 32.9781C257.186 32.47 257.024 32.0699 256.865 31.6969C255.799 30.1062 253.658 27.7926 251.291 25.4987C249.513 23.7756 247.651 22.1037 246.102 20.8131C246.674 21.7317 247.288 22.7269 247.941 23.8063C250.819 28.5592 251.633 32.5162 252.39 35.9401L252.403 35.9987L252.409 36.0582C252.499 36.9785 252.573 38.1967 252.639 39.3297C252.695 40.3042 252.745 41.2099 252.793 41.8502C253.091 42.0865 253.24 42.4828 253.142 42.8756C253.116 42.9818 253.077 43.1402 253.034 43.2711C253.014 43.3326 252.977 43.4372 252.921 43.5426C252.893 43.5945 252.839 43.6871 252.752 43.7809C252.673 43.8659 252.482 44.0434 252.174 44.0992C251.813 44.1641 251.514 44.027 251.332 43.8746C251.177 43.7446 251.096 43.599 251.06 43.5289C250.987 43.3832 250.951 43.2354 250.932 43.1481C250.889 42.9497 250.856 42.6799 250.826 42.3453C250.766 41.6688 250.706 40.5677 250.642 39.444C250.577 38.3252 250.505 37.1711 250.422 36.3033C249.672 32.9069 248.904 29.2575 246.23 24.8414C242.728 19.0569 240.468 15.7222 239.079 13.8434C238.384 12.9035 237.914 12.3371 237.623 12.0153C237.486 11.8644 237.396 11.7763 237.347 11.7311C237.24 11.6663 237.146 11.582 237.07 11.483C235.585 11.0547 233.562 10.6106 230.948 10.2389C225.797 9.50632 221.749 10.5936 220.074 11.6061C219.766 11.7922 219.408 12.1471 219.007 12.7506C218.61 13.3485 218.204 14.1385 217.781 15.1295C216.933 17.1163 216.062 19.7912 215.045 23.0992C213.84 27.017 213.221 30.6032 212.809 33.5992C212.602 35.1083 212.451 36.4385 212.299 37.6276C212.149 38.7924 211.998 39.8253 211.793 40.6442C211.449 42.0175 210.739 44.5633 209.338 48.6598C209.84 49.3667 210.329 50.0711 210.806 50.7594L210.847 50.817L210.878 50.8805C214.101 57.3144 215.506 60.5931 216.236 62.5885L214.472 63.4967C214.394 63.3834 214.321 63.2345 214.271 63.1315C214.211 63.0063 214.14 62.8535 214.066 62.6871C213.918 62.3537 213.74 61.937 213.563 61.524C213.502 61.3814 213.477 61.2319 213.483 61.0865C212.644 59.1063 211.319 56.2285 209.122 51.8404C208.925 51.5554 208.725 51.271 208.526 50.986C207.915 52.7039 207.202 54.6427 206.37 56.8199L206.366 56.8326L206.36 56.8453C204.257 61.939 201.485 67.9465 199.71 71.6188C197.926 75.3088 197.221 76.4847 196.159 78.3717C195.888 78.8527 195.278 79.0233 194.797 78.7526C194.316 78.4816 194.145 77.8714 194.416 77.3903C195.475 75.5092 196.154 74.3793 197.909 70.7487C199.673 67.099 202.428 61.1284 204.512 56.0817C205.556 53.3454 206.41 50.9929 207.108 48.9879C204.961 46.0356 202.696 43.3091 200.187 41.651C195.65 38.6527 189.22 36.1083 184.496 27.2438C183.856 26.0433 183.236 24.9036 182.671 23.8531C182.422 27.8332 181.937 33.3627 181.567 40.0309C181.425 42.6071 181.402 45.095 181.352 47.4733C181.304 49.8366 181.229 52.097 180.977 54.1529C180.893 54.8399 180.8 55.5245 180.712 56.1979C181.261 55.9489 181.829 55.6756 182.423 55.3658C183.252 54.9331 184.01 54.4228 184.937 53.8629C185.833 53.322 186.827 52.7759 187.975 52.3922C189.263 51.9621 190.672 52.0802 191.845 52.9244C194.213 54.6303 194.647 57.3725 194.82 58.4645C195.071 60.0484 194.455 61.7943 193.507 63.4371C192.54 65.1118 191.134 66.8408 189.558 68.4498C188.193 69.8435 186.418 70.3354 184.807 70.4137C183.198 70.4916 181.66 70.1652 180.615 69.8199C178.664 69.175 178.093 67.1613 177.968 65.1656C177.863 63.5071 178.04 61.4821 178.299 59.3248C177.671 59.5545 177.042 59.7785 176.4 60.0084C175.22 60.4312 173.978 60.8862 172.562 61.4781C167.477 63.6044 164.005 67.2091 159.966 71.111C156.574 74.3869 152.736 78.2403 148.18 80.3629C145.436 81.641 142.373 82.6061 138.847 85.1061C136.454 86.8026 134.402 88.2844 132.766 89.7584C131.132 91.2293 129.971 92.6416 129.31 94.1715C128.27 96.583 126.749 98.7724 125.382 100.682C123.974 102.648 122.791 104.242 122.221 105.613C120.98 108.597 118.818 111.345 113.517 116.861C112.139 118.295 111.283 119.513 110.187 120.789C109.123 122.028 107.949 123.161 106.166 124.085C104.442 124.977 101.615 126.168 98.8319 128.171C98.5838 128.349 98.3372 128.536 98.0927 128.726C98.1965 128.835 98.2969 128.941 98.3954 129.044C99.3895 130.077 100.176 130.864 100.615 131.392C100.968 131.817 100.909 132.447 100.485 132.8C100.061 133.153 99.4301 133.095 99.077 132.671C98.6995 132.217 98.01 131.528 96.954 130.43C96.8301 130.302 96.7034 130.166 96.5712 130.028C94.7263 131.767 93.1457 133.932 92.2909 136.661C92.2499 136.792 92.2111 136.923 92.1718 137.051C92.343 137.142 92.5053 137.23 92.6601 137.31C93.1496 137.564 93.341 138.168 93.0878 138.658C92.8337 139.148 92.2294 139.34 91.7392 139.086C91.695 139.063 91.6507 139.038 91.6054 139.014C91.4844 139.463 91.375 139.894 91.2763 140.305C91.429 140.38 91.5775 140.459 91.7196 140.543C92.1952 140.822 92.354 141.435 92.0751 141.911C92.0057 142.029 91.9145 142.128 91.8114 142.205C92.7225 141.877 93.7788 141.499 94.8729 141.144C96.0788 140.753 97.3538 140.384 98.5604 140.138C99.753 139.895 100.95 139.758 101.976 139.876C103.663 140.07 105.024 140.867 106.168 141.555C107.372 142.28 108.303 142.857 109.353 143.026C109.357 143.027 109.373 143.029 109.404 143.031C109.44 143.033 109.488 143.034 109.548 143.034C109.668 143.034 109.818 143.029 109.993 143.021C110.348 143.004 110.75 142.976 111.167 142.95C111.566 142.925 111.987 142.903 112.317 142.908C112.476 142.91 112.666 142.919 112.84 142.953C112.922 142.969 113.063 143.002 113.209 143.077C113.32 143.134 113.583 143.294 113.718 143.622L113.767 143.774L113.831 144.075C114.09 145.57 113.505 146.874 112.615 147.946C111.684 149.067 110.34 150.038 109 150.886C108.322 151.315 107.623 151.727 106.955 152.117C106.281 152.51 105.642 152.88 105.058 153.241C104.475 153.602 103.971 153.939 103.569 154.258C103.16 154.584 102.907 154.852 102.775 155.061C101.646 156.858 100.33 159.069 99.8505 160.349C99.5368 161.187 98.8879 161.726 98.2226 162.077C97.79 162.305 97.3126 162.474 96.8397 162.606C96.8345 162.613 96.8296 162.622 96.8241 162.63C96.7129 162.776 96.5808 162.868 96.4667 162.926C98.1969 165.04 100.835 168.501 103.5 173.874C104.778 176.45 105.952 178.762 107.014 180.799C107.1 180.766 107.185 180.743 107.259 180.726C107.415 180.69 107.593 180.666 107.776 180.651L107.799 180.649L107.822 180.648C107.883 180.646 107.949 180.639 108.021 180.635C107.516 180.654 107.069 180.289 106.996 179.778C106.973 179.616 106.867 179.195 106.517 178.328C106.174 177.481 105.618 176.255 104.731 174.5C103.062 171.779 102.184 169.623 101.827 167.797L101.823 167.777C101.655 166.812 101.49 165.655 101.323 164.486C101.245 163.939 101.625 163.432 102.172 163.354C102.718 163.277 103.224 163.657 103.303 164.203C103.471 165.379 103.631 166.5 103.793 167.427C104.074 168.853 104.761 170.644 106.169 173.012L106.461 173.496L106.483 173.531L106.502 173.568C107.411 175.367 107.998 176.656 108.371 177.578C108.736 178.482 108.918 179.086 108.976 179.497C109.054 180.043 108.673 180.549 108.127 180.628C108.096 180.632 108.065 180.634 108.034 180.635C108.642 180.601 109.719 180.512 112.268 180.447C113.964 180.321 115.699 180.414 116.631 180.503C117.888 180.622 119.144 180.623 119.491 180.623C119.86 180.623 120.183 180.824 120.356 181.122C121.459 181.21 122.898 181.592 124.403 182.022C125.832 182.43 127.373 182.896 128.942 183.291C131.181 181.224 133.987 178.593 137.389 175.369C139.486 173.381 141.223 172.451 142.698 172.066C144.168 171.683 145.311 171.871 145.975 171.923C146.434 171.96 146.89 172.088 147.298 172.369C147.706 172.65 147.998 173.038 148.204 173.483C148.597 174.332 148.717 175.57 148.584 176.535C148.227 179.123 146.148 181.228 143.901 182.742C141.613 184.283 138.904 185.38 136.848 185.874C134.648 186.402 132.005 186.046 129.517 185.482C127.676 187.172 126.251 188.447 125.225 189.313C124.68 189.774 124.231 190.134 123.888 190.381C123.718 190.504 123.553 190.614 123.403 190.697C123.329 190.738 123.238 190.783 123.142 190.82C123.059 190.851 122.895 190.907 122.692 190.906C122.14 190.902 121.696 190.451 121.699 189.899C121.702 189.436 122.02 189.047 122.449 188.937C122.503 188.906 122.591 188.85 122.719 188.758C123 188.556 123.402 188.236 123.934 187.786C124.745 187.101 125.827 186.141 127.193 184.897C126.016 184.575 124.878 184.238 123.854 183.945C122.27 183.492 121.007 183.169 120.144 183.11C119.803 183.087 119.514 182.895 119.351 182.622C118.862 182.621 117.66 182.61 116.44 182.494C115.573 182.411 113.936 182.325 112.376 182.444L112.35 182.446H112.325C109.433 182.52 108.771 182.608 107.981 182.641C109.749 185.955 111.17 188.384 112.238 189.86C115.079 193.786 117.102 195.621 119.564 197.355C122.636 199.518 124.361 200.245 126.35 200.552C129.998 201.115 135.474 201.06 138.473 200.718C141.975 200.319 150.899 198.343 156.146 196.296C158.379 195.424 160.594 194.247 162.453 193.429C163.298 193.058 164.166 192.717 164.824 192.664C165.13 192.639 165.728 192.645 166.151 193.125C166.586 193.618 166.507 194.232 166.419 194.578C166.29 195.083 165.917 195.427 165.679 195.625C165.415 195.844 165.073 196.072 164.763 196.284C164.106 196.733 163.367 197.256 162.701 198.019C159.894 201.235 157.902 204.231 156.136 206.723C154.972 208.366 153.644 210.002 152.463 212.616C151.286 215.218 150.248 218.82 149.807 224.293C149.293 230.657 149.597 235.11 149.814 238.2C150.103 242.308 150.485 245.243 151.012 247.327C151.833 250.573 152.389 252.767 152.921 254.218C153.278 255.195 153.574 255.673 153.805 255.913C154.045 255.924 154.282 256.02 154.466 256.204C154.491 256.229 154.533 256.271 154.572 256.313C154.597 256.34 154.682 256.431 154.752 256.547C154.776 256.586 154.884 256.764 154.902 257.015C154.913 257.163 154.894 257.38 154.767 257.598C154.635 257.823 154.443 257.954 154.279 258.022C154.01 258.134 153.77 258.095 153.719 258.088C153.629 258.074 153.554 258.051 153.508 258.036C152.267 257.631 151.595 256.413 151.043 254.906C150.467 253.333 149.881 251.012 149.072 247.817C148.545 245.735 148.174 242.959 147.892 239.301C146.873 238.699 146.187 238.236 145.516 237.771C144.827 237.295 144.164 236.828 143.145 236.193C136.03 231.759 132.663 230.342 128.003 228.79C125.949 228.105 123.972 227.377 122.332 226.815C120.642 226.237 119.261 225.818 118.202 225.662C117.534 225.563 116.771 225.594 115.935 225.737C116.102 226.174 116.233 226.611 116.313 227.042C116.539 228.257 116.871 229.954 116.891 231.565C116.909 233.133 116.64 234.935 115.35 236.083C113.517 237.714 110.771 239.78 108.177 241.273C106.883 242.017 105.585 242.643 104.433 242.992C103.351 243.319 102.098 243.496 101.136 242.915C100.424 242.484 99.7848 241.687 99.6776 240.49C99.5835 239.437 99.5985 237.493 100.1 235.449C100.599 233.411 101.613 231.151 103.615 229.639C105.862 227.943 109.502 225.652 113.029 224.441C111.245 221.594 108.199 218.539 106.429 216.88C105.906 216.391 105.382 216.214 104.834 216.209C104.25 216.203 103.575 216.394 102.801 216.769C102.031 217.142 101.231 217.662 100.404 218.243C99.6156 218.796 98.7264 219.461 97.9481 219.99C95.9555 221.343 93.3958 222.754 90.827 224.138C88.2376 225.534 85.6363 226.903 83.4853 228.2C78.8223 231.011 76.579 233.533 75.2743 235.466C73.5688 237.994 71.1962 239.854 68.1513 241.738C61.3175 245.966 56.9116 244.851 48.3642 244.922C46.0767 244.94 42.8843 244.273 39.5155 243.288C36.1207 242.295 32.4532 240.95 29.1786 239.555C26.2803 238.32 25.3647 235.602 25.0106 235.045C24.7377 234.615 24.6178 234.129 24.703 233.625C24.7837 233.148 25.0304 232.758 25.2958 232.455C25.8087 231.869 26.601 231.379 27.3505 230.967C28.0985 230.557 29.015 230.119 29.7255 229.749C30.4977 229.347 31.0827 228.998 31.4257 228.684C32.1378 228.033 32.4363 226.681 32.3261 225.097C32.1387 222.408 31.2755 219.323 30.4149 216.055C29.5708 212.85 28.7323 209.476 28.7304 206.409C28.7287 203.584 28.7596 200.909 28.6894 198.508C28.6189 196.102 28.4483 194.049 28.0673 192.469C27.7505 191.156 27.3552 189.425 26.83 187.679C26.3018 185.924 25.6643 184.233 24.8935 182.997C24.6317 182.577 24.2947 182.326 24.0546 182.266C23.8156 182.207 23.5354 182.258 23.1571 182.529C22.7684 182.807 22.3864 183.244 22.0321 183.729C20.1136 186.355 18.9227 191.127 18.5097 197.219C18.4106 198.682 18.5312 200.276 18.7362 201.993C18.9315 203.629 19.2331 205.58 19.4315 207.362C19.5924 208.808 19.4519 210.38 19.119 212.253C18.7865 214.123 18.2486 216.361 17.581 219.137L17.5058 219.45C16.8768 222.066 16.9138 223.953 17.1981 225.428C17.4869 226.926 18.0318 228.038 18.5409 229.215C18.8102 229.838 19.2813 230.442 19.8798 231.144C20.4444 231.806 21.1434 232.579 21.6591 233.418C22.0187 234.003 21.998 234.584 21.9608 234.949C21.9517 235.038 21.9402 235.126 21.9315 235.193C21.9222 235.266 21.9153 235.319 21.911 235.366C21.9068 235.413 21.907 235.44 21.9071 235.451C21.9165 235.487 21.9269 235.504 21.9853 235.669C22.0075 235.731 22.0469 235.847 22.0692 235.979C22.0909 236.108 22.1137 236.35 22.0106 236.618C21.7547 237.283 21.0953 237.36 20.8778 237.372C20.596 237.387 20.2584 237.343 19.8895 237.274C15.0121 236.364 10.5741 234.615 8.68642 233.349C6.55829 231.922 5.42068 229.696 4.7167 227.501C4.02406 225.341 3.68893 222.968 3.33193 221.321C2.86505 219.167 3.3454 216.54 3.95596 214.222C4.26683 213.042 4.62529 211.895 4.94424 210.879C5.26792 209.847 5.54356 208.974 5.70889 208.291C6.43121 205.306 7.4321 202.419 8.07119 198.868C8.50859 196.437 8.60833 194.668 8.74209 192.514C8.87647 190.351 9.04372 187.84 9.62685 183.994C10.5883 177.653 7.92397 173.727 6.39053 170.918C4.34046 167.162 3.37816 162.354 3.02334 158.503C2.87484 156.891 3.45949 155.563 4.08193 154.523L4.15225 154.414C4.5209 153.883 5.09314 153.635 5.56533 153.525C6.08555 153.404 6.64418 153.41 7.13174 153.495C7.78078 153.608 8.31491 153.967 8.74404 154.372C9.17482 154.778 9.56358 155.29 9.91885 155.82C10.2763 156.354 10.628 156.949 10.9726 157.536C11.3223 158.132 11.6672 158.724 12.0292 159.289C12.2729 159.669 12.5032 159.866 12.6923 159.968C12.8747 160.067 13.0736 160.108 13.3144 160.09C13.8471 160.05 14.546 159.724 15.4052 159.103C16.2419 158.499 17.097 157.717 17.9481 156.935C18.7672 156.183 19.6184 155.394 20.3661 154.894C20.4739 154.822 20.5791 154.696 20.6757 154.442C20.7776 154.173 20.8414 153.837 20.9062 153.409C20.9648 153.021 21.0294 152.513 21.1454 152.068C21.2623 151.62 21.4697 151.069 21.9267 150.653C22.4297 150.195 23.0716 150.025 23.6347 150.004C24.2033 149.982 24.791 150.105 25.2899 150.345C26.3941 150.878 26.9671 152.057 27.1757 153.102C27.5845 155.152 27.3096 156.919 26.9169 158.325C26.7223 159.021 26.495 159.639 26.3153 160.136C26.1236 160.667 26.0096 161.001 25.9696 161.237C25.7912 162.29 26.3725 163.133 27.3827 164.013C27.9158 164.478 28.3589 164.784 28.8856 165.215C29.1183 165.406 29.3592 165.617 29.5585 165.841C29.7254 166.029 29.9191 166.288 30.0263 166.611L30.0663 166.754L30.1054 166.944C30.2751 167.891 30.0458 168.783 29.6884 169.544C29.3096 170.349 28.7537 171.079 28.245 171.683C27.0204 173.137 24.9108 174.597 22.5106 175.667L22.4823 175.679L22.454 175.69C21.3376 176.107 20.7251 176.104 19.539 176.104C18.9869 176.104 18.5392 175.656 18.539 175.104C18.539 174.552 18.9867 174.104 19.539 174.104C20.6731 174.104 20.9854 174.1 21.7245 173.827C23.9393 172.836 25.7518 171.539 26.7157 170.395C27.1885 169.834 27.6105 169.261 27.8778 168.692C28.1343 168.146 28.2147 167.674 28.1269 167.252C28.1166 167.237 28.0981 167.209 28.0634 167.17C27.9708 167.065 27.8265 166.934 27.6181 166.763C27.2622 166.472 26.5939 165.979 26.0683 165.521C24.9606 164.556 23.632 163.059 23.9979 160.902C24.0743 160.452 24.2623 159.933 24.4345 159.457C24.6188 158.946 24.819 158.399 24.9901 157.787C25.329 156.574 25.5431 155.14 25.2147 153.494C25.0655 152.746 24.7208 152.292 24.4218 152.147C24.219 152.049 23.9562 151.992 23.7118 152.002C23.462 152.011 23.327 152.084 23.2743 152.131C23.2413 152.162 23.1605 152.265 23.08 152.573C22.9987 152.884 22.9558 153.236 22.8847 153.708C22.8196 154.139 22.7308 154.663 22.5458 155.151C22.3555 155.653 22.0391 156.181 21.4784 156.556C20.8884 156.951 20.1662 157.613 19.3007 158.408C18.4673 159.174 17.5252 160.039 16.5761 160.725C15.6495 161.395 14.5726 162.002 13.4638 162.086C12.8837 162.129 12.2945 162.028 11.7382 161.726C11.1886 161.428 10.7278 160.963 10.3456 160.367C9.95808 159.762 9.59097 159.133 9.24795 158.548C8.89987 157.956 8.57711 157.41 8.25771 156.933C7.936 156.453 7.6444 156.083 7.37295 155.827C7.09999 155.569 6.90846 155.485 6.78896 155.464C6.51925 155.417 6.23519 155.422 6.01846 155.472C5.85959 155.509 5.80173 155.553 5.78994 155.563C5.26676 156.441 4.92281 157.323 5.01455 158.319C5.35819 162.049 6.28293 166.547 8.14541 169.96C9.62467 172.669 12.6824 177.184 11.6044 184.294C11.034 188.056 10.871 190.501 10.7382 192.638C10.6048 194.786 10.5005 196.663 10.0399 199.222C9.39335 202.815 8.31131 206.038 7.65225 208.761C7.46748 209.525 7.16864 210.474 6.85342 211.478C6.53338 212.498 6.18793 213.603 5.89053 214.732C5.28445 217.032 4.92897 219.25 5.28603 220.897C5.68992 222.76 5.96562 224.847 6.621 226.89C7.26515 228.899 8.21422 230.624 9.80068 231.688C11.3434 232.723 15.331 234.343 19.9149 235.24C19.9164 235.221 19.9182 235.202 19.9198 235.184C19.928 235.095 19.9391 235.007 19.9481 234.937C19.9579 234.862 19.9657 234.804 19.9716 234.747C19.9942 234.525 19.9672 234.485 19.955 234.465C19.5431 233.795 18.9852 233.178 18.3573 232.441C17.7635 231.744 17.1064 230.938 16.705 230.009C16.2326 228.917 15.5742 227.569 15.2343 225.806C14.8901 224.021 14.8733 221.844 15.5614 218.982L15.6356 218.671C16.3085 215.873 16.8306 213.701 17.1503 211.903C17.4695 210.107 17.5733 208.751 17.4433 207.583C17.2352 205.715 16.9687 204.063 16.7499 202.23C16.5407 200.478 16.4016 198.736 16.5136 197.084C16.931 190.926 18.1437 185.66 20.4169 182.549C20.8131 182.007 21.3442 181.367 21.9921 180.903C22.6503 180.432 23.5305 180.075 24.537 180.325C25.4573 180.554 26.1673 181.261 26.5897 181.938C27.5039 183.404 28.2024 185.3 28.745 187.103C29.2905 188.917 29.7023 190.719 30.0116 192.001C30.4435 193.791 30.6172 196.016 30.6884 198.45C30.7597 200.889 30.7287 203.617 30.7304 206.407C30.7321 209.176 31.495 212.305 32.3485 215.547C33.1858 218.726 34.1174 222.034 34.3212 224.959C34.44 226.666 34.2033 228.856 32.7753 230.161C32.2165 230.671 31.413 231.124 30.6493 231.522C29.824 231.952 29.0569 232.312 28.3124 232.72C27.5692 233.128 27.0586 233.476 26.7997 233.772C26.7238 233.859 26.6933 233.916 26.6815 233.942C26.6852 233.949 26.6901 233.96 26.6981 233.972C27.39 235.061 27.8191 236.802 29.9628 237.715C33.1755 239.084 36.7682 240.401 40.077 241.369C43.4118 242.344 46.3689 242.938 48.3476 242.922C57.2635 242.848 60.8746 243.888 67.0985 240.038C70.0541 238.209 72.1458 236.528 73.6171 234.347C75.0957 232.156 77.5584 229.437 82.453 226.487C84.6575 225.158 87.321 223.757 89.8788 222.379C92.4573 220.989 94.9292 219.622 96.8251 218.335C97.6111 217.801 98.3672 217.228 99.2548 216.605C100.104 216.009 101.011 215.414 101.93 214.969C102.844 214.527 103.837 214.199 104.852 214.209C105.903 214.218 106.909 214.59 107.796 215.421C109.64 217.147 113.119 220.609 115.027 223.877C116.215 223.621 117.396 223.521 118.494 223.683C119.756 223.869 121.296 224.347 122.979 224.923C124.711 225.516 126.56 226.201 128.635 226.892C133.457 228.499 136.967 229.987 144.203 234.496C145.269 235.16 145.973 235.655 146.653 236.126C146.995 236.362 147.335 236.593 147.719 236.842C147.526 233.81 147.366 229.675 147.813 224.132C148.27 218.474 149.353 214.64 150.641 211.792C151.923 208.956 153.401 207.123 154.504 205.567C156.235 203.125 158.303 200.017 161.194 196.704C161.496 196.359 161.808 196.055 162.114 195.786C160.577 196.511 158.638 197.471 156.874 198.159C151.449 200.275 142.356 202.288 138.7 202.706C135.562 203.064 129.903 203.124 126.045 202.529C123.633 202.157 121.616 201.246 118.413 198.991C115.758 197.122 113.58 195.126 110.618 191.033C108.644 188.305 105.642 182.695 101.708 174.762C98.0332 167.353 94.5161 163.843 93.2333 162.135C89.5424 157.223 88.7896 152.023 88.4901 148.057C88.4062 146.946 88.3907 145.641 88.581 143.963C88.583 143.922 88.5885 143.88 88.5956 143.839C88.676 143.16 88.79 142.419 88.9472 141.606C86.7135 141.104 83.3581 141.321 79.1122 142.922C77.7374 143.67 76.426 144.522 75.0565 145.653C73.655 146.811 72.2246 148.241 70.7069 149.758C70.3165 150.149 69.6833 150.149 69.2929 149.758C68.9025 149.368 68.9026 148.735 69.2929 148.344C70.7938 146.843 72.2942 145.341 73.7831 144.111C75.2841 142.871 76.7235 141.94 78.2196 141.13L78.2792 141.098L78.3417 141.075C82.7642 139.397 86.5849 139.026 89.3769 139.651C89.5008 139.144 89.6387 138.611 89.7938 138.053C87.6164 136.888 84.724 135.34 81.3739 133.792C79.4357 133.556 77.5719 133.85 75.8329 134.417L75.8261 134.419C74.9071 134.711 74.0846 134.957 73.247 135.209C72.718 135.367 72.1606 135.068 72.0019 134.539C71.8435 134.01 72.1439 133.452 72.6728 133.294C73.0921 133.168 73.504 133.044 73.9228 132.917L75.2196 132.512C77.0851 131.905 79.1527 131.554 81.3446 131.775L81.7851 131.827L81.9335 131.847L82.0692 131.91C85.3318 133.412 88.2031 134.935 90.372 136.095C90.3753 136.085 90.3794 136.074 90.3827 136.063C91.3631 132.933 93.1658 130.49 95.202 128.571C94.5464 127.859 93.8232 127.054 93.038 126.145L92.4257 125.477C89.3481 122.152 85.9595 118.945 83.2567 116.913C82.0942 116.137 81.4885 115.951 79.914 115.167C79.4197 114.92 79.2186 114.32 79.4647 113.826C79.7113 113.332 80.3116 113.13 80.8056 113.377C82.0351 113.989 82.8492 114.3 83.9159 114.959L84.3905 115.264L84.413 115.28L84.4345 115.296C87.271 117.424 90.7613 120.734 93.8964 124.122L94.5185 124.8L94.5263 124.809L94.5351 124.819C95.3285 125.737 96.0582 126.548 96.7177 127.263C97.0317 127.015 97.3477 126.775 97.664 126.547C100.606 124.431 103.687 123.115 105.247 122.308C106.722 121.545 107.701 120.613 108.67 119.486C109.607 118.394 110.667 116.941 112.075 115.475C117.387 109.947 119.294 107.442 120.374 104.845C121.056 103.207 122.426 101.375 123.756 99.5182C125.125 97.6054 126.528 95.5722 127.475 93.3795C128.295 91.4794 129.686 89.8397 131.427 88.2721C133.164 86.7074 135.312 85.1605 137.69 83.4742C141.414 80.8345 144.828 79.7185 147.336 78.5504C151.523 76.5997 155.103 73.0268 158.576 69.6725C162.528 65.8554 166.284 61.9345 171.79 59.6324C173.254 59.0203 174.535 58.552 175.725 58.1256C176.726 57.7671 177.651 57.4399 178.581 57.0826C178.718 56.0422 178.861 54.9831 178.992 53.9098C179.23 51.9648 179.304 49.795 179.352 47.4313C179.401 45.0822 179.426 42.5418 179.571 39.9205C180.078 30.7692 180.775 24.0803 180.829 20.2809C180.476 19.5327 180.192 18.8539 180.03 18.2828C179.942 17.9706 179.875 17.6444 179.87 17.3317C179.865 17.0268 179.918 16.6233 180.181 16.2701C180.432 15.9338 180.81 15.8194 181.125 15.8434C181.39 15.8637 181.591 15.9736 181.703 16.0485C181.938 16.2056 182.118 16.4294 182.249 16.6393C182.525 17.0827 182.738 17.7145 182.794 18.5055C182.822 18.8999 182.831 19.3434 182.831 19.8297C183.651 21.5094 184.874 23.7007 186.261 26.3033C190.679 34.594 196.474 36.8008 201.29 39.983C203.732 41.5971 205.915 44.0701 207.893 46.6862C208.985 43.408 209.562 41.3201 209.852 40.1588C210.025 39.4677 210.165 38.5425 210.315 37.3727C210.462 36.2265 210.62 34.841 210.828 33.3268C211.247 30.2752 211.884 26.5722 213.134 22.5113C214.149 19.2125 215.047 16.4421 215.941 14.3453C216.389 13.2954 216.85 12.3821 217.341 11.6432C217.828 10.9103 218.382 10.2915 219.039 9.89416ZM196.932 128.289C197.424 128.041 198.026 128.239 198.274 128.732C198.354 128.889 198.508 129.265 198.701 129.73C198.908 130.227 199.191 130.904 199.557 131.741C200.289 133.414 201.353 135.732 202.794 138.529C204.87 142.56 207.658 145.839 210.232 148.471C215.278 153.632 219.661 155.436 227.811 157.284C230.524 157.899 233.731 157.802 237.152 157.384C240.577 156.966 244.094 156.247 247.476 155.659C250.315 155.165 253.274 153.926 255.956 152.406C256.102 148.965 256.533 144.42 258.347 141.24C259.767 138.749 261.229 135.677 264.828 133.604C265.264 133.353 265.797 133.152 266.298 133.115C266.544 133.097 266.881 133.111 267.205 133.271C267.534 133.434 267.79 133.722 267.899 134.096L267.937 134.262L268.027 134.845C268.237 136.302 268.427 138.411 268.165 140.664C267.865 143.24 266.962 146.081 264.742 148.335C263.158 149.942 260.731 151.874 257.915 153.576C257.892 154.335 257.878 155.029 257.862 155.646C257.844 156.384 257.82 157.044 257.761 157.51C257.503 159.53 257.59 166.587 258.785 172.173C259.048 173.404 259.836 174.63 260.895 176.064C261.913 177.442 263.179 179.007 264.096 180.748C265.844 184.068 267.861 188.688 270.905 194.943C274.84 203.026 275.945 208.86 276.299 210.571C277.195 214.909 277.942 221.198 278.356 231.012C278.512 234.707 278.418 236.615 278.001 239.7C277.612 242.576 276.099 245.732 275.04 247.67C274.737 248.224 274.448 248.791 274.157 249.369C273.868 249.942 273.575 250.53 273.268 251.105C272.656 252.254 271.967 253.404 271.08 254.421L271.058 254.446L271.034 254.47C270.59 254.915 270.03 255.483 269.363 255.858C268.678 256.243 267.942 256.382 267.375 256.496C266.833 256.604 266.306 256.252 266.198 255.711C266.09 255.169 266.442 254.642 266.983 254.534C267.602 254.41 268.019 254.318 268.384 254.114C268.757 253.904 269.112 253.562 269.585 253.089C270.318 252.246 270.92 251.258 271.503 250.165C271.796 249.615 272.078 249.051 272.371 248.469C272.662 247.892 272.964 247.297 273.285 246.71C274.327 244.805 275.682 241.921 276.018 239.432C276.418 236.473 276.51 234.683 276.358 231.096C275.946 221.334 275.205 215.164 274.34 210.975C273.999 209.324 272.933 203.681 269.106 195.819C266.002 189.441 264.063 184.979 262.326 181.68C261.502 180.115 260.379 178.73 259.287 177.253C258.237 175.831 257.193 174.293 256.829 172.592C255.592 166.81 255.487 159.525 255.776 157.257C255.82 156.911 255.844 156.356 255.863 155.596C255.87 155.326 255.879 155.033 255.886 154.722C253.349 156.057 250.567 157.151 247.819 157.629C244.518 158.202 240.886 158.944 237.394 159.37C233.9 159.796 230.42 159.926 227.369 159.235C219.02 157.342 214.221 155.411 208.803 149.869C206.16 147.166 203.22 143.725 201.016 139.445C199.553 136.604 198.47 134.248 197.725 132.543C197.352 131.69 197.062 131 196.853 130.498C196.748 130.245 196.666 130.045 196.601 129.891C196.569 129.815 196.543 129.753 196.522 129.707C196.512 129.684 196.504 129.666 196.498 129.652C196.492 129.638 196.488 129.631 196.488 129.631C196.24 129.138 196.439 128.537 196.932 128.289ZM113.979 226.231C110.662 227.306 107.065 229.541 104.82 231.236C103.329 232.362 102.485 234.121 102.043 235.925C101.602 237.723 101.592 239.443 101.67 240.312C101.715 240.821 101.955 241.073 102.171 241.204C102.343 241.308 102.838 241.385 103.853 241.078C104.798 240.792 105.945 240.248 107.179 239.539C109.639 238.123 112.275 236.142 114.02 234.588C114.624 234.052 114.908 233.037 114.891 231.589C114.874 230.185 114.581 228.669 114.347 227.407C114.28 227.048 114.156 226.655 113.979 226.231ZM145.816 173.918C145.028 173.855 144.273 173.723 143.203 174.002C142.138 174.279 140.69 174.996 138.765 176.82C135.858 179.574 133.383 181.9 131.322 183.813C133.225 184.157 134.975 184.266 136.381 183.928C138.22 183.487 140.706 182.483 142.784 181.084C144.903 179.656 146.367 177.976 146.603 176.261C146.697 175.583 146.586 174.747 146.39 174.323C146.301 174.132 146.219 174.054 146.164 174.016C146.108 173.978 146.01 173.933 145.816 173.918ZM95.6796 161.976C95.6906 161.989 95.7016 162.003 95.7128 162.016L95.8944 161.81L95.6796 161.976ZM117.852 142.871C118.558 142.871 119.73 143.084 121.261 143.455C122.827 143.834 124.866 144.403 127.357 145.165C131.9 146.553 136.337 148.53 140.52 150.713L141.353 151.152L141.395 151.174L141.434 151.2C145.155 153.66 147.702 156.158 148.961 158.268L148.986 158.313C149.463 159.215 149.57 159.723 149.666 160.202C149.774 160.743 149.423 161.27 148.882 161.379C148.34 161.487 147.813 161.135 147.705 160.593C147.634 160.238 147.577 159.933 147.229 159.271C146.184 157.53 143.927 155.252 140.369 152.894C136.026 150.585 131.44 148.503 126.773 147.077C124.303 146.322 122.304 145.765 120.79 145.399C119.241 145.024 118.287 144.871 117.852 144.871C117.3 144.871 116.852 144.423 116.852 143.871C116.853 143.319 117.301 142.871 117.852 142.871ZM101.748 141.863C101.031 141.78 100.076 141.871 98.9599 142.098C97.8573 142.323 96.6621 142.667 95.4901 143.047C94.3193 143.426 93.1906 143.835 92.2118 144.187C91.5862 144.412 90.9987 144.619 90.5087 144.777C90.3971 146.053 90.4201 147.057 90.4843 147.907C90.5239 148.431 90.5728 148.972 90.6337 149.526C91.1437 149.407 91.6654 149.704 91.8183 150.213C92.5254 152.568 93.5191 155.034 94.4589 157.069C95.1918 158.656 95.8662 159.925 96.328 160.67C96.6952 160.565 97.0212 160.45 97.2899 160.308C97.6999 160.092 97.8941 159.869 97.9765 159.649C98.541 158.141 99.9804 155.75 101.082 153.997C101.388 153.509 101.842 153.076 102.325 152.692C102.817 152.301 103.397 151.916 104.007 151.54C104.617 151.162 105.284 150.776 105.946 150.389C106.614 149.999 107.286 149.605 107.931 149.197C109.236 148.37 110.356 147.537 111.077 146.669C111.584 146.058 111.849 145.486 111.885 144.915C111.709 144.921 111.508 144.932 111.291 144.946C110.904 144.97 110.461 145.002 110.087 145.019C109.744 145.035 109.33 145.049 109.036 145.002C107.523 144.759 106.234 143.93 105.137 143.269C103.978 142.572 102.954 142.002 101.748 141.863ZM127.518 151.856C128.012 151.61 128.613 151.81 128.86 152.303C129.107 152.797 128.906 153.398 128.413 153.645L127.92 153.892C127.426 154.139 126.825 153.939 126.578 153.445C126.331 152.951 126.531 152.35 127.025 152.103L127.518 151.856ZM115.386 149.531C115.937 149.531 116.385 149.979 116.386 150.531C116.386 151.083 115.938 151.531 115.386 151.531H114.892C114.34 151.531 113.892 151.083 113.892 150.531C113.893 149.979 114.34 149.531 114.892 149.531H115.386ZM266.058 135.222C265.986 135.254 265.907 135.292 265.827 135.338C262.79 137.087 261.581 139.605 260.084 142.23C258.728 144.608 258.227 148.03 258.023 151.147C260.218 149.715 262.074 148.193 263.317 146.931C265.122 145.099 265.91 142.737 266.179 140.432C266.409 138.458 266.249 136.579 266.058 135.222ZM122.2 147.032L121.954 147.525C121.707 148.019 121.106 148.219 120.612 147.972C120.223 147.778 120.017 147.363 120.067 146.955C120.031 146.659 120.126 146.35 120.352 146.124L120.599 145.878L122.2 147.032ZM130.926 141.884C131.477 141.885 131.925 142.333 131.926 142.884C131.926 143.436 131.478 143.884 130.926 143.884H130.185C129.633 143.884 129.185 143.437 129.185 142.884C129.186 142.333 129.633 141.885 130.185 141.884H130.926ZM90.8046 142.561C90.9472 142.511 91.0983 142.459 91.2548 142.403C91.1171 142.409 90.9771 142.386 90.8437 142.333C90.8297 142.409 90.8177 142.486 90.8046 142.561ZM124.545 139.217C124.935 138.828 125.57 138.827 125.96 139.217L126.206 139.464C126.596 139.855 126.596 140.488 126.206 140.879C125.815 141.269 125.182 141.269 124.792 140.879L124.545 140.631C124.155 140.241 124.155 139.608 124.545 139.217ZM113.659 137.691C114.211 137.691 114.659 138.139 114.659 138.691V139.431C114.659 139.983 114.211 140.431 113.659 140.431C113.107 140.431 112.659 139.983 112.659 139.431V138.691C112.66 138.139 113.107 137.691 113.659 137.691ZM147.205 133.005C147.757 133.005 148.205 133.453 148.205 134.005C148.205 134.557 147.757 135.004 147.205 135.005H145.341C144.509 135.005 143.325 135.002 139.602 135.418C135.835 135.838 129.743 136.519 126.116 137.134C119.347 138.282 117.634 139.395 117.042 139.927C116.632 140.297 115.999 140.264 115.63 139.854C115.26 139.444 115.293 138.811 115.703 138.441C116.75 137.498 118.968 136.317 125.782 135.162C129.479 134.535 135.637 133.848 139.38 133.43C143.167 133.007 144.426 133.005 145.341 133.005H147.205ZM95.8993 135.717C96.27 135.718 96.594 135.921 96.7665 136.22C96.9823 136.248 97.1916 136.345 97.3554 136.512C97.7409 136.907 97.7322 137.541 97.3378 137.926C97.1746 138.086 96.9529 138.258 96.6688 138.346C96.3459 138.446 96.0025 138.417 95.704 138.254C95.4433 138.11 95.2914 137.904 95.2128 137.779C95.1305 137.647 95.0779 137.521 95.0517 137.455C94.995 137.312 94.9512 137.174 94.9257 137.034C94.8986 136.884 94.8993 136.766 94.8993 136.717C94.8999 136.166 95.3475 135.718 95.8993 135.717ZM138.33 126.868C138.865 126.735 139.408 127.06 139.542 127.595C139.676 128.131 139.35 128.674 138.814 128.808C138.466 128.895 138.101 128.986 137.47 129.076L137.458 129.078L137.445 129.079C136.073 129.24 131.266 129.903 124.846 130.963C121.258 131.844 119.198 132.779 117.628 133.984C115.21 135.84 114.094 136.957 113.626 137.425C113.235 137.815 112.602 137.816 112.212 137.425C111.821 137.035 111.821 136.401 112.212 136.01C112.726 135.496 113.907 134.318 116.41 132.397C118.293 130.952 120.66 129.929 124.408 129.011L124.445 129.003L124.482 128.996C130.902 127.936 135.741 127.267 137.188 127.095C137.72 127.02 138.008 126.948 138.33 126.868ZM97.6259 132.018C98.1776 132.019 98.6255 132.466 98.6259 133.018C98.6257 133.57 98.1778 134.018 97.6259 134.018H97.1327C96.5806 134.018 96.1329 133.57 96.1327 133.018C96.1331 132.466 96.5807 132.018 97.1327 132.018H97.6259ZM129.478 130.831C129.869 130.441 130.502 130.441 130.892 130.831L131.633 131.571C132.023 131.961 132.023 132.594 131.633 132.985C131.242 133.375 130.609 133.375 130.219 132.985L129.478 132.245C129.088 131.854 129.088 131.221 129.478 130.831ZM170.417 84.6774C175.236 84.7129 178.009 85.1293 179.43 85.3463C179.653 85.3804 179.944 85.3967 180.347 85.4225C180.725 85.4468 181.175 85.4787 181.627 85.5485C182.488 85.6816 183.619 85.989 184.323 86.9371C184.443 87.0991 184.61 87.3559 184.68 87.6891C184.757 88.0589 184.699 88.4413 184.502 88.7936C184.334 89.0929 184.067 89.7 183.384 90.4537C182.71 91.1972 181.648 92.078 179.85 93.1598C176.229 95.3371 173.277 97.0413 171.124 97.8707C168.067 99.0483 165.808 100.128 162.636 101.695C159.995 102.999 155.371 105.227 152.687 106.455C151.081 107.19 148.867 108.627 146.975 109.741C146.08 110.267 145.204 110.753 144.567 110.969C144.401 111.026 144.211 111.078 144.017 111.099C143.84 111.119 143.538 111.128 143.232 110.975C142.858 110.788 142.647 110.445 142.591 110.091C142.544 109.798 142.607 109.531 142.664 109.35L142.821 108.886C143.206 107.819 143.7 106.857 144.026 106.173C144.637 104.893 145.92 102.62 147.705 99.3024C148.666 97.5157 149.793 95.1829 150.57 93.8922C151.327 92.6366 151.998 91.5676 152.506 90.816C152.757 90.4441 152.981 90.1298 153.162 89.9059C153.249 89.7989 153.351 89.6798 153.458 89.5826C153.508 89.5372 153.599 89.4593 153.719 89.3942C153.793 89.3541 154.148 89.166 154.583 89.3258C154.701 89.3692 154.806 89.4333 154.895 89.5113C155.364 89.1473 155.837 88.8397 156.284 88.6217C157.024 88.2579 157.956 87.7531 158.79 87.3658C159.658 86.9628 160.602 86.5957 161.559 86.4547C161.566 86.4533 161.603 86.4443 161.689 86.4069C161.791 86.3627 161.911 86.3031 162.095 86.2096C162.451 86.0284 162.941 85.7821 163.621 85.5446C164.985 85.0685 167.038 84.6525 170.417 84.6774ZM156.536 90.7887C155.673 91.3762 154.672 92.3409 153.917 93.3375C153.8 93.551 153.702 93.7439 153.595 93.9586C153.394 94.359 152.962 94.5659 152.542 94.4987C152.458 94.6372 152.371 94.7791 152.284 94.9235C151.531 96.1741 150.513 98.3055 149.467 100.251C147.641 103.643 146.416 105.812 145.832 107.035C145.617 107.484 145.375 107.968 145.144 108.482C145.391 108.345 145.665 108.191 145.96 108.017C147.71 106.987 150.125 105.427 151.855 104.635C152.371 104.399 152.96 104.122 153.594 103.825C153.585 103.799 153.576 103.775 153.569 103.753C153.255 102.775 153.101 101.588 153.221 100.768C153.487 98.9435 154.318 94.7801 156.216 91.3385C156.32 91.1486 156.428 90.9651 156.536 90.7887ZM262.136 69.7838C260.955 71.8227 259.774 73.7929 258.789 75.7819C255.986 81.4436 254.897 86.2331 254.21 90.1764C253.205 95.9444 253.758 101.449 254.852 104.574C255.035 105.096 255.212 105.249 255.256 105.279C255.269 105.276 255.295 105.269 255.332 105.252C255.93 104.961 256.591 104.213 257.328 102.664C258.047 101.152 258.758 99.0506 259.563 96.3014C260.368 92.412 261.168 86.2544 261.869 79.7321C262.273 75.9735 262.634 72.1677 262.981 68.3024C262.702 68.799 262.419 69.2938 262.136 69.7838ZM156.297 100.999C156.296 101.007 156.296 101.015 156.295 101.023C156.309 101.002 156.324 100.98 156.339 100.958L156.297 100.999ZM181.267 87.5406C181.348 87.649 181.401 87.7613 181.436 87.8697L181.515 87.9313L181.632 88.0592C181.749 88.2099 181.854 88.43 181.848 88.7115C181.84 89.0194 181.699 89.2327 181.639 89.3141C181.52 89.4749 181.364 89.5913 181.284 89.65C181.2 89.7116 181.09 89.7839 180.951 89.8727C180.869 90.019 180.776 90.1095 180.766 90.1197C180.724 90.1597 180.685 90.1909 180.662 90.2086C180.578 90.2734 180.468 90.3424 180.374 90.4C180.164 90.5281 179.846 90.7102 179.453 90.9264C178.665 91.3593 177.529 91.9552 176.231 92.5973C174.009 93.8435 171.288 95.3483 169.22 96.4723C169.603 96.3174 169.998 96.1615 170.405 96.0045C172.363 95.2502 175.157 93.647 178.819 91.4449C180.513 90.4263 181.401 89.6631 181.901 89.111C182.301 88.6696 182.465 88.3596 182.637 88.0377C182.405 87.8035 181.989 87.6281 181.322 87.525C181.296 87.521 181.269 87.518 181.243 87.5143C181.25 87.5233 181.259 87.5313 181.267 87.5406ZM167.193 90.2477C167.417 90.4245 167.534 90.6571 167.578 90.8815C167.755 90.7555 167.905 90.6519 168.023 90.5758C168.114 90.5171 168.228 90.4471 168.333 90.3971C168.363 90.383 168.408 90.3627 168.461 90.3444C168.501 90.3306 168.614 90.2925 168.761 90.2858C168.858 90.2814 169.347 90.2778 169.649 90.7389C169.775 90.7506 169.993 90.7934 170.2 90.9645C170.594 91.2903 170.583 91.7092 170.544 91.9274C170.984 91.7432 171.76 91.4281 172.676 91.0631C172.777 91.0146 172.877 90.9668 172.975 90.9196C172.415 90.9714 171.878 91.0055 171.395 91.0113C171.176 91.014 170.982 91.0107 170.82 90.9987C170.696 90.9894 170.466 90.9687 170.254 90.8785C170.172 90.8438 169.849 90.7002 169.685 90.319C169.674 90.2924 169.663 90.266 169.654 90.2399C168.618 90.2976 167.745 90.2564 167.152 90.2184C167.166 90.228 167.18 90.2371 167.193 90.2477ZM190.676 54.5475C190.09 54.1257 189.367 54.0358 188.609 54.2887C187.669 54.6028 186.824 55.0612 185.972 55.5758C185.151 56.0714 184.249 56.6691 183.348 57.1393C182.307 57.6821 181.345 58.1176 180.417 58.5026C180.09 61.0705 179.855 63.318 179.964 65.0406C180.085 66.971 180.593 67.7057 181.243 67.9205C182.12 68.2103 183.407 68.4787 184.709 68.4156C186.008 68.3526 187.231 67.9677 188.13 67.0504C189.633 65.5155 190.919 63.9196 191.774 62.4371C192.648 60.9235 192.987 59.6765 192.845 58.777C192.668 57.6629 192.307 55.7226 190.676 54.5475ZM237.798 11.8737L237.895 11.8746L237.793 11.8727C237.764 11.8707 237.736 11.8663 237.708 11.8619C237.736 11.8665 237.766 11.8715 237.798 11.8737Z" fill="black"/>
</g>
<defs>
<clipPath id="clip0_19_5">
<rect width="330" height="260" fill="white"/>
</clipPath>
</defs>
</svg>
