<svg width="330" height="260" viewBox="0 0 330 260" fill="none" xmlns="http://www.w3.org/2000/svg">
<g clip-path="url(#clip0_19_33)">
<path d="M48.4435 211.376C48.8409 211.062 49.4201 211.095 49.7804 211.466C50.1146 211.811 50.15 212.334 49.8927 212.718C49.8834 212.735 49.8678 212.764 49.8459 212.806C49.7932 212.906 49.7167 213.057 49.6144 213.26C49.4113 213.663 49.1119 214.263 48.7189 215.037C47.9312 216.59 46.7603 218.86 45.1818 221.778C43.3268 225.208 39.7597 231.482 37.88 234.902C34.8666 240.385 33.4239 243.471 32.6222 245.221C31.9057 246.784 31.2121 248.136 30.6085 249.358C30 250.591 29.479 251.7 29.0675 252.84L29.0646 252.848L29.0607 252.855C28.3019 254.849 27.7436 256.527 27.3742 258.005C27.2814 258.376 27.196 258.717 27.1056 259.345C27.0267 259.891 26.5192 260.27 25.9728 260.191C25.4274 260.112 25.0478 259.605 25.1261 259.06C25.2307 258.334 25.3344 257.917 25.4337 257.52C25.8301 255.934 26.4189 254.175 27.1916 252.145C27.6423 250.9 28.2038 249.711 28.8156 248.473C29.4351 247.218 30.1035 245.916 30.8039 244.388C31.6228 242.601 33.0872 239.471 36.1271 233.939C38.0449 230.45 41.5596 224.272 43.423 220.827C44.9918 217.927 46.1542 215.672 46.9357 214.132C47.3269 213.361 47.622 212.77 47.8283 212.36C47.9301 212.158 48.0128 211.995 48.0734 211.879C48.1031 211.822 48.1328 211.767 48.1584 211.722C48.1706 211.7 48.1881 211.67 48.2072 211.641C48.2112 211.634 48.2716 211.535 48.3664 211.443L48.4435 211.376ZM123.912 225.315C124.4 225.178 124.922 225.431 125.112 225.912C125.295 226.375 125.107 226.891 124.693 227.137C124.684 227.145 124.673 227.156 124.66 227.169C124.59 227.245 124.482 227.377 124.335 227.581C124.043 227.988 123.639 228.624 123.123 229.541C122.092 231.374 120.642 234.279 118.768 238.617C115.909 245.233 115.546 248.524 114.429 252.476C114.186 254.438 113.899 255.874 113.708 256.782L113.706 256.793C113.654 257.028 113.628 257.146 113.621 257.279C113.615 257.395 113.624 257.55 113.692 257.793C113.84 258.325 113.53 258.876 112.998 259.025C112.467 259.173 111.915 258.863 111.766 258.332C111.51 257.417 111.647 256.839 111.751 256.37C111.938 255.481 112.219 254.079 112.455 252.154L112.464 252.077L112.486 252.002C113.556 248.238 113.987 244.639 116.932 237.824C118.824 233.446 120.304 230.473 121.38 228.561C121.916 227.607 122.36 226.902 122.711 226.414C122.885 226.172 123.049 225.966 123.197 225.807C123.31 225.686 123.528 225.462 123.816 225.349L123.912 225.315ZM275.206 129.023C275.841 128.96 276.596 129.018 277.165 129.293C277.442 129.427 277.861 129.706 278.017 130.231C278.187 130.809 277.936 131.307 277.672 131.621C277.178 132.208 276.639 132.796 276.106 133.375C275.567 133.959 275.032 134.538 274.522 135.127C273.496 136.311 272.623 137.481 272.099 138.696C271.587 139.884 271.158 140.907 270.807 141.803C271.839 142.044 272.969 142.381 274.07 142.695C275.398 143.075 276.707 143.429 277.907 143.618C280.05 143.955 281.899 142.607 283.769 140.622C284.222 140.141 284.661 139.64 285.094 139.141C285.523 138.646 285.954 138.145 286.372 137.688C287.178 136.809 288.078 135.931 289.051 135.53C291.757 134.418 294.629 133.571 296.957 131.734C297.635 131.199 298.416 131.077 299.134 131.129C299.83 131.179 300.539 131.398 301.171 131.624C302.913 132.248 304.209 133.084 305.262 133.734C306.353 134.408 307.096 134.819 307.902 134.902C308.871 135.003 309.673 134.861 310.229 134.714C310.513 134.639 310.717 134.567 310.899 134.509C310.946 134.494 311.111 134.438 311.268 134.422C311.317 134.417 311.414 134.41 311.531 134.426C311.637 134.44 311.88 134.491 312.098 134.699C312.354 134.945 312.422 135.259 312.408 135.492C312.396 135.688 312.33 135.835 312.3 135.895C310.98 138.543 309.738 140.341 308.709 141.717C307.643 143.142 306.943 143.956 306.517 144.818C305.809 146.251 304.496 147.213 302.997 147.667C302.392 147.85 301.73 147.788 301.198 147.685C301.103 147.666 301.007 147.642 300.912 147.619C300.833 148.291 300.738 148.939 300.656 149.507C300.445 150.981 299.918 152.497 299.389 153.877C298.841 155.304 298.309 156.545 297.985 157.638C297.498 159.276 297.507 161.4 297.807 163.421C298.107 165.446 298.676 167.213 299.185 168.122C300.16 169.866 300.273 171.993 300.169 173.917C300.117 174.893 300.004 175.862 299.899 176.749C299.791 177.65 299.693 178.451 299.652 179.146C299.516 181.494 299.485 183.997 299.027 187.265C298.267 192.698 298.365 196.84 298.8 200.202C299.018 201.888 299.416 203.59 299.819 205.218C301.422 203.684 303.18 202.342 304.645 201.482C310.403 198.103 312.435 198.088 313.602 198.238C314.253 198.322 314.796 198.62 315.194 199.092C315.574 199.541 315.778 200.093 315.886 200.639C316.098 201.714 315.988 203.038 315.765 204.314C315.312 206.899 314.313 209.735 313.798 211.064C312.632 214.076 311.869 216.549 312.278 219.433C312.404 220.319 312.15 221.164 311.748 221.904C311.347 222.644 310.763 223.344 310.123 223.982C308.845 225.258 307.204 226.419 305.903 227.288C303.745 228.73 301.287 229.415 298.834 229.802C296.413 230.183 293.84 230.292 291.579 230.507C285.658 231.069 282.716 230.828 279.611 229.973C276.537 234.151 271.925 236.79 268.317 238.757C265.619 240.227 263.01 241.206 259.992 242.365C255.351 244.147 250.735 242.646 246.645 241.103C245.633 240.722 244.77 240.028 243.985 239.282C243.588 238.906 243.191 238.497 242.797 238.087C242.399 237.672 242 237.254 241.577 236.836C241.322 236.583 240.878 236.335 240.183 236.132C239.496 235.932 238.637 235.796 237.626 235.714C235.601 235.55 233.108 235.613 230.439 235.723C228.414 235.806 227.601 236.671 226.376 237.811C227.331 238.4 228.168 239.159 228.675 240.163C229.294 241.388 229.847 242.84 229.469 244.208L229.449 244.279C229.287 244.866 229.112 245.502 228.894 246.083C228.676 246.662 228.39 247.26 227.97 247.75L227.958 247.764C227.339 248.485 225.856 250.237 223.482 250.887C222.939 251.035 222.37 251.046 221.87 250.869C221.365 250.69 220.861 250.28 220.728 249.612C220.27 247.319 220.021 242.516 223.027 238.477C221.933 238.101 220.744 237.803 219.587 237.53C218.259 237.218 216.889 237.246 215.451 237.436C213.983 237.629 212.572 237.967 211.025 238.256C206.17 239.161 202.01 239.913 198.777 240.889C189.939 243.554 185.593 243.17 182.832 242.883C179.636 243.02 173.989 243.202 169.076 243.578C168.772 243.601 168.489 243.485 168.289 243.283C168.1 244.42 167.932 245.549 167.79 246.665C167.784 246.77 167.777 246.879 167.771 246.984C167.586 249.849 167.371 252.677 167.333 255.494C167.334 255.508 167.336 255.523 167.337 255.537C167.34 255.576 167.343 255.615 167.347 255.654C167.387 256.103 167.471 256.513 167.57 256.994C167.573 257.009 167.576 257.025 167.579 257.039C167.683 257.588 167.539 258.046 167.305 258.837C167.292 258.879 167.277 258.921 167.259 258.955C167.24 258.989 167.216 259.015 167.187 259.03C167.157 259.044 167.121 259.048 167.083 259.042C167.045 259.036 167.003 259.022 166.962 259.007C166.193 258.739 165.663 258.063 165.557 257.444C165.554 257.429 165.551 257.413 165.548 257.398C165.45 256.917 165.368 256.356 165.329 255.824C165.326 255.777 165.322 255.73 165.319 255.684C165.316 255.651 165.314 255.619 165.312 255.587L165.31 255.506C165.361 252.595 165.587 249.707 165.788 246.856C165.795 246.753 165.803 246.645 165.81 246.542C166.516 241.201 167.669 236.228 168.97 231.164C169.031 230.928 169.095 230.691 169.16 230.452C169.591 228.906 169.966 227.397 170.467 225.784C170.564 225.489 170.675 225.188 170.796 224.899C171.646 222.87 172.41 220.812 173.145 218.728C173.264 218.391 173.384 218.052 173.504 217.714C174.131 214.943 175.511 211.941 177.09 209.442C177.31 209.085 177.537 208.728 177.773 208.367C179.744 205.61 182.257 203.583 184.363 201.206C183.079 201.457 181.761 201.709 180.495 201.92L177.892 202.353C177.348 202.443 176.832 202.075 176.741 201.531C176.651 200.987 177.02 200.472 177.564 200.381L180.166 199.947C182.007 199.64 183.969 199.25 185.806 198.886C187.631 198.524 189.351 198.185 190.669 197.99C193.493 197.505 196.337 197.123 200.559 198.666C202.584 199.406 204.588 200.422 206.28 201.787C206.854 202.25 207.462 202.934 208.02 203.612C208.389 204.062 208.762 204.541 209.108 204.989C208.975 203.984 208.857 202.717 208.845 200.993C208.797 194.047 209.094 187.837 209.278 185.062C209.328 184.322 209.395 183.754 209.459 183.275C209.525 182.783 209.58 182.442 209.614 182.081C209.848 179.662 210.114 175.53 210.539 173.52C211.126 170.747 211.937 168.141 212.708 166.441C213.286 165.168 213.853 163.929 214.264 162.971C214.47 162.491 214.629 162.099 214.73 161.818C214.753 161.754 214.766 161.698 214.78 161.654C214.361 161.987 213.861 162.389 213.303 162.84C211.855 164.009 210.013 165.505 208.138 166.973L208.119 166.987L208.1 167C206.942 167.821 205.215 168.973 203.788 169.812C202.329 170.669 201.214 171.176 199.487 171.687C198.958 171.843 198.401 171.542 198.244 171.013C198.088 170.484 198.391 169.928 198.919 169.77C200.478 169.309 201.445 168.869 202.776 168.087C204.135 167.288 205.805 166.175 206.932 165.376C208.783 163.927 210.601 162.452 212.047 161.284C212.771 160.699 213.406 160.187 213.902 159.799C214.369 159.434 214.785 159.118 215.029 158.978C215.509 158.706 216.12 158.874 216.394 159.353C216.64 159.786 216.526 160.324 216.15 160.626C216.423 160.725 216.652 160.942 216.755 161.238C216.834 161.465 216.817 161.668 216.811 161.739C216.801 161.838 216.782 161.932 216.764 162.006C216.728 162.155 216.672 162.323 216.612 162.491C216.491 162.832 216.312 163.271 216.102 163.76C215.68 164.742 215.101 166.007 214.529 167.268C213.837 168.793 213.063 171.25 212.495 173.934C212.101 175.797 211.855 179.688 211.605 182.273C211.565 182.683 211.5 183.106 211.442 183.541C211.381 183.99 211.319 184.513 211.274 185.195C211.092 187.93 210.798 194.09 210.845 200.979C210.857 202.749 210.984 203.992 211.119 204.959C211.247 205.875 211.413 206.716 211.464 207.452C211.474 207.601 211.478 207.815 211.416 208.034C211.352 208.263 211.155 208.677 210.653 208.823C210.235 208.945 209.891 208.785 209.765 208.718C209.607 208.634 209.473 208.524 209.374 208.437C208.998 208.101 208.514 207.491 208.048 206.89C207.551 206.248 207.015 205.539 206.475 204.882C205.928 204.217 205.429 203.67 205.025 203.344C203.548 202.152 201.754 201.232 199.872 200.544C196.121 199.173 193.681 199.501 190.985 199.965L190.961 199.969C189.702 200.155 188.036 200.483 186.194 200.848C185.928 200.901 185.655 200.952 185.382 201.006C185.377 201.013 185.372 201.021 185.367 201.028C183.196 203.785 180.621 206.25 178.849 209.031C178.636 209.396 178.429 209.757 178.228 210.113C176.746 212.713 175.644 215.182 174.987 218.225C174.875 218.562 174.763 218.904 174.65 219.245C173.951 221.357 173.188 223.461 172.356 225.537C172.255 225.789 172.167 226.04 172.087 226.301C171.664 227.751 171.34 229.37 170.944 230.917C170.885 231.155 170.826 231.391 170.768 231.625C169.948 234.935 169.177 238.33 168.569 241.68C168.677 241.628 168.797 241.594 168.924 241.584C173.915 241.202 179.665 241.018 182.814 240.882L182.888 240.879L182.961 240.887C185.504 241.152 189.575 241.574 198.198 238.974C201.562 237.959 205.854 237.186 210.657 236.29C212.072 236.026 213.658 235.655 215.191 235.453C216.755 235.247 218.392 235.195 220.045 235.584C221.437 235.912 223.019 236.304 224.453 236.869C224.535 236.791 224.618 236.712 224.702 236.636C225.962 235.498 227.288 233.851 230.356 233.725C233.018 233.615 235.625 233.546 237.787 233.721C238.87 233.808 239.877 233.959 240.743 234.212C241.6 234.462 242.397 234.834 242.984 235.414C243.428 235.854 243.848 236.293 244.239 236.7C244.635 237.112 245.002 237.491 245.361 237.832C246.089 238.523 246.718 238.994 247.351 239.232C251.482 240.791 255.421 241.979 259.276 240.499C262.323 239.329 264.8 238.394 267.36 237C270.813 235.118 274.806 232.804 277.574 229.345C277.017 229.159 276.438 228.959 275.825 228.747C273.629 227.986 271.962 226.729 270.257 225.103C269.41 224.294 268.538 223.379 267.589 222.384C266.636 221.383 265.593 220.29 264.384 219.098C260.462 215.23 260.969 211.581 260.704 208.594C260.514 206.442 261.851 204.373 263.237 202.863C264.654 201.321 266.377 200.085 267.453 199.601C268.271 199.233 269.023 199.203 269.728 199.372C269.826 197.717 269.949 196.064 270.078 194.51C270.4 190.649 272.193 185.964 275.379 179.038C277.476 174.479 280.567 173.747 281.669 173.665C282.267 173.621 282.84 173.769 283.299 174.166C283.732 174.541 283.961 175.05 284.086 175.531C284.33 176.469 284.278 177.69 284.147 178.889C284.013 180.116 283.775 181.485 283.569 182.758C283.358 184.056 283.181 185.254 283.142 186.224C283.013 189.357 283.083 192.639 283.307 195.765C283.551 199.179 284.207 206.66 284.432 212.429C284.577 216.164 284.328 218.77 283.765 220.995C283.344 222.657 282.753 224.083 282.066 225.565L281.348 227.079L281.312 227.154C281.139 227.514 280.954 227.865 280.76 228.206C283.358 228.849 286.062 229.022 291.39 228.516C293.806 228.286 296.176 228.196 298.523 227.826C300.836 227.461 302.973 226.84 304.792 225.625C306.078 224.766 307.58 223.695 308.711 222.566C309.276 222.003 309.715 221.456 309.99 220.949C310.265 220.443 310.344 220.037 310.298 219.714C309.811 216.283 310.753 213.392 311.933 210.343C312.432 209.052 313.377 206.36 313.795 203.97C314.007 202.759 314.063 201.732 313.924 201.026C313.856 200.682 313.754 200.486 313.667 200.383C313.599 200.303 313.514 200.243 313.346 200.222C312.83 200.155 311.268 199.914 305.656 203.207C304.09 204.127 302.08 205.709 300.38 207.482C300.679 208.725 300.931 209.91 300.999 210.912C301.122 212.728 300.225 214.208 299.41 215.137C298.96 215.649 298.24 216.193 297.379 216.202C296.43 216.212 295.68 215.549 295.334 214.796C294.715 213.448 295.037 211.934 295.667 210.585C296.243 209.353 297.149 208.095 298.183 206.92C297.695 204.969 297.106 202.699 296.817 200.458C296.358 196.913 296.263 192.591 297.047 186.987C297.489 183.827 297.514 181.467 297.655 179.03C297.7 178.259 297.809 177.385 297.913 176.512C298.019 175.624 298.123 174.713 298.172 173.81C298.271 171.973 298.126 170.328 297.439 169.099C296.768 167.9 296.149 165.872 295.828 163.715C295.508 161.553 295.464 159.1 296.068 157.067C296.422 155.876 297.016 154.478 297.522 153.161C298.045 151.797 298.499 150.459 298.676 149.223C298.783 148.476 298.903 147.692 298.981 146.909C296.407 145.52 296.137 142.569 296.083 141.857C296.047 141.38 296.278 141.012 296.527 140.792C296.76 140.587 297.034 140.479 297.262 140.425C297.714 140.318 298.282 140.35 298.778 140.614C299.867 141.195 300.469 142.147 300.773 143.178C300.997 143.942 301.066 144.775 301.059 145.59C301.233 145.642 301.41 145.689 301.582 145.723C302.001 145.804 302.278 145.794 302.417 145.752C303.488 145.428 304.304 144.782 304.724 143.933C305.258 142.851 306.165 141.78 307.108 140.52C307.821 139.566 308.633 138.406 309.506 136.879C308.976 136.94 308.367 136.961 307.696 136.892C306.369 136.754 305.254 136.08 304.211 135.436C303.129 134.767 302.009 134.048 300.497 133.507C299.898 133.292 299.401 133.153 298.989 133.123C298.599 133.095 298.366 133.17 298.196 133.304C295.578 135.369 292.258 136.374 289.811 137.381C289.298 137.592 288.666 138.146 287.847 139.04C287.452 139.471 287.044 139.945 286.605 140.451C286.17 140.952 285.708 141.48 285.225 141.993C283.346 143.989 280.841 146.106 277.596 145.595C276.261 145.384 274.845 144.996 273.521 144.618C272.282 144.264 271.136 143.923 270.124 143.699C269.592 145.383 269.512 146.447 269.748 147.428C269.963 148.317 270.467 149.277 271.049 150.059C271.337 150.445 271.629 150.768 271.889 151.003C272.166 151.253 272.343 151.344 272.398 151.362C272.923 151.533 273.211 152.097 273.04 152.622C272.869 153.147 272.304 153.435 271.779 153.265C271.332 153.119 270.906 152.81 270.549 152.488C270.174 152.15 269.795 151.724 269.444 151.253C268.749 150.319 268.098 149.116 267.804 147.897C267.459 146.47 267.619 145.05 268.159 143.282C266.424 142.905 264.713 142.487 263.228 141.991C261.478 141.407 259.846 140.658 258.919 139.601C258.641 139.283 258.373 138.795 258.156 138.342C257.928 137.863 257.709 137.318 257.546 136.823C257.398 136.372 257.249 135.823 257.257 135.395C257.259 135.278 257.273 135.101 257.343 134.915C257.415 134.721 257.586 134.429 257.942 134.272C258.289 134.119 258.611 134.186 258.795 134.253C258.887 134.286 258.97 134.327 259.043 134.371L259.231 134.502L259.846 134.98C260.044 135.13 260.24 135.268 260.437 135.385C260.849 135.629 261.059 135.647 261.13 135.634C261.872 135.496 263.712 134.897 265.642 133.383C268.139 131.423 270.666 129.475 275.206 129.023ZM224.931 239.287C222.194 242.633 222.258 246.803 222.649 248.998C222.719 249 222.822 248.994 222.954 248.958C224.682 248.486 225.816 247.189 226.441 246.461L226.452 246.448C226.652 246.215 226.839 245.865 227.021 245.381C227.202 244.899 227.354 244.352 227.522 243.746L227.541 243.675C227.699 243.105 227.5 242.274 226.89 241.064C226.546 240.384 225.879 239.799 224.931 239.287ZM281.817 175.66C281.345 175.695 278.951 176.059 277.195 179.874C273.993 186.835 272.359 191.217 272.07 194.677C271.919 196.493 271.779 198.437 271.676 200.358C273.042 201.447 273.944 203.158 274.547 204.939C275.6 208.05 274.858 211.121 274.277 212.85C273.922 213.902 273.001 214.598 272.026 214.476C271.498 214.409 271.099 214.115 270.821 213.781C270.553 213.458 270.362 213.057 270.219 212.651C269.933 211.838 269.759 210.765 269.653 209.573C269.456 207.329 269.485 204.424 269.619 201.437C269.126 201.231 268.746 201.212 268.274 201.425C267.499 201.773 265.989 202.826 264.711 204.217C263.403 205.641 262.585 207.154 262.696 208.418C262.991 211.745 262.515 214.446 265.788 217.674C267.022 218.89 268.084 220.005 269.036 221.004C269.993 222.008 270.831 222.886 271.637 223.655C273.239 225.184 274.664 226.228 276.48 226.857C277.317 227.148 278.067 227.407 278.776 227.635C279.039 227.203 279.286 226.755 279.508 226.291L279.544 226.215C280.547 224.121 281.322 222.498 281.826 220.504C282.329 218.518 282.574 216.115 282.434 212.506C282.211 206.779 281.56 199.378 281.312 195.907C281.084 192.715 281.011 189.358 281.143 186.142C281.188 185.035 281.386 183.724 281.594 182.438C281.806 181.127 282.032 179.832 282.158 178.671C282.288 177.482 282.294 176.587 282.151 176.035C282.083 175.775 282.006 175.693 281.989 175.679C281.985 175.675 281.982 175.672 281.97 175.668C281.954 175.663 281.907 175.653 281.817 175.66ZM156.818 209.715C157.267 209.395 157.892 209.501 158.212 209.95C158.532 210.4 158.427 211.025 157.977 211.345C157.873 211.419 157.7 211.57 157.387 211.86C157.101 212.126 156.681 212.525 156.18 212.988C155.15 213.941 153.645 215.288 151.414 217.112C149.048 219.047 146.925 220.274 144.508 221.9L144.499 221.905L144.491 221.911C143.742 222.394 143.18 222.706 142.706 223.037C142.336 223.296 142.174 223.461 141.969 223.866C141.72 224.359 141.118 224.556 140.625 224.308C140.134 224.058 139.936 223.457 140.184 222.965C140.563 222.214 140.97 221.81 141.563 221.396C142.053 221.055 142.816 220.611 143.408 220.229C145.944 218.524 147.883 217.417 150.149 215.564C152.344 213.769 153.818 212.448 154.822 211.52C155.338 211.043 155.701 210.697 156.026 210.395C156.322 210.12 156.589 209.877 156.818 209.715ZM298.756 209.377C298.224 210.083 297.785 210.777 297.48 211.432C296.946 212.574 296.896 213.406 297.152 213.962C297.2 214.066 297.263 214.137 297.314 214.174C297.336 214.19 297.353 214.198 297.361 214.201C297.413 214.197 297.634 214.128 297.906 213.818C298.547 213.087 299.076 212.115 299.004 211.048C298.971 210.562 298.882 210.003 298.756 209.377ZM137.64 192.923C138.192 192.923 138.64 193.371 138.64 193.923C138.64 194.302 138.624 196.475 137.008 204.766L137.001 204.8L136.992 204.833C136.31 207.382 135.444 209.69 134.91 211.098C134.376 212.507 134.184 212.986 133.987 213.478C133.782 213.991 133.2 214.241 132.688 214.036C132.176 213.831 131.925 213.248 132.13 212.735C132.322 212.254 132.51 211.787 133.04 210.389C133.57 208.992 134.4 206.775 135.053 204.342C136.654 196.125 136.64 194.108 136.64 193.923C136.64 193.371 137.088 192.924 137.64 192.923ZM49.8537 212.77C49.8569 212.765 49.8614 212.762 49.8634 212.76C49.8669 212.755 49.8703 212.749 49.8732 212.745C49.8672 212.753 49.8598 212.762 49.8537 212.77ZM271.553 203.207C271.482 205.532 271.495 207.69 271.646 209.397C271.746 210.537 271.903 211.412 272.106 211.987C272.172 212.177 272.237 212.31 272.289 212.398C272.319 212.356 272.353 212.296 272.381 212.212C272.918 210.617 273.493 208.063 272.652 205.58C272.342 204.664 271.975 203.863 271.553 203.207ZM180.842 165.601C180.93 165.597 181.355 165.592 181.668 165.969C182.001 166.371 181.889 166.811 181.856 166.92C181.812 167.065 181.745 167.172 181.715 167.219C181.243 167.941 180.409 168.992 179.371 170.396C178.307 171.835 176.954 173.739 175.354 176.28C171.245 182.805 168.787 187.599 167.523 190.271C163.77 198.201 162.713 200.224 162.071 202.152L162.063 202.181L162.052 202.207C162.006 202.321 161.961 202.422 161.922 202.514C166.317 199.83 169.374 198.008 172.6 195.213C175.878 192.372 181.754 187.385 185.197 183.653C187.768 180.868 189.511 178.759 190.591 177.301C191.132 176.57 191.497 176.018 191.714 175.637C191.818 175.454 191.876 175.328 191.905 175.255C191.93 174.813 192.248 174.425 192.701 174.331C193.242 174.22 193.771 174.568 193.883 175.108C193.928 175.326 193.901 175.516 193.879 175.625C193.855 175.747 193.816 175.862 193.777 175.963C193.7 176.164 193.587 176.389 193.452 176.626C193.18 177.104 192.764 177.727 192.197 178.491C191.061 180.024 189.268 182.191 186.667 185.01C183.127 188.846 177.137 193.927 173.91 196.724C170.122 200.006 166.514 202.026 161.243 205.273C161.15 205.775 160.688 206.133 160.169 206.086C160.069 206.077 159.972 206.052 159.883 206.016C153.846 209.288 152.496 209.752 151.366 210.249C151.106 210.367 150.925 210.454 150.804 210.525C150.78 210.539 150.761 210.551 150.748 210.56C150.458 210.944 149.924 211.073 149.485 210.841C148.998 210.582 148.811 209.977 149.069 209.489C149.264 209.121 149.613 208.905 149.793 208.8C150.017 208.669 150.288 208.542 150.55 208.423L150.561 208.418C151.691 207.921 153.026 207.471 159.376 204.015C159.448 203.514 159.533 203.156 159.65 202.809C159.8 202.361 160.042 201.844 160.19 201.475C160.884 199.407 162.048 197.164 165.715 189.416C167.013 186.674 169.508 181.809 173.661 175.214C175.294 172.621 176.676 170.676 177.763 169.207C178.556 168.135 179.156 167.358 179.592 166.763C179.576 166.382 179.781 166.008 180.144 165.826C180.197 165.799 180.388 165.7 180.551 165.65C180.597 165.637 180.706 165.606 180.842 165.601ZM88.6496 137.7C88.7072 137.705 88.7721 137.712 88.8351 137.724C88.8661 137.729 88.9107 137.738 88.9582 137.752C88.9896 137.761 89.0953 137.792 89.2111 137.861C89.2627 137.892 89.405 137.982 89.5236 138.153C89.6701 138.365 89.7866 138.727 89.6222 139.115C89.4935 139.418 89.2618 139.559 89.1847 139.602C89.0866 139.656 88.9989 139.683 88.9562 139.694C88.8096 139.734 88.6764 139.732 88.6447 139.732C88.5486 139.732 88.4543 139.718 88.3664 139.692C88.2591 139.693 88.0897 139.698 87.8576 139.725C87.5034 139.766 86.9464 140.11 86.2365 141.076C85.5609 141.996 84.8892 143.282 84.2462 144.772C82.9634 147.746 81.8723 151.338 81.0968 153.967C80.1031 157.336 79.5092 162.154 79.2638 164.093C79.0239 165.988 78.8393 167.88 78.6955 169.733C78.5334 171.822 77.8819 177.172 77.4494 180.767C77.0126 184.396 75.7538 189.539 74.3498 193.819C73.3593 196.838 71.7087 198.675 70.3439 200.592C69.0608 202.393 67.0494 203.761 62.5324 206.68C57.4704 209.95 52.3112 207.824 50.2619 206.97C48.902 206.402 47.8613 205.52 46.8439 204.342C45.8556 203.197 44.8345 201.704 43.5558 199.891C41.1843 197.19 39.3985 195.208 38.7013 194.262L38.6974 194.257C38.3115 193.726 37.8353 193.059 37.3488 192.378C37.0287 191.929 37.1329 191.303 37.5812 190.982C38.0303 190.662 38.6555 190.766 38.9767 191.215C39.4635 191.896 39.9326 192.554 40.3117 193.075L40.5978 193.444C41.3797 194.418 42.9461 196.165 45.0939 198.611L45.1291 198.651L45.1593 198.695C46.4914 200.584 47.4441 201.977 48.3576 203.035C49.2495 204.068 50.0512 204.714 51.0324 205.123C53.1105 205.99 57.3372 207.655 61.4474 205C66.0898 202 67.7046 200.85 68.715 199.432C70.2096 197.333 71.5816 195.841 72.4494 193.196C73.8275 188.995 75.0468 183.987 75.463 180.528C75.8996 176.9 76.5435 171.613 76.7013 169.579C76.8472 167.698 77.0348 165.773 77.2794 163.841C77.5188 161.95 78.1302 156.957 79.1789 153.401C79.9522 150.78 81.0725 147.078 82.4093 143.979C83.0761 142.434 83.8179 140.989 84.6242 139.892C85.3951 138.842 86.3932 137.881 87.6291 137.738C88.0775 137.687 88.4193 137.682 88.6496 137.7ZM163.12 167.075C163.399 166.599 164.011 166.438 164.487 166.716C164.964 166.994 165.125 167.607 164.847 168.084C164.159 169.262 163.756 169.869 163.24 170.538C162.752 171.172 162.203 171.811 160.673 174.013C156.693 179.89 154.118 184.404 153.343 185.746C153.019 186.307 152.695 187.041 152.292 187.951C151.898 188.841 151.443 189.865 150.876 190.923C150.008 192.543 149.199 194.291 148.584 195.75C147.953 197.247 147.569 198.341 147.497 198.699C147.389 199.241 146.863 199.592 146.321 199.484C145.781 199.376 145.429 198.85 145.536 198.309C145.654 197.719 146.123 196.439 146.74 194.974C147.374 193.47 148.21 191.664 149.112 189.978C149.64 188.994 150.069 188.033 150.464 187.142C150.85 186.27 151.22 185.422 151.611 184.746C152.391 183.395 154.997 178.825 159.024 172.881L159.03 172.871C160.596 170.618 161.183 169.93 161.656 169.316C162.102 168.738 162.458 168.209 163.12 167.075ZM137.792 180.33C138.182 179.94 138.816 179.94 139.206 180.33C139.597 180.721 139.596 181.354 139.206 181.744C138.933 182.016 135.622 184.917 125.199 191.682L125.168 191.702L125.135 191.72C122.414 193.209 120.446 193.903 118.685 194.358C116.924 194.814 115.44 195.008 113.099 195.205C112.549 195.25 112.065 194.842 112.019 194.292C111.973 193.742 112.382 193.259 112.932 193.212C115.227 193.019 116.582 192.836 118.184 192.422C119.781 192.009 121.588 191.379 124.15 189.978C129.328 186.616 132.715 184.231 134.823 182.668C135.88 181.885 136.615 181.307 137.094 180.919C137.333 180.725 137.508 180.578 137.626 180.477C137.735 180.383 137.784 180.337 137.792 180.33ZM3.00894 161.933C3.50265 161.686 4.10357 161.886 4.35074 162.38C4.5524 162.783 4.70773 163.088 4.89371 163.348C5.06577 163.587 5.2735 163.8 5.58609 164.034L7.04214 165.129C8.55772 166.285 10.2235 167.596 11.7736 168.802C13.8682 170.431 15.722 171.841 16.8029 172.499C19.0343 173.856 23.7109 176.907 28.3634 181.394C30.3304 183.29 31.6234 184.692 32.4669 185.728C33.2987 186.751 33.7375 187.472 33.9367 188.005C34.1297 188.522 33.8668 189.098 33.3498 189.291C32.8327 189.483 32.2558 189.221 32.0627 188.704C31.9773 188.476 31.7006 187.957 30.9152 186.991C30.14 186.038 28.9085 184.698 26.9748 182.833C22.4678 178.487 17.9267 175.524 15.7638 174.208C14.5629 173.477 12.6058 171.984 10.5451 170.381C8.45574 168.756 6.22099 166.988 4.39859 165.644L4.39371 165.64C3.93844 165.299 3.57722 164.943 3.26871 164.514C2.97362 164.102 2.74956 163.649 2.56167 163.273C2.31571 162.78 2.51633 162.18 3.00894 161.933ZM200.236 125.116C201.515 124.716 202.652 124.818 203.716 125.23C205.132 125.78 206.163 126.926 206.821 127.785C207.707 128.941 207.948 130.736 207.904 132.572C207.86 134.47 207.503 136.66 206.96 138.822C205.38 145.12 203.957 147.1 203.047 149.357C201.601 154.081 200.221 158.222 199.17 160.432L199.166 160.441L199.161 160.45C198.824 161.123 198.394 162.086 197.333 163.368C196.981 163.793 196.35 163.853 195.925 163.501C195.501 163.149 195.441 162.519 195.792 162.094C196.683 161.017 197.025 160.251 197.367 159.566C198.347 157.506 199.688 153.497 201.147 148.732L201.159 148.693L201.175 148.654C202.204 146.08 203.471 144.508 205.02 138.336C205.539 136.266 205.864 134.229 205.904 132.524C205.946 130.759 205.675 129.577 205.234 129.001C204.63 128.214 203.877 127.438 202.992 127.095C202.315 126.832 201.645 126.772 200.834 127.025C198.58 127.732 197.104 128.423 195.538 129.556C193.301 131.174 192.097 132.37 190.505 133.729C188.882 135.116 186.9 136.958 184.272 139.823C181.58 142.757 178.915 145.58 176.663 147.854C174.435 150.106 172.551 151.885 171.444 152.677C169.795 153.857 168.306 154.805 166.973 155.64C165.63 156.48 164.469 157.19 163.428 157.923C160.892 159.706 159.146 161.244 156.209 162.536C152.545 164.148 146.478 166.443 141.914 167.542C140.613 167.855 139.553 168.151 138.704 168.369C138.291 168.475 137.916 168.567 137.609 168.624C137.352 168.672 136.969 168.732 136.633 168.663C136.093 168.551 135.745 168.023 135.856 167.482C135.967 166.942 136.496 166.594 137.036 166.704C136.942 166.685 136.959 166.71 137.243 166.657C137.479 166.613 137.797 166.537 138.206 166.432C139.005 166.226 140.129 165.915 141.445 165.598C145.85 164.537 151.798 162.292 155.403 160.705C158.099 159.519 159.57 158.191 162.277 156.287C163.375 155.515 164.597 154.766 165.911 153.943C167.235 153.115 168.682 152.194 170.28 151.05C171.226 150.373 172.992 148.721 175.242 146.447C177.47 144.196 180.117 141.393 182.798 138.471C185.481 135.547 187.52 133.648 189.206 132.208C190.701 130.932 192.042 129.617 194.365 127.936C196.149 126.645 197.834 125.869 200.236 125.116ZM140.274 66.3105C147.095 65.6918 149.342 66.1294 152.684 66.4883C156.671 66.9163 162.053 69.0248 167.322 71.5918L168.375 72.1103L168.434 72.1406L168.488 72.1767C172.859 75.1344 176.874 78.0846 179.971 80.3603C181.522 81.5005 182.837 82.4673 183.856 83.1855C184.356 83.538 184.777 83.8248 185.113 84.04C188.241 83.8006 192.614 84.0003 200.617 84.0605C203.498 83.886 205.617 83.6515 207.681 83.416C208.549 83.3008 209.115 83.1878 209.717 83.0674C210.258 82.9594 210.785 83.3105 210.894 83.8515C210.945 84.1095 210.891 84.3636 210.763 84.5713C211.679 84.6873 212.603 84.8817 213.462 85.1328L213.815 85.2402L213.828 85.2441C214.008 85.304 214.12 85.3435 214.224 85.376C214.295 85.3984 214.338 85.4073 214.361 85.4121C214.371 85.4086 214.388 85.4032 214.407 85.3955C214.921 85.1938 215.502 85.4474 215.704 85.9609C215.759 86.0996 215.779 86.2432 215.771 86.3828C216.488 86.6427 217.077 87.0422 217.546 87.4111C217.799 87.6099 218.032 87.8128 218.225 87.9785C218.428 88.1528 218.581 88.2808 218.712 88.375C219.083 88.6414 219.381 89.0496 219.613 89.4492C219.858 89.8694 220.084 90.3751 220.283 90.9277C220.357 91.1306 220.426 91.3433 220.493 91.5625C220.998 91.6132 221.392 92.0406 221.392 92.5586C221.392 93.4028 221.564 95.0135 222.154 96.8779C222.514 98.0147 222.772 99.1397 223.056 100.43C223.34 101.725 223.654 103.202 224.127 105.091C224.756 107.601 225.017 110.023 225.339 111.952C225.555 113.246 225.64 114.731 225.702 116.205C225.765 117.702 225.805 119.188 225.921 120.574C226.13 123.057 226.261 129.17 226.021 133.551C225.888 135.97 225.269 138.544 224.032 142.969C223.361 145.368 221.343 149.193 218.468 153.517L218.402 153.615L218.316 153.695C215.669 156.156 213.541 157.906 212.419 158.679C211.79 159.173 210.876 159.993 209.616 161.155C209.21 161.529 208.578 161.504 208.203 161.099C207.83 160.693 207.856 160.06 208.261 159.686C209.514 158.529 210.489 157.649 211.194 157.098L211.22 157.077L211.248 157.059C212.219 156.398 214.244 154.744 216.866 152.311C219.687 148.057 221.53 144.492 222.107 142.43C223.349 137.984 223.905 135.611 224.024 133.441C224.259 129.146 224.129 123.127 223.929 120.742C223.808 119.301 223.766 117.743 223.704 116.29C223.642 114.814 223.56 113.441 223.366 112.281C223.019 110.199 222.79 107.985 222.187 105.576C221.705 103.653 221.385 102.141 221.103 100.858C220.82 99.5701 220.578 98.5236 220.248 97.4814C220.226 97.4127 220.205 97.3436 220.185 97.2754C220.042 97.4146 219.9 97.5312 219.774 97.6221C219.532 97.7949 219.283 97.9248 219.033 98.0195C219.028 98.0472 219.025 98.0752 219.019 98.1015C218.95 98.3793 218.791 98.6271 218.554 98.8017C218.334 98.9633 218.1 99.0245 217.926 99.0459C217.847 99.0554 217.768 99.0575 217.693 99.0556C217.429 99.1919 217.163 99.212 216.996 99.2041C216.74 99.1916 216.506 99.1177 216.335 99.043C215.879 98.8431 215.577 98.4766 215.381 98.1347C215.245 97.8972 215.137 97.6308 215.048 97.3545C214.628 97.0235 214.349 96.5826 214.154 96.2138C214.029 95.9764 213.917 95.7265 213.816 95.4951C213.579 96.1245 213.297 96.8905 213.021 97.7812C212.406 99.7597 211.573 101.03 210.868 101.679C210.223 102.272 209.427 102.353 208.877 102.376C207.913 102.416 207.243 101.825 206.827 101.354C206.61 101.108 206.411 100.837 206.239 100.6C206.058 100.349 205.907 100.135 205.751 99.9414C205.255 99.3269 204.965 98.6027 204.742 98.0293C204.516 97.4474 204.357 97.025 204.146 96.6924C204.134 96.6895 204.118 96.6845 204.101 96.6816C203.972 96.6606 203.791 96.6585 203.573 96.6767C203.564 96.6923 203.55 96.712 203.537 96.7363C203.509 96.7899 203.48 96.8542 203.447 96.9326C203.326 97.2272 203.249 97.5438 203.153 98.0898C203.062 98.6094 202.945 99.3955 202.753 100.432C202.538 101.589 202.23 102.543 201.6 103.735C201.179 104.529 200.407 104.801 199.949 104.938C199.18 105.169 198.46 104.973 197.893 104.674C197.333 104.378 196.835 103.939 196.427 103.52C195.167 102.228 194.584 100.449 194.42 98.3388C194.378 97.7998 194.536 97.2664 194.757 96.792C194.593 96.4434 194.566 96.0834 194.57 95.8232C194.576 95.4785 194.638 95.1231 194.693 94.8408C194.758 94.5016 194.952 94.1807 195.115 93.9414C195.301 93.6689 195.552 93.3524 195.859 92.9971C196.474 92.2832 197.373 91.3425 198.569 90.1562C198.734 89.9935 198.905 89.8316 199.079 89.6728C199.223 89.4906 199.377 89.2957 199.535 89.0947C200.813 87.4721 202.257 86.4729 203.878 85.8222C202.914 85.9081 201.869 85.9893 200.703 86.0596L200.67 86.0615H200.636C194.677 86.017 190.835 85.9016 188.027 85.9306C188.023 85.9795 188.016 86.0291 188.004 86.0781C187.87 86.6137 187.327 86.9394 186.791 86.8056C186.618 86.7624 186.442 86.7141 186.256 86.664C185.893 86.9196 185.452 87.23 184.929 87.6113C183.743 88.4759 182.124 89.714 180.054 91.4912C176.968 94.5168 174.196 97.3462 172.015 99.6963C169.83 102.049 168.282 103.875 167.58 104.932C167.35 105.342 167.226 105.642 167.143 105.964C167.052 106.312 166.998 106.72 166.938 107.376C166.887 107.926 166.4 108.33 165.851 108.28C165.302 108.229 164.896 107.743 164.946 107.193C165.008 106.527 165.073 105.978 165.208 105.46C165.348 104.923 165.553 104.453 165.857 103.916L165.873 103.887L165.892 103.858C166.688 102.649 168.354 100.7 170.55 98.3349C172.764 95.9506 175.565 93.0903 178.674 90.042L178.698 90.0195L178.723 89.998C180.657 88.3363 182.214 87.1307 183.404 86.2519C181.303 86.5478 177.924 87.0643 172.407 87.3721C169.762 87.5196 167.888 87.7685 166.638 88.043C166.012 88.1804 165.564 88.3199 165.266 88.4443C164.937 88.5814 164.894 88.6568 164.938 88.6025C164.594 89.0341 163.964 89.1061 163.532 88.7627C163.101 88.4189 163.029 87.7903 163.372 87.3584C163.652 87.0064 164.084 86.7697 164.497 86.5976C164.943 86.4121 165.514 86.2424 166.208 86.0898C167.601 85.784 169.591 85.5259 172.296 85.375C177.091 85.1075 180.039 84.7066 182.128 84.4092C181.189 83.7365 180.059 82.9071 178.786 81.9717C175.701 79.7042 171.736 76.7908 167.422 73.8701C161.855 71.0913 156.321 68.89 152.471 68.4765C149.155 68.1205 147.071 67.7026 140.454 68.3027C138.748 68.4574 137.37 68.4174 134.418 69.0166C131.458 69.6175 126.94 70.862 119.163 73.5898C112.991 75.7548 105.305 78.8125 101.199 80.7431C96.1993 83.0946 91.9038 84.5896 87.2384 88.1846C86.1333 89.0363 85.2482 89.91 84.6203 90.6562C83.962 91.4388 83.6664 91.9867 83.6095 92.1865C83.4583 92.7174 82.9042 93.0259 82.3732 92.875C81.8433 92.7232 81.5352 92.17 81.6857 91.6396C81.8648 91.0103 82.3986 90.1911 83.09 89.3691C83.8126 88.5103 84.802 87.5375 86.0177 86.6006C90.9105 82.8303 95.536 81.1965 100.348 78.9336C104.536 76.964 112.291 73.8805 118.501 71.7021C126.315 68.9613 130.931 67.6838 134.021 67.0566C137.116 66.4284 138.71 66.4523 140.274 66.3105ZM77.4826 100.701C78.5828 99.7403 79.9829 98.9595 81.5382 99.4013C82.552 99.6899 83.4075 100.14 84.0617 100.538C84.3874 100.736 84.6725 100.927 84.8937 101.074C85.1361 101.235 85.2619 101.315 85.3312 101.35C85.8255 101.596 86.0272 102.196 85.7814 102.69C85.5353 103.184 84.9348 103.386 84.4406 103.141C84.2357 103.038 83.9937 102.877 83.7882 102.741C83.5595 102.589 83.3076 102.421 83.0216 102.247C82.4506 101.9 81.7675 101.545 80.9914 101.324C80.4473 101.17 79.7556 101.372 78.799 102.207C77.8626 103.025 76.9073 104.247 75.9123 105.587C75.2259 106.511 74.9392 107.677 74.923 109.085C74.9067 110.504 75.1637 112.077 75.4835 113.759C75.8048 115.447 76.1393 116.946 76.3419 118.234C76.5486 119.549 76.6422 120.771 76.4611 121.998C76.1112 124.369 75.2263 126.285 74.1476 128.891C73.4014 130.693 72.5319 132.067 71.7824 133.213C71.0117 134.391 70.4379 135.236 70.1193 136.112C69.6826 137.313 68.7538 139.17 67.6281 141.503C66.4926 143.856 65.1133 146.777 63.7062 150.213C62.7978 153.836 62.163 156.835 61.7013 158.82V158.822C61.514 159.619 61.4217 159.988 61.3273 160.365C61.1932 160.901 60.65 161.227 60.1144 161.093C59.5798 160.958 59.2535 160.416 59.3869 159.881C59.4798 159.509 59.5695 159.149 59.7541 158.364C60.207 156.416 60.8628 153.328 61.7853 149.654L61.8019 149.585L61.8293 149.52C63.2683 146 64.6775 143.015 65.8263 140.634C66.9914 138.219 67.8479 136.505 68.2394 135.429C68.6565 134.282 69.3961 133.208 70.1085 132.118C70.8424 130.996 71.6277 129.749 72.3 128.125C73.4232 125.412 74.1778 123.771 74.4826 121.706C74.6211 120.767 74.5594 119.774 74.3664 118.546C74.1693 117.292 73.8586 115.92 73.5187 114.133C73.1993 112.454 72.9041 110.703 72.923 109.062C72.9421 107.41 73.2792 105.776 74.3058 104.394C75.2875 103.072 76.3614 101.681 77.4826 100.701ZM78.5812 89.0342C78.663 89.0178 78.9738 88.9597 79.3019 89.1357C79.7879 89.3975 79.9697 90.0041 79.7082 90.4902C79.5634 90.7587 79.3129 90.9339 79.0363 90.9931C79.0192 91.0032 78.9966 91.0157 78.9718 91.0312C78.802 91.1379 78.5508 91.3155 78.2326 91.5556C77.601 92.0324 76.7685 92.7074 75.9044 93.4336C72.0829 96.645 67.6449 98.4736 65.8761 99.4199C63.7126 100.577 61.1268 101.586 59.3576 102.19C57.6022 102.79 54.3996 104.073 51.006 105.004C49.3285 105.464 48.0368 106.122 45.4826 107.164C42.213 108.498 38.6662 109.433 33.7228 111.853C31.1863 113.094 29.0737 114.398 26.3468 116.08L26.2873 116.116C23.8165 117.641 22.1949 119.004 20.6769 120.476C19.7807 121.344 18.8994 122.411 18.0021 123.555C17.1209 124.678 16.2033 125.902 15.298 126.992C12.362 130.526 10.729 132.828 7.21988 138.337C5.19646 141.514 3.74729 146.609 2.63101 150.958C2.53845 151.946 2.44397 152.709 2.25503 153.605C2.17051 154.073 2.08516 154.676 1.99527 155.569C1.93982 156.118 1.44963 156.519 0.900541 156.464C0.35195 156.408 -0.0499562 155.918 0.00503347 155.369C0.100419 154.421 0.194972 153.757 0.293119 153.22L0.295073 153.206L0.298002 153.193C0.46947 152.38 0.555697 151.685 0.647612 150.69L0.655424 150.611L0.674955 150.534C1.77805 146.231 3.29753 140.773 5.53335 137.263C9.0693 131.712 10.7523 129.335 13.7599 125.715C14.6431 124.652 15.5058 123.497 16.4289 122.32C17.3357 121.164 18.2862 120.007 19.2853 119.039C20.8907 117.483 22.6247 116.026 25.2365 114.414L25.296 114.378C28.0119 112.702 30.206 111.348 32.8439 110.057C37.8265 107.618 41.7537 106.525 44.7267 105.312C47.1128 104.339 48.6456 103.578 50.4767 103.075C53.797 102.164 56.8139 100.946 58.7111 100.298C60.4254 99.712 62.9002 98.7435 64.9328 97.6562C66.9314 96.5869 71.0084 94.935 74.6173 91.9023C75.493 91.1664 76.3559 90.4659 77.0275 89.959C77.3597 89.7082 77.6649 89.4897 77.9084 89.3369C78.0255 89.2634 78.1611 89.185 78.2931 89.1269C78.3565 89.0992 78.4597 89.0587 78.5812 89.0342ZM298.218 142.648C298.34 143.184 298.565 143.805 298.982 144.338C298.95 144.128 298.908 143.929 298.854 143.743C298.715 143.273 298.508 142.913 298.218 142.648ZM275.404 131.014C271.469 131.406 269.326 133.033 266.876 134.956C264.686 136.675 262.546 137.405 261.495 137.601C260.912 137.709 260.361 137.561 259.905 137.357C259.924 137.398 259.942 137.44 259.961 137.479C260.167 137.91 260.338 138.185 260.423 138.282C260.967 138.903 262.135 139.517 263.861 140.094C265.315 140.579 267.033 140.994 268.825 141.38C269.213 140.37 269.693 139.225 270.262 137.905C270.909 136.403 271.945 135.047 273.01 133.817C273.545 133.2 274.103 132.597 274.634 132.02C274.953 131.674 275.263 131.334 275.559 131.002C275.508 131.004 275.456 131.009 275.404 131.014ZM209.176 104.749C209.723 104.827 210.103 105.333 210.026 105.88C209.991 106.119 209.921 106.819 209.461 110.776C209.248 112.615 209.106 114.122 209.008 115.217C208.959 115.759 208.92 116.214 208.89 116.545C208.862 116.849 208.835 117.132 208.804 117.289C208.731 117.655 208.67 117.934 208.619 118.209C208.631 118.239 208.655 118.296 208.702 118.385C208.965 118.87 208.784 119.478 208.298 119.74C207.812 120.002 207.205 119.821 206.943 119.336C206.805 119.082 206.706 118.842 206.654 118.602C206.598 118.34 206.611 118.135 206.627 117.992L206.631 117.961L206.636 117.93C206.693 117.606 206.776 117.234 206.843 116.897C206.843 116.895 206.849 116.856 206.861 116.754C206.871 116.656 206.884 116.526 206.899 116.362C206.929 116.031 206.966 115.595 207.016 115.038C207.115 113.934 207.258 112.408 207.475 110.546C207.929 106.637 208.006 105.87 208.045 105.598C208.123 105.052 208.63 104.672 209.176 104.749ZM200.406 101.512C200.314 101.656 200.198 101.786 200.056 101.893C200.055 101.948 200.057 102.001 200.056 102.051C200.053 102.131 200.04 102.319 199.934 102.522C199.818 102.743 199.595 102.958 199.281 103.038C199.317 103.036 199.349 103.031 199.374 103.023C199.56 102.967 199.675 102.92 199.749 102.875C199.809 102.838 199.825 102.814 199.832 102.8C200.079 102.334 200.261 101.918 200.406 101.512ZM125.254 87.4512C125.409 87.4584 126.064 87.5257 126.288 88.1992C126.381 88.4769 126.339 88.7215 126.299 88.8623C126.257 89.0068 126.194 89.1245 126.146 89.2041C125.972 89.4874 125.671 89.7804 125.393 90.0303C125.267 90.143 125.125 90.2621 124.974 90.3877C124.943 90.4913 124.905 90.5678 124.883 90.6064C124.8 90.7536 124.694 90.858 124.653 90.8974C124.597 90.9528 124.535 91.0062 124.479 91.0517C124.365 91.1438 124.223 91.2472 124.07 91.3545C123.466 91.7785 122.454 92.4159 121.391 93.0644C121.08 93.2835 120.76 93.5049 120.44 93.7275C121.583 93.4019 122.689 93.175 123.651 93.0039C124.648 92.8264 125.525 92.7138 126.31 92.665C126.445 92.6566 126.699 92.6466 126.943 92.7236C127.062 92.7614 127.36 92.8767 127.552 93.2021C127.577 93.2454 127.598 93.2901 127.616 93.333C127.717 93.3303 127.839 93.3325 127.963 93.3545C128.052 93.3704 128.453 93.4438 128.706 93.8301C129.043 94.3443 128.801 94.8362 128.698 94.9931C128.588 95.1617 128.449 95.275 128.373 95.333C127.548 95.9636 126.648 96.5165 125.717 97.0019C125.367 97.3126 124.834 97.605 124.243 97.8574C116.81 101.033 113.481 101.525 110.909 102.041C110.786 102.066 110.652 102.082 110.516 102.087C110.438 102.133 110.362 102.178 110.288 102.216C110.151 102.287 109.902 102.406 109.626 102.432C109.48 102.445 109.193 102.445 108.909 102.263C108.585 102.053 108.455 101.733 108.423 101.487C108.395 101.271 108.433 101.086 108.462 100.978C108.494 100.858 108.54 100.744 108.585 100.645C108.689 100.418 108.845 100.165 109.037 99.8965C108.946 99.7234 108.916 99.5423 108.922 99.3857C108.935 99.0634 109.099 98.847 109.127 98.8086C109.182 98.7337 109.239 98.6762 109.274 98.6435C109.345 98.5754 109.427 98.5108 109.497 98.458C109.708 98.2998 110.014 98.1289 110.291 97.9756C110.564 97.8244 110.863 97.6593 111.183 97.4746C113.39 95.1875 116.164 92.3921 118.525 90.6367C119.137 90.1814 119.943 89.4897 120.671 89.0176C121.42 88.532 122.302 88.1195 123.353 88.0869C123.458 88.0192 123.555 87.9575 123.638 87.9082C123.715 87.8623 123.86 87.7769 123.999 87.7265C124.234 87.6419 124.45 87.5733 124.639 87.5263C124.809 87.484 125.032 87.4411 125.254 87.4512ZM197.76 102.018C197.719 101.94 197.679 101.858 197.64 101.772C197.626 101.771 197.61 101.77 197.596 101.768C197.578 101.764 197.559 101.759 197.541 101.755C197.611 101.846 197.685 101.934 197.76 102.018ZM203.473 93.7168C203.233 93.8714 203.012 94.0117 202.832 94.1142C202.734 94.17 202.626 94.2285 202.525 94.2734C202.48 94.2932 202.412 94.3191 202.335 94.3418C202.282 94.4667 202.219 94.5978 202.156 94.7187C201.964 95.0868 201.669 95.5903 201.32 96.168C201.097 96.7208 200.811 97.3487 200.508 97.9756C200.572 98.1951 200.607 98.4119 200.624 98.6162C200.761 99.1993 200.753 99.8979 200.683 100.561C200.72 100.401 200.756 100.237 200.787 100.066C200.982 99.0192 201.077 98.3541 201.184 97.7451C201.286 97.1635 201.392 96.6722 201.599 96.1699C201.679 95.9752 201.819 95.6545 202.051 95.3701C202.301 95.0647 202.696 94.7577 203.261 94.6972L203.527 94.6748C203.696 94.6641 203.878 94.6613 204.062 94.6709C203.774 94.4496 203.576 94.13 203.494 93.8164C203.486 93.7834 203.48 93.7494 203.473 93.7168ZM210.672 98.375C210.39 98.7875 210.108 99.1615 209.897 99.4482C209.806 99.5709 209.673 99.7091 209.499 99.8164C209.41 100.009 209.302 100.184 209.183 100.323C209.178 100.329 209.171 100.334 209.166 100.34C209.365 100.307 209.456 100.26 209.514 100.207C209.789 99.9532 210.236 99.376 210.672 98.375ZM196.528 99.1484C196.574 99.4214 196.63 99.6786 196.694 99.9209C196.708 99.7445 196.73 99.557 196.754 99.3681C196.668 99.2964 196.593 99.2201 196.528 99.1484ZM206.369 96.7041C206.371 96.6479 206.372 96.5911 206.374 96.5342C206.337 96.5115 206.301 96.4864 206.268 96.4609C206.303 96.5425 206.337 96.6243 206.369 96.7041ZM218.203 91.1055C218.089 91.416 217.889 91.6667 217.711 91.8398C217.81 91.9633 217.895 92.091 217.967 92.2148C218.188 92.5969 218.355 93.048 218.497 93.4736C218.599 93.7793 218.665 94.0817 218.705 94.374C218.825 94.7377 218.934 95.1222 219.033 95.5215C219.113 95.3675 219.157 95.1945 219.14 95.001C219.026 93.7544 218.743 92.5517 218.402 91.6074C218.338 91.4279 218.27 91.2602 218.203 91.1055ZM205.228 94.9267C205.197 94.933 205.164 94.9359 205.134 94.9404C205.289 95.0231 205.441 95.1331 205.577 95.2763C205.546 95.136 205.527 94.9951 205.517 94.8574C205.415 94.8829 205.318 94.9079 205.228 94.9267ZM211.852 94.4521C211.856 94.6289 211.849 94.8022 211.832 94.9697C211.837 95.0005 211.839 95.0318 211.843 95.0625C211.927 94.8349 212.005 94.6238 212.076 94.4336C212.002 94.4428 211.926 94.4491 211.852 94.4521ZM205.824 92.4502C205.73 92.5543 205.655 92.6486 205.598 92.7334C205.695 92.6934 205.797 92.6461 205.902 92.5928C205.943 92.4741 205.988 92.3544 206.033 92.2344C205.962 92.3034 205.892 92.3756 205.824 92.4502ZM207.862 88.7617C207.634 88.8639 207.415 88.9789 207.218 89.1064C207.104 89.1801 206.988 89.2566 206.871 89.333C206.989 89.3492 207.181 89.3953 207.361 89.5361C207.458 89.3709 207.557 89.2089 207.654 89.0527C207.719 88.9497 207.79 88.8531 207.862 88.7617ZM212.493 87.9756C212.64 88.1786 212.697 88.3942 212.716 88.5752C212.964 88.4813 213.208 88.4187 213.435 88.3867C213.483 88.3667 213.532 88.3467 213.578 88.3281C213.822 88.2305 214.206 88.129 214.623 88.2451C214.885 88.3184 215.096 88.461 215.257 88.6387C215.265 88.6418 215.275 88.646 215.283 88.6494C215.518 88.6631 215.754 88.6929 215.982 88.7392C215.663 88.5177 215.335 88.3367 214.983 88.2246C214.403 88.0403 213.53 87.9648 212.493 87.9756Z" fill="black"/>
</g>
<defs>
<clipPath id="clip0_19_33">
<rect width="330" height="260" fill="white"/>
</clipPath>
</defs>
</svg>
