<svg width="294" height="192" viewBox="0 0 294 192" fill="none" xmlns="http://www.w3.org/2000/svg">
<path d="M30.5516 137.457C30.4664 137.63 29.0501 139.049 27.3648 140.863C24.1011 144.377 23.7254 147.206 22.4808 149.207C20.6338 152.176 19.9077 154.485 18.3995 157.016C17.0155 159.338 14.418 165.369 12.983 169.307C12.1474 171.601 11.2978 174.628 10.8079 176.321C10.3391 177.942 9.34366 179.426 8.67941 181.112C8.19354 181.997 7.57057 182.714 6.68668 183.464C6.15422 183.951 5.45137 184.654 4.19476 186.177M75.8109 73.2953C75.4594 73.2927 74.0431 74.8821 72.9742 76.3077C71.7463 77.9454 71.466 81.0906 71.064 85.7336C70.4228 93.1392 71.1066 98.5819 71.2397 99.8638C71.7473 104.753 71.7269 110.818 72.2594 113.266C72.7613 115.573 72.6161 119.327 72.3073 121.744C72.0976 123.385 71.2454 125.361 70.4225 127.268L70.3571 127.42C68.9318 130.726 67.4778 132.478 66.4076 134.477C65.2588 136.621 62.6005 138.16 61.0843 139.317C59.568 140.473 57.4516 141.088 54.965 142.157C53.2326 142.902 49.9173 141.722 47.2882 140.7C45.0337 139.823 42.7237 138.618 41.0278 137.196C39.5236 134.896 37.037 131.432 35.8842 129.748C35.4343 129.031 35.2586 128.591 34.8113 127.873M31.8828 123.879C31.9706 123.879 32.0585 123.879 32.1037 123.703C32.418 122.484 29.2418 119.114 26.6567 116.389C23.5025 113.064 21.159 111.734 19.1982 110.084C17.6704 108.799 14.7694 107.293 12.8539 106.488C10.4742 105.487 8.5503 104.535 7.04077 103.871C5.1745 103.025 3.75815 102.496 2.33648 101.299C1.97973 100.986 1.6283 100.722 1 100.185M2.86365 68.5032C2.9515 68.5085 4.00844 65.6811 5.03476 63.4954C6.34365 60.7078 9.15734 57.1511 12.211 52.9487C15.9553 47.7958 17.501 46.9438 20.8209 44.1537C22.4424 42.791 25.03 41.0069 26.8643 39.488C28.1526 38.4214 29.3909 37.5352 30.7234 36.4716C33.069 34.5993 35.8656 33.5418 38.7888 32.5687C42.2232 30.8102 46.4163 28.1399 50.2248 24.9545C52.0125 23.2626 53.506 21.4176 55.0448 19.5168M64.0967 26.705C63.7453 26.1778 63.2128 25.7305 62.4607 25.4643C60.8262 24.8857 58.0799 27.312 56.3361 29.1396C54.7876 30.7627 54.9597 34.3192 54.5137 37.2104C53.7498 42.1637 56.9884 49.1376 58.3248 52.3403C59.6587 55.5368 57.4463 58.4663 55.805 62.6301C55.3229 63.8532 55.2233 64.6828 55.0023 65.6558C54.6935 66.8046 54.6881 72.0946 54.9544 79.6769C55.0449 82.6028 55.0449 83.657 55.0449 84.7433M60.3694 17.3869C60.4573 17.5626 60.5452 17.7383 60.8101 17.697C61.5682 17.5789 65.6568 14.6607 72.6533 10.3184C75.8861 8.3121 78.7713 7.20621 81.2739 6.00152C85.9358 3.75734 89.9024 2.03868 94.1914 1.3731C99.5629 0.539531 103.842 1.32251 106.539 1.58874C112.519 2.17903 114.67 1.94549 118.259 2.651C120.715 3.13384 124.504 4.60247 128.937 5.57688C133.293 6.53441 135.084 8.68114 137.522 10.7231C140.231 12.6799 142.363 13.9205 143.826 14.9868C144.315 15.2544 144.93 15.5179 145.563 15.7895M168.459 13.6596C167.754 13.7475 165.456 14.453 162.88 14.9895C158.429 15.9165 154.993 15.5233 149.38 15.8747C141.746 16.929 136.519 17.9167 135.014 18.4039C134.299 18.6275 133.684 18.8032 133.05 18.9843M146.894 17.3869C146.719 17.5626 145.31 18.3559 142.347 19.9041C138.793 21.7613 134.581 24.205 130.814 26.9073C129.243 28.116 128.365 28.9945 127.605 29.8425C126.845 30.6904 126.23 31.4811 125.596 32.2958M92.0509 26.705C92.5781 26.263 94.5269 25.7306 96.481 25.1542C98.1276 24.6685 99.6785 24.9292 100.3 25.3259C100.602 25.5188 100.395 26.1619 100.174 26.6531C98.9124 29.4567 89.5231 31.0573 85.5294 32.0915M85.5294 32.0915C85.4384 32.1151 85.3501 32.1384 85.2647 32.1614C81.4519 33.1895 95.9486 28.3929 97.6352 27.8165C98.0759 27.6659 98.5204 27.5942 98.3513 27.5928C97.1086 27.5831 95.6211 27.8953 94.0892 28.352M85.5294 32.0915C85.3312 32.1875 85.0994 32.2978 84.8068 32.4342C84.1333 32.7484 83.1668 33.1877 83.0457 32.8642C82.9715 32.6661 83.2063 32.194 83.3451 31.8822M85.5294 32.0915C85.7877 31.9665 85.9891 31.8658 86.1939 31.7634M94.0892 28.352C93.3979 28.5582 92.6975 28.7938 92.0066 29.0425M94.0892 28.352C93.4402 28.597 92.7438 28.8314 92.0066 29.0425M94.0892 28.352C97.1531 27.1958 99.1607 25.8067 99.4149 25.5535C99.7502 25.2195 98.0743 25.8199 95.6678 26.7903M92.0066 29.0425C89.6398 29.8945 87.3837 30.9006 85.9796 31.4053C85.4874 31.5822 85.0491 31.6728 85.1303 31.5424C85.1949 31.4386 85.2631 31.3369 85.3347 31.2372M92.0066 29.0425C91.3392 29.2335 90.6384 29.4054 89.9091 29.5483C89.0411 29.7185 91.7888 28.9911 94.1327 27.4182M85.3347 31.2372L85.3359 31.2356M85.3347 31.2372C85.3391 31.2352 85.3437 31.2331 85.3486 31.2309C87.7021 30.1546 91.2057 28.63 94.1327 27.4182M85.3347 31.2372C85.2478 31.277 85.2557 31.2731 85.3359 31.2356M85.3359 31.2356C85.4826 31.0316 85.6435 30.8361 85.8168 30.6488M85.3359 31.2356C85.7761 31.0299 88.3935 29.8126 89.4539 29.2461C89.6209 29.1569 89.7705 29.0748 89.9012 29.001M85.8168 30.6488C87.884 28.4144 91.7038 27.3496 93.9767 26.9648M85.8168 30.6488C86.1177 30.5257 86.4431 30.3845 86.7766 30.2354M85.8168 30.6488C85.217 30.8943 84.715 31.0681 84.4421 31.0898C84.3612 31.0962 84.2856 31.1 84.2151 31.1013M93.9767 26.9648C94.5435 26.8689 95.0141 26.8152 95.3373 26.7962M93.9767 26.9648C96.0198 26.269 97.4177 25.8719 96.9749 26.086C96.6742 26.2314 96.0867 26.4841 95.3373 26.7962M93.9767 26.9648C92.2213 27.5628 89.9897 28.3812 88.0402 29.2222C86.5647 29.8587 91.2777 28.263 93.2899 27.6354M95.3373 26.7962C95.4759 26.7881 95.5874 26.7863 95.6678 26.7903M95.3373 26.7962C94.7373 27.0461 94.0334 27.3341 93.2899 27.6354M95.6678 26.7903C95.8698 26.8004 95.8751 26.847 95.6198 26.9206C95.2551 27.0257 94.8187 27.1675 94.3352 27.3345M95.6678 26.7903C95.244 26.9613 94.7974 27.1437 94.3352 27.3345M94.3352 27.3345C94.2758 27.355 94.2156 27.3759 94.1548 27.3972M94.3352 27.3345C94.268 27.3622 94.2005 27.3901 94.1327 27.4182M94.1548 27.3972C92.8875 27.8403 91.3314 28.4394 89.9012 29.001M94.1548 27.3972C94.1391 27.3787 93.8019 27.4757 93.2899 27.6354M94.1548 27.3972C94.157 27.3997 94.153 27.4046 94.1422 27.4118C94.139 27.4139 94.1358 27.4161 94.1327 27.4182M89.9012 29.001C88.6827 29.4795 87.5556 29.9309 86.7766 30.2354M89.9012 29.001C89.9126 28.9946 89.924 28.9881 89.9351 28.9818M86.7766 30.2354C86.7745 30.2362 86.7724 30.237 86.7703 30.2378C86.4681 30.3559 86.5127 30.3382 86.8034 30.2234M86.7766 30.2354C86.7855 30.2314 86.7944 30.2274 86.8034 30.2234M86.8034 30.2234C87.2987 30.0277 88.5086 29.55 89.9351 28.9818M86.8034 30.2234C87.834 29.7618 88.9366 29.2275 89.6229 28.9187C90.7854 28.3956 90.7594 28.5135 89.9351 28.9818M89.9351 28.9818C91.0016 28.557 92.1892 28.0815 93.2899 27.6354M84.2151 31.1013C84.1801 31.1019 84.1464 31.1019 84.1139 31.1013M84.2151 31.1013C84.3458 30.9814 84.4618 30.8737 84.5531 30.7874M84.2151 31.1013C83.9574 31.3375 83.6423 31.621 83.3451 31.8822M84.1139 31.1013C83.6774 31.0929 83.467 30.9724 83.4369 30.7639M84.1139 31.1013C83.9084 31.2747 83.6704 31.477 83.4244 31.6867M84.1139 31.1013C84.28 30.9611 84.4248 30.8399 84.5353 30.7491M83.4369 30.7639C83.3227 29.9719 85.8089 27.9092 88.3795 25.8871M83.4369 30.7639C84.5731 29.4289 86.1846 27.7342 88.3795 25.8871M83.4369 30.7639C82.7368 31.5866 82.2173 32.2727 81.853 32.7737C81.4198 33.3696 81.1408 33.6216 81.9715 32.9228C82.1021 32.8128 82.2601 32.6789 82.4336 32.5313M88.3795 25.8871C88.8456 25.5205 89.3145 25.1552 89.7712 24.799M88.3795 25.8871C88.7334 25.5893 89.1024 25.2876 89.487 24.9827M89.7712 24.799C90.5034 24.2281 91.2041 23.6806 91.8116 23.1889M89.7712 24.799C89.6754 24.861 89.5806 24.9222 89.487 24.9827M89.7712 24.799C90.6128 24.2551 91.5352 23.6601 92.4257 23.0901M91.8116 23.1889C92.3116 22.7843 92.7484 22.4173 93.0876 22.1062M91.8116 23.1889C92.4634 22.7251 93.0893 22.2726 93.6378 21.8634M91.8116 23.1889C91.6253 23.3215 91.4369 23.4549 91.2476 23.5885M93.0876 22.1062C93.1582 22.0415 93.2245 21.9792 93.2863 21.9195C94.1435 21.0909 94.7985 20.3181 95.1991 20.1823C95.3425 20.1337 95.4441 20.1103 95.5082 20.1093M93.0876 22.1062C94.207 21.1959 95.0393 20.5029 95.5082 20.1093M93.0876 22.1062C92.54 22.5515 91.9237 23.0488 91.2476 23.5885M95.5082 20.1093C95.5113 20.1093 95.5144 20.1093 95.5173 20.1094M95.5082 20.1093C96.0161 19.6831 96.0977 19.6082 95.6557 19.9893C95.6097 20.029 95.5635 20.069 95.5173 20.1094M95.5173 20.1094C95.8634 20.1166 94.9835 20.8595 93.6378 21.8634M95.5173 20.1094C94.8987 20.6492 94.2682 21.242 93.6378 21.8634M93.6378 21.8634C93.2327 22.2627 92.8276 22.6738 92.4257 23.0901M91.2476 23.5885C89.5357 24.797 87.7492 26.019 86.7769 26.6996C86.0386 27.2165 87.4851 26.277 89.487 24.9827M91.2476 23.5885C90.745 23.9898 90.2093 24.4145 89.6442 24.8587C89.5915 24.9001 89.5392 24.9414 89.487 24.9827M92.4257 23.0901C94.4161 21.8161 96.2469 20.6674 96.6594 20.4951C97.7768 20.0284 94.9087 21.7617 91.2667 24.3123M92.4257 23.0901C92.0353 23.4945 91.648 23.9039 91.2667 24.3123M91.2667 24.3123C89.8142 25.3295 88.2386 26.4766 86.7437 27.6661C85.1652 28.9219 84.5113 30.2485 84.506 30.5214C84.5041 30.6172 84.5141 30.6927 84.5353 30.7491M91.2667 24.3123C87.8765 27.9427 84.9559 31.4959 84.5531 30.7874M84.5353 30.7491C84.5406 30.763 84.5465 30.7758 84.5531 30.7874M84.5353 30.7491C84.6735 30.6356 84.7583 30.5695 84.7642 30.5733C84.7704 30.5772 84.6891 30.6586 84.5531 30.7874M82.4336 32.5313C82.7371 32.2731 83.0882 31.9731 83.4244 31.6867M82.4336 32.5313C82.3255 32.6673 82.298 32.7335 82.436 32.6392C82.5924 32.5324 82.9531 32.2268 83.3451 31.8822M82.4336 32.5313C82.6581 32.2487 83.2305 31.6649 83.3905 31.593C83.4464 31.5678 83.45 31.6074 83.4244 31.6867M83.4244 31.6867C83.4079 31.7376 83.3795 31.805 83.3451 31.8822M173.251 17.9193C173.317 17.8536 173.383 17.7878 173.486 17.8136M173.486 17.8136C173.517 17.8213 173.551 17.8371 173.589 17.8633M173.486 17.8136C173.457 17.7196 173.424 17.6262 173.389 17.5338M173.486 17.8136C173.497 17.8496 173.508 17.8857 173.518 17.922M173.589 17.8633C173.594 17.8667 173.599 17.8703 173.604 17.8741C173.759 17.9883 173.889 18.1365 173.999 18.3123M173.589 17.8633C173.762 17.718 173.916 17.5766 174.046 17.4417M173.589 17.8633C173.566 17.8828 173.542 17.9024 173.518 17.922M173.999 18.3123C174.011 18.3314 174.023 18.3509 174.034 18.3707M173.999 18.3123C174.067 18.2875 174.134 18.2619 174.2 18.2354M173.999 18.3123C173.881 18.3552 173.76 18.3955 173.636 18.4333M174.034 18.3707C174.238 18.7211 174.367 19.1711 174.454 19.6738M174.034 18.3707C173.931 18.4407 173.805 18.5053 173.657 18.5594M174.034 18.3707C174.098 18.3273 174.154 18.2818 174.2 18.2354M174.454 19.6738C174.468 19.7496 174.48 19.8265 174.491 19.9044M174.454 19.6738C174.405 19.1648 174.336 18.6734 174.243 18.2182M174.454 19.6738C174.462 19.7498 174.469 19.8261 174.475 19.9028M174.491 19.9044C174.498 19.9521 174.505 20.0002 174.511 20.0486M174.491 19.9044C174.786 19.9355 175.091 19.97 175.405 20.0085M174.491 19.9044C174.486 19.9039 174.48 19.9033 174.475 19.9028M174.511 20.0486C174.673 21.2789 174.647 22.7352 174.847 23.815C174.954 24.3884 175.039 25.3062 175.083 26.1993M174.511 20.0486C174.814 20.0611 175.118 20.0505 175.405 20.0085M174.511 20.0486C174.503 20.0483 174.495 20.0479 174.487 20.0476M175.083 26.1993C175.103 26.621 175.115 27.0373 175.115 27.4091C175.115 28.1797 175.197 26.4433 175.335 24.9727M175.083 26.1993C175.179 25.7761 175.264 25.3556 175.335 24.9727M175.083 26.1993C174.975 26.6726 174.853 27.1493 174.72 27.5809C174.649 27.8082 174.46 27.0198 174.368 26.3621M175.335 24.9727C175.398 24.2966 175.473 23.6767 175.557 23.3824C175.617 23.1695 175.528 23.9324 175.335 24.9727ZM174.368 26.3621C174.336 26.1356 174.316 25.9245 174.316 25.7758C174.316 24.8691 174.216 25.5403 174.077 26.5255M174.368 26.3621C174.438 25.4277 174.683 22.5817 174.487 20.0476M174.368 26.3621C174.366 26.3883 174.364 26.4129 174.363 26.4361C174.321 27.0201 174.192 27.1643 174.009 27.012M174.077 26.5255C174.072 26.5648 174.066 26.6047 174.06 26.645M174.077 26.5255C174.085 26.396 174.077 26.1913 174.05 25.9009C173.992 25.2761 173.343 22.999 172.866 21.8802M174.077 26.5255C174.074 26.5771 174.068 26.6167 174.06 26.645M174.06 26.645C174.044 26.7644 174.026 26.8874 174.009 27.012M174.06 26.645C173.932 27.0971 173.196 24.6702 172.5 22.0068M174.009 27.012C173.869 28.0021 173.703 29.0927 173.564 29.2328C172.577 30.2283 171.786 28.3879 171.202 26.6806M174.009 27.012C173.622 26.6906 172.991 25.0476 172.414 23.433M171.202 26.6806C170.791 25.4805 170.483 24.3462 170.281 24.3089C169.425 24.1503 170.284 25.3688 171.202 26.6806ZM171.202 26.6806C171.771 27.4935 172.363 28.3423 172.584 28.9213C173.232 30.6147 172.613 26.5132 172.414 23.433M172.414 23.433C172.382 22.9291 172.36 22.4525 172.358 22.0331M172.414 23.433C172.241 22.9476 172.072 22.4647 171.917 22.0211M172.358 22.0331C172.357 21.8842 172.358 21.7425 172.362 21.6093C172.363 21.5685 172.365 21.5315 172.368 21.4981M172.358 22.0331C172.404 22.0265 172.452 22.0177 172.5 22.0068M172.358 22.0331C172.253 22.0478 172.152 22.0518 172.061 22.0446C172.012 22.0407 171.964 22.0328 171.917 22.0211M172.368 21.4981C172.409 21.0188 172.614 21.2863 172.866 21.8802M172.368 21.4981C172.412 21.6682 172.456 21.838 172.5 22.0068M172.368 21.4981C172.212 20.8877 172.059 20.2736 171.919 19.6872M172.866 21.8802C173.152 21.7446 173.396 21.5288 173.476 21.2393C173.586 20.8436 173.666 20.4118 173.702 19.9641M172.866 21.8802C172.748 21.9363 172.623 21.9787 172.5 22.0068M171.919 19.6872C171.873 19.4965 171.829 19.3088 171.786 19.1251M171.919 19.6872C172.196 19.7059 172.49 19.7267 172.8 19.7508M171.919 19.6872C171.558 19.6628 171.226 19.642 170.924 19.6223M171.786 19.1251C171.783 19.1117 171.78 19.0984 171.777 19.0851M171.786 19.1251C171.801 19.1162 171.815 19.1073 171.83 19.0984M171.786 19.1251C171.504 19.2966 171.214 19.4637 170.924 19.6223M171.777 19.0851C171.764 19.0324 171.752 18.9801 171.74 18.928M171.777 19.0851C171.787 19.078 171.798 19.0709 171.808 19.0637M171.777 19.0851C171.477 19.2901 171.172 19.4667 170.864 19.6184M171.74 18.928C171.739 18.9235 171.738 18.9189 171.737 18.9143M171.74 18.928C171.759 18.9742 171.781 19.0194 171.808 19.0637M171.74 18.928C171.739 18.9236 171.737 18.9191 171.735 18.9146M171.737 18.9143C171.73 18.8826 171.723 18.851 171.715 18.8196M171.737 18.9143L171.735 18.9146M171.737 18.9143C171.849 18.9009 171.961 18.8869 172.072 18.8721M171.715 18.8196C171.703 18.7678 171.692 18.7164 171.68 18.6655M171.715 18.8196C171.89 18.7985 172.062 18.7748 172.232 18.7481M171.715 18.8196C171.712 18.82 171.709 18.8204 171.705 18.8208M171.68 18.6655C171.627 18.4334 171.578 18.2098 171.531 17.9972M171.68 18.6655C171.684 18.718 171.692 18.7699 171.705 18.8208M171.68 18.6655C171.675 18.5838 171.681 18.5004 171.699 18.4159C171.823 17.8443 172.34 17.3657 173.085 16.9543M171.531 17.9972C171.461 17.6731 171.399 17.3745 171.348 17.1098M171.531 17.9972C171.79 17.7337 172.027 17.4392 172.234 17.1127C172.275 17.0482 172.311 16.9866 172.342 16.9277M171.531 17.9972C171.277 18.2566 171.003 18.486 170.716 18.6861M171.348 17.1098C171.31 16.918 171.279 16.744 171.253 16.5912M171.348 17.1098C171.699 17.0202 172.032 16.9577 172.342 16.9277M171.348 17.1098C171.23 17.1399 171.11 17.173 170.988 17.209M171.253 16.5912C171.25 16.571 171.247 16.5511 171.243 16.5317M171.253 16.5912C171.139 16.7183 171.046 16.8633 170.977 17.0299M171.253 16.5912C171.277 16.565 171.301 16.5395 171.327 16.5148M171.243 16.5317L171.243 16.5268M171.243 16.5317C171.117 16.5611 170.991 16.5908 170.866 16.6208M171.243 16.5317C171.262 16.5273 171.281 16.523 171.3 16.5186M171.243 16.5268C171.24 16.5114 171.238 16.4962 171.235 16.4813M171.243 16.5268C171.112 16.5455 170.979 16.5653 170.844 16.586M171.243 16.5268C171.262 16.524 171.281 16.5213 171.3 16.5186M171.235 16.4813C171.229 16.4384 171.223 16.3975 171.217 16.3587M171.235 16.4813C171.095 16.4984 170.952 16.5172 170.806 16.5376M171.235 16.4813C171.284 16.4753 171.333 16.4695 171.381 16.4639M171.217 16.3587C171.202 16.2536 171.192 16.1638 171.187 16.0912M171.217 16.3587C171.043 16.3831 170.87 16.419 170.703 16.4636M171.217 16.3587C171.33 16.3428 171.444 16.3318 171.555 16.3264M171.187 16.0912C171.177 15.9641 171.183 15.8896 171.207 15.8774C171.502 15.723 171.772 15.6309 172.019 15.5937M171.187 16.0912C169.848 16.3305 168.462 16.7043 167.266 17.2627M171.187 16.0912C171.579 16.021 171.968 15.9623 172.347 15.914M172.019 15.5937C172.39 15.5379 172.709 15.606 172.983 15.7734M172.019 15.5937C171.811 15.443 171.55 15.3467 171.247 15.4354C170.087 15.7748 168.215 16.5011 166.669 17.4403M172.019 15.5937C172.135 15.678 172.235 15.7792 172.315 15.8747C172.326 15.8876 172.337 15.9007 172.347 15.914M172.983 15.7734C173.014 15.7919 173.043 15.8116 173.072 15.8324M172.983 15.7734C172.825 15.8094 172.67 15.8485 172.521 15.8924M172.983 15.7734C173.169 15.7314 173.359 15.6937 173.552 15.6577C173.772 15.6865 173.985 15.7171 174.192 15.7493M173.072 15.8324C173.171 15.9027 173.263 15.9863 173.349 16.082M173.072 15.8324C172.892 15.85 172.708 15.87 172.521 15.8924M173.072 15.8324C173.464 15.7942 173.84 15.767 174.192 15.7493M173.349 16.082C173.408 16.1481 173.465 16.2199 173.519 16.2971M173.349 16.082C173.066 16.137 172.782 16.1945 172.499 16.2539M173.349 16.082C173.807 15.9928 174.264 15.91 174.712 15.8352M173.519 16.2971C173.593 16.4017 173.661 16.5161 173.725 16.6393M173.519 16.2971C173.248 16.3057 172.922 16.329 172.554 16.3654M173.519 16.2971C173.925 16.2842 174.205 16.3041 174.311 16.3619C174.325 16.3693 174.337 16.3771 174.35 16.3851M173.725 16.6393C173.824 16.8292 173.912 17.0401 173.99 17.2682M173.725 16.6393C173.672 16.663 173.619 16.6869 173.567 16.711M173.725 16.6393C173.924 16.5514 174.133 16.4668 174.35 16.3851M173.99 17.2682C174.009 17.325 174.028 17.3829 174.046 17.4417M173.99 17.2682C174.031 17.3017 174.071 17.3377 174.108 17.3763M173.99 17.2682C173.865 17.1677 173.722 17.0898 173.562 17.0325M174.046 17.4417C174.119 17.678 174.183 17.9306 174.238 18.1956M174.046 17.4417C174.067 17.4198 174.088 17.398 174.108 17.3763M174.238 18.1956C174.24 18.2031 174.241 18.2107 174.243 18.2182M174.238 18.1956C174.226 18.2089 174.214 18.2222 174.2 18.2354M174.238 18.1956C174.378 18.0383 174.42 17.8739 174.36 17.7463C174.293 17.6032 174.208 17.4804 174.108 17.3763M174.243 18.2182C175.036 17.8933 175.68 17.4371 176.093 16.8038C176.217 16.6139 176.278 16.3716 176.268 16.1665M174.243 18.2182C174.229 18.224 174.214 18.2297 174.2 18.2354M174.475 19.9028C174.479 19.9509 174.483 19.9992 174.487 20.0476M174.475 19.9028C174.213 19.8752 173.958 19.8503 173.712 19.8277M174.487 20.0476C174.221 20.0355 173.955 20.0058 173.702 19.9641M171.917 22.0211C171.533 20.927 171.228 20.0716 171.124 20.0053C171.085 19.9804 171.047 19.9994 171.005 20.0464M171.917 22.0211C171.732 21.9749 171.569 21.8704 171.423 21.7266M171.005 20.0464C170.931 20.1296 170.847 20.3009 170.73 20.4734M171.005 20.0464C170.956 19.916 170.905 19.7872 170.851 19.662M171.005 20.0464C171.223 20.632 171.383 21.2509 171.423 21.7266M170.73 20.4734C170.602 20.6636 170.433 20.8553 170.196 20.9317C169.986 20.9994 169.765 21.0316 169.536 21.0359M170.73 20.4734C170.787 20.6682 170.859 20.8554 170.948 21.0329C171.083 21.3009 171.239 21.545 171.423 21.7266M170.73 20.4734C170.667 20.2563 170.624 20.0298 170.598 19.797M169.536 21.0359C169.166 21.0428 168.776 20.9769 168.384 20.87M169.536 21.0359C169.751 21.7278 170.084 22.3206 170.596 22.6689C171.042 22.9724 171.481 22.7088 171.429 21.8077C171.427 21.7811 171.425 21.7541 171.423 21.7266M169.536 21.0359C169.469 20.8193 169.413 20.593 169.368 20.3614M168.384 20.87C168.376 20.8678 168.368 20.8656 168.36 20.8633M168.384 20.87C168.671 20.7399 168.952 20.5889 169.217 20.4141M168.384 20.87C168.371 20.8761 168.358 20.882 168.345 20.888M168.36 20.8633C168.202 20.8195 168.043 20.7691 167.885 20.7143M168.36 20.8633C168.411 20.7813 168.458 20.6977 168.5 20.6126M168.36 20.8633C168.355 20.8716 168.35 20.8798 168.345 20.888M167.885 20.7143C167.649 20.6321 167.414 20.54 167.185 20.4451M167.885 20.7143C168.085 20.6914 168.29 20.6581 168.5 20.6126M167.885 20.7143C167.522 20.7557 167.176 20.7627 166.847 20.7456M167.185 20.4451C167.09 20.4054 166.995 20.3653 166.902 20.3252M167.185 20.4451C167.641 20.4426 168.126 20.408 168.624 20.3266M167.185 20.4451C167.063 20.4457 166.943 20.4441 166.825 20.4404M166.902 20.3252C166.557 20.177 166.23 20.0291 165.934 19.9074M166.902 20.3252C166.933 20.277 166.964 20.229 166.993 20.1813M166.902 20.3252C166.877 20.3635 166.851 20.4019 166.825 20.4404M165.934 19.9074C165.81 19.8564 165.691 19.81 165.58 19.7702M165.934 19.9074C165.882 19.949 165.83 19.993 165.779 20.0392M165.934 19.9074C166.03 19.8299 166.127 19.7603 166.223 19.698M165.58 19.7702C165.55 19.7598 165.522 19.7498 165.493 19.7404C165.387 19.7048 165.396 19.738 165.493 19.8218M165.58 19.7702C165.663 19.7203 165.747 19.6705 165.832 19.6207M165.58 19.7702C165.551 19.7874 165.522 19.8046 165.493 19.8218M165.493 19.8218C165.555 19.8753 165.653 19.9493 165.779 20.0392M165.493 19.8218C165.351 19.9071 165.211 19.9922 165.073 20.077M165.779 20.0392C165.927 20.1444 166.114 20.2714 166.329 20.4127M165.779 20.0392C165.686 20.1226 165.595 20.2135 165.507 20.3126M166.329 20.4127C166.44 20.4855 166.559 20.5621 166.683 20.6415M166.329 20.4127C166.489 20.4256 166.655 20.4351 166.825 20.4404M166.329 20.4127C166.035 20.389 165.759 20.3539 165.507 20.3126M166.683 20.6415C166.737 20.6757 166.791 20.7104 166.847 20.7456M166.683 20.6415C166.732 20.5741 166.779 20.507 166.825 20.4404M166.683 20.6415C166.662 20.6708 166.64 20.7002 166.618 20.7296M166.847 20.7456C167.071 20.8874 167.312 21.0364 167.56 21.1871M166.847 20.7456C166.77 20.7415 166.693 20.7362 166.618 20.7296M167.56 21.1871C167.686 21.2635 167.815 21.3404 167.944 21.4171M167.56 21.1871C167.821 21.1031 168.085 21.0041 168.345 20.888M167.56 21.1871C166.973 21.3768 166.404 21.4897 165.944 21.5495M167.944 21.4171C168.607 21.8108 169.296 22.198 169.869 22.4839C170.142 22.6203 168.752 22.4506 168.249 22.4027C167.913 22.3707 167.115 23.2107 166.443 24.6186M167.944 21.4171C168.094 21.2476 168.229 21.0714 168.345 20.888M167.944 21.4171C167.554 21.857 167.065 22.2526 166.56 22.617C165.9 23.0924 165.146 23.3194 164.409 23.4149M166.443 24.6186C166.429 24.6479 166.415 24.6775 166.401 24.7073M166.443 24.6186C166.421 24.5732 166.397 24.5281 166.373 24.4833C166.367 24.4717 166.378 24.5569 166.401 24.7073M166.443 24.6186C167.264 26.2982 166.736 28.3901 166.765 29.0992M166.401 24.7073C166.295 24.9339 166.193 25.1746 166.097 25.4281M166.401 24.7073C166.536 25.6085 167.068 28.8492 166.552 27.6385M166.097 25.4281C166.057 25.5337 166.018 25.6415 165.98 25.7515M166.097 25.4281C166.126 25.5078 166.159 25.6084 166.198 25.7319C166.289 26.0273 166.43 26.8499 166.552 27.6385M166.097 25.4281C165.931 24.9671 165.92 25.205 165.98 25.7515M165.98 25.7515C165.978 25.7561 165.977 25.7606 165.975 25.7652C165.826 26.1999 165.962 26.6141 166.141 26.9535M165.98 25.7515C166.015 26.0722 166.074 26.4991 166.141 26.9535M166.141 26.9535C166.298 27.2501 166.488 27.4895 166.55 27.6354L166.552 27.6385M166.141 26.9535C166.319 28.1651 166.549 29.5715 166.508 29.6774C166.221 30.4104 165.799 27.9509 165.576 27.9456C165.228 27.9373 165.967 29.346 165.885 29.7573C165.806 30.1512 165.319 29.9262 164.847 29.4401M166.552 27.6385C166.641 28.218 166.721 28.7791 166.765 29.0992M166.765 29.0992C166.766 29.131 166.769 29.1601 166.773 29.1862C166.816 29.4864 166.806 29.3974 166.765 29.0992ZM164.847 29.4401C164.826 29.4186 164.805 29.3965 164.784 29.3739C164.638 29.2159 164.503 29.0527 164.379 28.8868M164.847 29.4401C164.945 29.3579 165.016 29.2419 165.045 29.0931C165.087 28.8722 165.124 28.6478 165.151 28.4264M164.847 29.4401C164.62 29.6297 164.251 29.6398 163.94 29.4578C163.871 29.4177 163.805 29.3762 163.741 29.3336M164.379 28.8868C164.325 28.8148 164.274 28.7423 164.224 28.6695M164.379 28.8868C164.459 28.7829 164.531 28.6657 164.591 28.5402M164.379 28.8868C164.214 29.1002 164.013 29.2579 163.807 29.318C163.785 29.3243 163.763 29.3295 163.741 29.3336M164.224 28.6695C164.204 28.6397 164.184 28.6099 164.164 28.58M164.224 28.6695C164.247 28.6652 164.27 28.66 164.293 28.6538C164.371 28.6327 164.442 28.5909 164.507 28.5322M164.224 28.6695C164.119 28.6892 164.016 28.6892 163.915 28.6726M164.164 28.58C164.133 28.5323 164.102 28.4845 164.073 28.4368M164.164 28.58C164.203 28.5554 164.239 28.5261 164.271 28.4914M164.164 28.58C164.089 28.6272 164.003 28.6567 163.915 28.6726M164.073 28.4368C164.018 28.3471 163.965 28.2574 163.916 28.1679M164.073 28.4368C164.134 28.4566 164.201 28.4754 164.271 28.4914M164.073 28.4368C163.395 28.215 162.723 27.0176 161.998 25.4125M163.916 28.1679C163.445 27.3125 163.253 26.4805 163.31 25.9995C163.335 25.7963 163.724 25.8504 164.107 25.9856M163.916 28.1679C163.765 28.1059 163.549 27.8067 163.35 27.3572C162.959 26.4707 162.624 25.5936 162.442 24.7748M163.916 28.1679C164.03 28.2148 164.107 28.1258 164.109 27.8631C164.114 27.267 164.103 26.6329 164.107 25.9856M164.107 25.9856C164.2 26.0181 164.291 26.0553 164.378 26.0947M164.107 25.9856C164.111 25.4265 164.125 24.8575 164.17 24.2946M164.378 26.0947C164.492 26.147 164.597 26.2032 164.68 26.2577C164.738 26.2956 164.79 26.3398 164.837 26.3897M164.378 26.0947C164.348 25.4963 164.29 24.8706 164.17 24.2946M164.378 26.0947C164.414 26.8258 164.408 27.5159 164.422 28.0241C164.427 28.2372 164.367 28.388 164.271 28.4914M164.837 26.3897C164.887 26.4427 164.931 26.502 164.97 26.567M164.837 26.3897C164.845 25.5025 164.755 24.4599 164.285 23.5152M164.837 26.3897C164.832 26.9418 164.789 27.4337 164.777 27.8045C164.772 27.9677 164.741 28.1315 164.691 28.2882M164.97 26.567C165.23 27.0055 165.241 27.7005 165.151 28.4264M164.97 26.567C165.016 25.6323 164.985 24.6273 164.566 23.7168M164.97 26.567C164.954 26.8708 164.931 27.1672 164.91 27.4504C164.887 27.7675 164.812 28.0659 164.691 28.2882M165.151 28.4264C165.206 28.3828 165.246 28.3255 165.267 28.2518C165.517 27.3664 165.987 25.3627 164.566 23.7168M165.151 28.4264C165.021 28.5302 164.81 28.5558 164.591 28.5402M163.741 29.3336C163.21 28.9794 162.832 28.5394 162.567 28.0604M163.741 29.3336C163.264 29.4207 162.681 28.9839 162.211 28.1799C161.143 26.3568 161.016 24.529 161.302 23.1406M162.567 28.0604C162.368 27.6996 162.233 27.3166 162.144 26.9317M162.567 28.0604C162.822 28.3577 163.128 28.5691 163.495 28.6578C163.619 28.6877 163.771 28.6983 163.915 28.6726M162.567 28.0604C162.142 27.5636 161.863 26.8273 161.694 26.0244M162.144 26.9317C162.024 26.4125 161.99 25.8898 161.998 25.4125M162.144 26.9317C162.561 27.6103 163.197 28.5552 163.915 28.6726M162.144 26.9317C162.135 26.9172 162.126 26.9029 162.118 26.8887C161.937 26.5942 161.799 26.3053 161.694 26.0244M161.998 25.4125C162.004 25.0564 162.034 24.7257 162.069 24.4408M161.998 25.4125C161.935 25.2739 161.872 25.1322 161.809 24.9878C161.622 24.5629 161.556 24.1598 161.573 23.8012M162.069 24.4408C162.116 24.0688 162.173 23.7749 162.201 23.6047C162.208 23.5631 162.218 23.5231 162.232 23.4847M162.069 24.4408C161.887 24.2564 161.714 24.044 161.573 23.8012M162.069 24.4408C162.192 24.5645 162.318 24.6756 162.442 24.7748M162.232 23.4847C162.248 23.4377 162.269 23.3933 162.294 23.3515M162.232 23.4847C162.241 23.6154 162.262 23.745 162.295 23.8736C162.299 23.8928 162.305 23.9121 162.31 23.9315M162.232 23.4847C162.226 23.4114 162.225 23.3378 162.227 23.264M162.294 23.3515C162.296 23.3474 162.298 23.3434 162.301 23.3393M162.294 23.3515C162.29 23.43 162.291 23.5054 162.295 23.578M162.294 23.3515C162.294 23.337 162.295 23.3223 162.296 23.3076M162.301 23.3393C162.305 23.3321 162.31 23.3249 162.315 23.3179M162.301 23.3393C162.302 23.33 162.302 23.3206 162.303 23.3113M162.301 23.3393C162.296 23.4179 162.294 23.4975 162.295 23.578M162.315 23.3179C162.458 23.1052 162.71 22.9695 162.996 22.9351C163.224 22.9077 163.495 22.9535 163.76 23.0721M162.315 23.3179C162.497 23.4146 162.73 23.4552 163.009 23.4663C163.303 23.4779 163.614 23.479 163.933 23.4596M162.315 23.3179C162.311 23.3157 162.307 23.3135 162.303 23.3113M163.76 23.0721C163.909 23.1389 164.056 23.2289 164.194 23.3419M163.76 23.0721C163.592 22.7539 163.381 22.4906 163.115 22.3094M163.76 23.0721C163.824 23.1938 163.881 23.3235 163.933 23.4596M164.194 23.3419C164.219 23.363 164.245 23.3849 164.27 23.4077M164.194 23.3419C164.056 23.0937 163.89 22.8536 163.69 22.6264M164.194 23.3419C164.211 23.3725 164.227 23.4033 164.244 23.4341M164.27 23.4077C164.277 23.4147 164.285 23.4217 164.293 23.4288M164.27 23.4077C164.269 23.4157 164.267 23.4237 164.266 23.4317M164.27 23.4077C164.278 23.351 164.287 23.2944 164.297 23.238M164.293 23.4288C164.297 23.4331 164.302 23.4373 164.306 23.4416M164.293 23.4288C164.298 23.4282 164.304 23.4275 164.31 23.4269M164.293 23.4288C164.284 23.4298 164.275 23.4308 164.266 23.4317M164.306 23.4416C164.313 23.448 164.319 23.4544 164.326 23.4609C164.411 23.5451 164.491 23.6305 164.566 23.7168M164.306 23.4416C164.307 23.4367 164.309 23.4318 164.31 23.4269M164.306 23.4416C164.299 23.4663 164.292 23.4908 164.285 23.5152M164.566 23.7168C164.546 23.6743 164.526 23.6321 164.504 23.5901C164.474 23.5307 164.442 23.4722 164.409 23.4149M164.591 28.5402C164.563 28.5382 164.535 28.5355 164.507 28.5322M164.591 28.5402C164.63 28.4593 164.663 28.3748 164.691 28.2882M164.507 28.5322C164.427 28.5229 164.347 28.5087 164.271 28.4914M164.507 28.5322C164.577 28.4689 164.638 28.3859 164.691 28.2882M161.573 23.8012C161.579 23.6722 161.596 23.5491 161.622 23.4327M161.573 23.8012C161.542 23.7485 161.513 23.6943 161.486 23.6387M161.622 23.4327C161.662 23.2511 161.724 23.0861 161.801 22.9418C161.833 22.8819 161.868 22.8255 161.908 22.7727M161.622 23.4327C161.566 23.5199 161.52 23.5896 161.486 23.6387M161.622 23.4327C161.709 23.2954 161.82 23.1147 161.949 22.903M161.908 22.7727C161.99 22.6612 162.089 22.5662 162.197 22.4901M161.908 22.7727C161.919 22.8187 161.933 22.8622 161.949 22.903M161.908 22.7727C161.889 22.6969 161.878 22.6142 161.876 22.5254M162.197 22.4901C162.263 22.4444 162.332 22.4055 162.405 22.3742M162.197 22.4901C162.109 22.6372 162.026 22.7757 161.949 22.903M162.197 22.4901C162.28 22.3525 162.366 22.2074 162.456 22.057M162.405 22.3742C162.446 22.3565 162.487 22.3412 162.53 22.3284M162.405 22.3742C162.296 22.674 162.234 22.9711 162.227 23.264M162.405 22.3742C162.442 22.2729 162.484 22.1713 162.531 22.0695M162.53 22.3284C162.532 22.3277 162.534 22.3271 162.536 22.3265M162.53 22.3284C162.541 22.3037 162.552 22.2792 162.563 22.2549C162.571 22.2381 162.579 22.2213 162.588 22.2045M162.53 22.3284C162.449 22.5143 162.39 22.71 162.352 22.9142M162.536 22.3265C162.719 22.2726 162.916 22.2641 163.115 22.3094M162.536 22.3265C162.451 22.5371 162.391 22.7326 162.352 22.9142M162.536 22.3265C162.542 22.312 162.548 22.2975 162.554 22.2829C162.565 22.257 162.576 22.2308 162.588 22.2045M163.115 22.3094C163.119 22.3103 163.123 22.3112 163.127 22.3122C163.258 22.3435 163.389 22.3989 163.516 22.4738M163.115 22.3094C162.973 22.2132 162.816 22.1402 162.641 22.0943M163.516 22.4738C163.543 22.4899 163.57 22.5069 163.597 22.5248M163.516 22.4738C163.569 22.5322 163.628 22.583 163.69 22.6264M163.516 22.4738C163.478 22.4321 163.442 22.3866 163.409 22.3373M163.597 22.5248C163.683 22.5811 163.766 22.6459 163.846 22.7179M163.597 22.5248C163.538 22.4611 163.475 22.3986 163.409 22.3373M163.597 22.5248C163.629 22.5583 163.66 22.5922 163.69 22.6264M163.846 22.7179C164.011 22.8653 164.164 23.0427 164.297 23.238M163.846 22.7179C163.877 22.7325 163.908 22.7455 163.939 22.7568C164.077 22.8074 164.221 22.832 164.377 22.8113M163.846 22.7179C163.793 22.6924 163.74 22.6619 163.69 22.6264M164.297 23.238C164.312 23.2607 164.327 23.2837 164.342 23.3068M164.297 23.238C164.32 23.0946 164.347 22.9523 164.377 22.8113M164.342 23.3068C164.365 23.3424 164.387 23.3784 164.409 23.4149M164.342 23.3068C164.384 23.1426 164.421 22.9725 164.451 22.7983M164.342 23.3068C164.332 23.3472 164.321 23.3872 164.31 23.4269M164.409 23.4149C164.376 23.4191 164.343 23.4231 164.31 23.4269M161.694 26.0244C161.33 25.0543 161.361 24.1796 161.423 23.5029M161.694 26.0244C161.529 25.2443 161.467 24.4013 161.474 23.6543M161.423 23.5029C161.45 23.2184 161.481 22.9689 161.492 22.7621C161.496 22.6866 161.514 22.614 161.543 22.5459M161.423 23.5029C161.375 23.388 161.334 23.2673 161.302 23.1406M161.423 23.5029C161.435 23.5311 161.448 23.559 161.461 23.5865M161.543 22.5459C161.614 22.3789 161.752 22.239 161.916 22.1497M161.543 22.5459C161.506 22.8428 161.483 23.1849 161.476 23.5526M161.543 22.5459C161.555 22.4462 161.568 22.3517 161.583 22.263M161.916 22.1497C161.999 22.1046 162.088 22.0724 162.178 22.0562M161.916 22.1497C161.885 22.284 161.873 22.4099 161.876 22.5254M161.916 22.1497C161.948 22.0113 162.001 21.8638 162.078 21.7094M162.178 22.0562C162.244 22.0444 162.31 22.041 162.374 22.0473C162.402 22.0499 162.429 22.0531 162.456 22.057M162.178 22.0562C162.229 22.0004 162.283 21.9497 162.341 21.9062C162.396 21.8653 162.453 21.8229 162.513 21.779M162.178 22.0562C162.056 22.192 161.956 22.3583 161.876 22.5254M162.456 22.057C162.481 22.0606 162.506 22.0648 162.531 22.0695M162.456 22.057C162.504 21.976 162.553 21.8935 162.602 21.8099M162.531 22.0695C162.567 22.0763 162.603 22.0843 162.638 22.0934M162.531 22.0695C162.568 21.9894 162.608 21.9093 162.651 21.829M162.638 22.0934L162.641 22.0943M162.638 22.0934C162.62 22.1308 162.604 22.1678 162.588 22.2045M162.638 22.0934C162.672 22.0202 162.708 21.9458 162.747 21.8703M162.641 22.0943C162.678 22.0202 162.715 21.9465 162.753 21.8732M162.641 22.0943C162.623 22.131 162.605 22.1677 162.588 22.2045M163.933 23.4596C164.002 23.6404 164.06 23.8326 164.11 24.0327M163.933 23.4596C164.036 23.4534 164.139 23.445 164.244 23.4341M164.11 24.0327C164.132 24.1187 164.151 24.2061 164.17 24.2946M164.11 24.0327C164.152 23.9237 164.193 23.8097 164.231 23.6915M164.11 24.0327C164.055 24.1756 163.997 24.3099 163.937 24.434C163.695 24.9394 163.406 25.278 163.095 25.1515C163.079 25.145 163.063 25.1372 163.046 25.1283M164.17 24.2946C164.186 24.0925 164.206 23.8912 164.231 23.6915M161.474 23.6543C161.475 23.6418 161.475 23.6293 161.475 23.6168M161.474 23.6543C161.4 23.7573 161.388 23.7478 161.461 23.5865M161.474 23.6543C161.478 23.6493 161.482 23.6441 161.486 23.6387M161.475 23.6168C161.475 23.5953 161.476 23.5739 161.476 23.5526M161.475 23.6168C161.47 23.6068 161.465 23.5967 161.461 23.5865M161.475 23.6168C161.478 23.6241 161.482 23.6314 161.486 23.6387M161.476 23.5526C161.503 23.4941 161.538 23.4196 161.584 23.3278C161.614 23.2669 161.698 22.894 161.876 22.5254M161.476 23.5526C161.47 23.5645 161.465 23.5759 161.461 23.5865M161.583 22.263C161.595 22.1901 161.609 22.1212 161.622 22.0566C161.652 21.9157 161.727 21.8231 161.83 21.7692M161.583 22.263C161.485 22.4828 161.406 22.698 161.356 22.9005C161.337 22.979 161.318 23.0591 161.302 23.1406M161.583 22.263C161.656 22.0998 161.739 21.9341 161.83 21.7692M161.83 21.7692C161.901 21.7319 161.985 21.713 162.078 21.7094M161.83 21.7692C162.173 21.1414 162.615 20.5256 162.948 20.1064C163.166 19.8314 163.354 19.6536 163.518 19.5745M162.078 21.7094C162.211 21.7043 162.362 21.7307 162.513 21.779M162.078 21.7094C162.144 21.5782 162.227 21.4419 162.331 21.3018C162.765 20.7146 163.227 20.1926 163.701 19.7297M162.513 21.779C162.543 21.7885 162.573 21.7988 162.602 21.8099M162.513 21.779C162.573 21.7352 162.636 21.69 162.701 21.6434M162.602 21.8099C162.619 21.816 162.635 21.8224 162.651 21.829M162.602 21.8099C162.635 21.7549 162.668 21.6993 162.701 21.6434M162.651 21.829C162.683 21.8419 162.715 21.8557 162.747 21.8703M162.651 21.829C162.697 21.7441 162.746 21.6591 162.798 21.574M162.747 21.8703C162.749 21.8713 162.751 21.8722 162.753 21.8732M162.747 21.8703C162.818 21.7316 162.896 21.5895 162.979 21.4463M162.753 21.8732C162.906 21.9444 163.051 22.0334 163.17 22.1298C163.254 22.1972 163.334 22.2664 163.409 22.3373M162.753 21.8732C162.829 21.727 162.907 21.5827 162.986 21.4413M163.409 22.3373C163.299 22.1691 163.227 21.9563 163.225 21.6985C163.224 21.5451 163.243 21.391 163.282 21.2367M164.244 23.4341C164.249 23.4453 164.255 23.4564 164.261 23.4676M164.244 23.4341C164.251 23.4334 164.259 23.4326 164.266 23.4317M164.261 23.4676C164.269 23.4834 164.277 23.4993 164.285 23.5152M164.261 23.4676C164.25 23.542 164.24 23.6166 164.231 23.6915M164.261 23.4676C164.263 23.4556 164.264 23.4437 164.266 23.4317M164.285 23.5152C164.268 23.5749 164.25 23.6337 164.231 23.6915M161.302 23.1406C161.243 22.9089 161.216 22.6571 161.231 22.384C161.287 21.3537 162.078 20.0359 162.926 19.1959C163.591 18.5363 164.415 18.1684 164.688 18.1167M163.518 19.5745C163.647 19.5119 163.762 19.5111 163.865 19.5727M163.518 19.5745C163.567 19.6263 163.628 19.6781 163.701 19.7297M163.518 19.5745C163.046 19.08 163.61 18.5762 164.688 18.1167M163.865 19.5727C163.878 19.5806 163.891 19.5894 163.904 19.5993M163.865 19.5727C163.81 19.6243 163.756 19.6766 163.701 19.7297M163.865 19.5727C163.905 19.5349 163.946 19.4975 163.986 19.4605M163.904 19.5993C163.955 19.6389 164.004 19.6948 164.05 19.767M163.904 19.5993C163.867 19.6618 163.83 19.7254 163.792 19.7899M163.904 19.5993C163.932 19.5524 163.959 19.5061 163.986 19.4605M164.05 19.767C164.055 19.7761 164.061 19.7855 164.067 19.7952M164.05 19.767C164.337 19.3603 164.556 19.0836 164.619 19.0098M164.05 19.767C164.022 19.8061 163.993 19.8465 163.965 19.888M164.067 19.7952C164.076 19.8108 164.085 19.827 164.094 19.844M164.067 19.7952C164.042 19.8301 164.017 19.8657 163.991 19.9017M164.067 19.7952C164.301 19.4661 164.502 19.1912 164.622 19.014M164.094 19.844C164.098 19.8515 164.102 19.8591 164.106 19.8668C164.118 19.8901 164.13 19.9134 164.141 19.9369M164.094 19.844C164.072 19.8693 164.05 19.8947 164.028 19.9201M164.094 19.844C164.15 19.7815 164.207 19.7193 164.267 19.6575M164.141 19.9369C164.142 19.9395 164.144 19.942 164.145 19.9446M164.141 19.9369C164.133 19.9445 164.126 19.9521 164.118 19.9597M164.141 19.9369C164.144 19.9336 164.148 19.9304 164.151 19.9271M164.145 19.9446C164.15 19.9551 164.155 19.9655 164.16 19.976M164.145 19.9446C164.142 19.9522 164.14 19.9597 164.137 19.9673M164.145 19.9446C164.147 19.9388 164.149 19.933 164.151 19.9271M164.16 19.976C164.243 20.1535 164.311 20.3356 164.365 20.5207M164.16 19.976C164.319 20.0369 164.569 20.1151 164.889 20.1903M164.16 19.976C164.152 19.9731 164.145 19.9702 164.137 19.9673M164.365 20.5207C164.458 20.8398 164.511 21.1674 164.53 21.4945M164.365 20.5207C164.535 20.412 164.71 20.3016 164.889 20.1903M164.365 20.5207C164.26 20.5878 164.157 20.6542 164.057 20.7198M164.53 21.4945C164.545 21.7428 164.541 21.9907 164.522 22.2343M164.53 21.4945C164.599 21.5243 164.675 21.5469 164.756 21.5637M164.53 21.4945C164.359 21.4205 164.23 21.3021 164.158 21.1181C164.106 20.985 164.073 20.8522 164.057 20.7198M164.522 22.2343C164.507 22.4257 164.483 22.6143 164.451 22.7983M164.522 22.2343C164.467 22.4235 164.419 22.6161 164.377 22.8113M164.522 22.2343C164.589 22.0053 164.666 21.7813 164.756 21.5637M164.451 22.7983C164.678 22.7483 164.931 22.6014 165.23 22.3028C165.48 22.0528 165.719 21.8006 165.944 21.5495M164.451 22.7983C164.426 22.8038 164.402 22.8081 164.377 22.8113M163.046 25.1283C162.759 24.9684 162.449 24.4257 162.31 23.9315M163.046 25.1283C163.197 25.2864 163.307 25.3702 163.31 25.3725C163.173 25.2697 162.82 25.0774 162.442 24.7748M163.046 25.1283C162.929 25.0048 162.786 24.8361 162.651 24.6257C162.478 24.3559 162.32 24.0199 162.295 23.578M162.31 23.9315C162.3 23.8118 162.295 23.6939 162.295 23.578M162.31 23.9315C162.332 24.2039 162.378 24.4857 162.442 24.7748M162.227 23.264C162.249 23.2796 162.272 23.2941 162.296 23.3076M162.227 23.264C162.127 23.1938 162.046 23.1017 161.984 22.9817C161.972 22.9568 161.96 22.9305 161.949 22.903M162.798 21.574C162.968 21.2961 163.172 21.0172 163.403 20.7385M162.798 21.574C162.856 21.5324 162.917 21.4898 162.979 21.4463M162.798 21.574C162.765 21.5975 162.732 21.6206 162.701 21.6434M163.403 20.7385C163.426 20.7103 163.45 20.6821 163.474 20.654M163.403 20.7385C163.6 20.4236 163.792 20.1356 163.965 19.888M163.403 20.7385C163.3 20.9039 163.195 21.0766 163.092 21.2548M163.474 20.654C163.512 20.6094 163.551 20.5647 163.59 20.5201M163.474 20.654C163.343 20.851 163.214 21.0532 163.092 21.2548M163.474 20.654C163.649 20.3894 163.827 20.134 163.991 19.9017M163.59 20.5201C163.755 20.333 163.931 20.146 164.118 19.9597M163.59 20.5201C163.447 20.7578 163.342 20.9974 163.282 21.2367M163.59 20.5201C163.711 20.3183 163.859 20.1178 164.028 19.9201M164.118 19.9597C164.124 19.9622 164.131 19.9647 164.137 19.9673M164.118 19.9597C164.082 19.9452 164.052 19.9319 164.028 19.9201M164.151 19.9271C164.36 19.7203 164.58 19.5143 164.811 19.3096M164.151 19.9271C164.183 19.8367 164.222 19.7468 164.267 19.6575M164.811 19.3096C164.836 19.2869 164.862 19.2642 164.888 19.2415M164.811 19.3096C164.8 19.3935 164.803 19.4792 164.824 19.5673C164.861 19.7262 164.947 19.9082 165.073 20.077M164.811 19.3096C164.816 19.2742 164.823 19.2391 164.833 19.2043M164.888 19.2415C165.104 19.0521 165.327 18.864 165.557 18.6774M164.888 19.2415C165.129 19.3984 165.45 19.5285 165.832 19.6207M164.888 19.2415C164.869 19.2293 164.851 19.2169 164.833 19.2043M165.557 18.6774C165.874 18.4202 166.202 18.1661 166.537 17.9161M165.557 18.6774C165.662 18.7924 165.993 18.8707 166.602 18.8991C166.759 18.9064 166.916 18.9133 167.075 18.9198M165.557 18.6774C165.531 18.649 165.519 18.6183 165.52 18.5856M166.537 17.9161C166.553 17.9039 166.57 17.8916 166.586 17.8794L166.589 17.8773M166.537 17.9161C166.525 17.9211 166.513 17.9261 166.501 17.931M166.537 17.9161C166.647 17.8708 166.765 17.8246 166.89 17.7777M166.589 17.8773C166.623 17.8522 166.657 17.8321 166.69 17.8167M166.589 17.8773C166.56 17.8951 166.53 17.913 166.501 17.931M166.589 17.8773C166.623 17.857 166.656 17.8368 166.69 17.8167M166.69 17.8167C166.759 17.7843 166.826 17.7727 166.89 17.7777M166.69 17.8167C166.728 17.794 166.766 17.7714 166.805 17.749C167.208 17.5126 167.533 17.4269 167.796 17.4647M166.89 17.7777C167.189 17.8015 167.411 18.1963 167.481 18.5343C167.491 18.5859 167.498 18.6389 167.502 18.6933M166.89 17.7777C167.161 17.676 167.465 17.5711 167.796 17.4647M167.502 18.6933C167.506 18.7713 167.504 18.8521 167.494 18.9354M167.502 18.6933C167.847 18.5128 168.196 18.3388 168.542 18.175M167.502 18.6933C167.359 18.7678 167.217 18.8433 167.075 18.9198M167.494 18.9354L167.494 18.9411M167.494 18.9354L167.5 18.9356M167.494 18.9354C167.354 18.9307 167.214 18.9254 167.075 18.9198M167.494 18.9411C167.481 19.0471 167.458 19.1571 167.424 19.2706M167.494 18.9411C167.355 19.0578 167.231 19.1768 167.129 19.2922M167.494 18.9411C167.496 18.9393 167.498 18.9375 167.5 18.9356M167.424 19.2706C167.376 19.4313 167.308 19.5989 167.222 19.7721M167.424 19.2706C167.336 19.2638 167.238 19.27 167.129 19.2922M167.424 19.2706C167.685 19.291 167.848 19.4269 167.88 19.6019C167.888 19.6471 167.888 19.6947 167.879 19.7429M167.222 19.7721C167.156 19.9055 167.079 20.0421 166.993 20.1813M167.222 19.7721C167.434 19.772 167.653 19.7625 167.879 19.7429M167.222 19.7721C167.096 19.7722 166.972 19.769 166.852 19.7627M166.993 20.1813C167.093 20.2568 167.227 20.289 167.354 20.2688C167.613 20.2279 167.838 19.9787 167.879 19.7429M166.993 20.1813C166.879 20.0945 166.811 19.9503 166.852 19.7627M166.618 20.7296C166.417 20.9985 166.19 21.2733 165.944 21.5495M166.618 20.7296C166.366 20.7077 166.125 20.6723 165.894 20.6282C165.718 20.5946 165.557 20.5187 165.417 20.4179M165.944 21.5495C165.576 21.5972 165.278 21.6109 165.094 21.6026C164.974 21.5972 164.86 21.5852 164.756 21.5637M163.282 21.2367C163.521 21.0728 163.781 20.8994 164.057 20.7198M163.282 21.2367C163.18 21.3067 163.081 21.375 162.986 21.4413M164.028 19.9201L164.025 19.9187C164.014 19.9131 164.002 19.9074 163.991 19.9017M164.267 19.6575C164.426 19.4917 164.6 19.3285 164.784 19.1685M164.267 19.6575C164.369 19.4559 164.503 19.2571 164.664 19.062M164.784 19.1685C164.814 19.1427 164.844 19.1169 164.874 19.0912M164.784 19.1685C164.8 19.1806 164.816 19.1925 164.833 19.2043M164.784 19.1685L164.78 19.1653C164.735 19.131 164.696 19.0966 164.664 19.062M164.874 19.0912C165.079 18.9182 165.295 18.7493 165.52 18.5856M164.874 19.0912C164.858 19.1286 164.844 19.1663 164.833 19.2043M164.874 19.0912C164.97 18.8742 165.158 18.6666 165.392 18.4571C165.729 18.1562 166.113 17.886 166.532 17.6439M165.52 18.5856C165.835 18.3562 166.165 18.137 166.501 17.931M165.52 18.5856C165.524 18.4139 165.889 18.1861 166.501 17.931M167.796 17.4647C168.009 17.4952 168.181 17.6058 168.321 17.7822C168.405 17.8881 168.479 18.0223 168.542 18.175M167.796 17.4647C168.358 17.2844 168.997 17.0996 169.683 16.9185M168.542 18.175C168.551 18.1971 168.56 18.2196 168.568 18.2425M168.542 18.175C168.752 18.0754 168.962 17.9796 169.171 17.8883M168.568 18.2425C168.65 18.4588 168.709 18.707 168.743 18.9618M168.568 18.2425C168.21 18.4134 167.819 18.6682 167.5 18.9356M168.568 18.2425C168.573 18.2404 168.577 18.2383 168.582 18.2362C168.79 18.1379 168.984 18.0701 169.169 18.0456M168.743 18.9618C168.771 19.1707 168.781 19.384 168.772 19.5876M168.743 18.9618C168.894 18.9628 169.046 18.9628 169.197 18.9618M168.743 18.9618C168.327 18.9591 167.911 18.9495 167.5 18.9356M168.772 19.5876C168.771 19.6049 168.77 19.6221 168.769 19.6392C168.755 19.8788 168.704 20.1076 168.624 20.3266M168.772 19.5876C168.924 19.5477 169.078 19.5007 169.233 19.4465M168.772 19.5876C168.485 19.6629 168.204 19.7127 167.937 19.7377C167.918 19.7395 167.899 19.7413 167.879 19.7429M168.624 20.3266C168.588 20.4239 168.547 20.5192 168.5 20.6126M168.624 20.3266C168.858 20.2884 169.095 20.2398 169.334 20.1793M168.5 20.6126C168.733 20.5622 168.972 20.4968 169.217 20.4141M162.303 23.3113C162.3 23.3101 162.298 23.3088 162.296 23.3076M162.303 23.3113C162.311 23.1757 162.328 23.0433 162.352 22.9142M162.296 23.3076C162.304 23.1841 162.322 23.0532 162.352 22.9142M163.701 19.7297C163.73 19.7498 163.76 19.7698 163.792 19.7899M163.986 19.4605C164.182 19.2806 164.38 19.1103 164.578 18.9493M163.986 19.4605C164.359 18.8272 164.657 18.3253 164.775 18.1456C164.796 18.112 164.763 18.1026 164.688 18.1167M164.578 18.9493C164.848 18.7309 165.118 18.5296 165.388 18.3443M164.578 18.9493C164.59 18.9695 164.604 18.9896 164.619 19.0098M164.578 18.9493C164.301 18.4666 165.121 17.9672 166.376 17.5372M165.388 18.3443C165.774 18.0792 166.157 17.8467 166.532 17.6439M165.388 18.3443C165.112 18.5764 164.866 18.8162 164.664 19.062M165.388 18.3443C165.754 18.0367 166.175 17.7428 166.625 17.467M166.532 17.6439C166.745 17.5282 166.956 17.4222 167.162 17.3252M166.532 17.6439C166.716 17.5373 166.907 17.4361 167.104 17.3402M167.162 17.3252C167.224 17.2961 167.286 17.2677 167.347 17.2402M167.162 17.3252C167.143 17.3302 167.123 17.3352 167.104 17.3402M167.162 17.3252C168.08 17.0924 169.066 16.888 170.006 16.7238M167.347 17.2402C168.981 16.5052 170.314 16.3419 170.673 16.4524C170.683 16.4556 170.693 16.4593 170.703 16.4636M167.347 17.2402C167.32 17.2476 167.293 17.2551 167.266 17.2627M167.347 17.2402C168.25 16.9921 169.264 16.78 170.22 16.6258M170.703 16.4636C170.742 16.4804 170.776 16.5055 170.806 16.5376M170.703 16.4636C170.532 16.5094 170.368 16.5645 170.22 16.6258M170.806 16.5376C170.82 16.5523 170.832 16.5685 170.844 16.586M170.806 16.5376C170.614 16.5644 170.418 16.5939 170.22 16.6258M170.844 16.586C170.852 16.5971 170.859 16.6087 170.866 16.6208M170.844 16.586C170.572 16.628 170.291 16.6741 170.006 16.7238M170.866 16.6208C170.926 16.7254 170.961 16.868 170.977 17.0299M170.866 16.6208C170.461 16.718 170.065 16.8177 169.683 16.9185M170.977 17.0299C170.983 17.0874 170.987 17.1474 170.988 17.209M170.977 17.0299C170.964 17.0624 170.952 17.0958 170.94 17.13C170.929 17.1644 170.918 17.1989 170.907 17.2334M170.988 17.209C170.995 17.4951 170.957 17.8158 170.9 18.0871C170.856 18.2986 170.794 18.4981 170.716 18.6861M170.988 17.209C170.961 17.217 170.934 17.2251 170.907 17.2334M170.716 18.6861C170.684 18.7652 170.648 18.8423 170.61 18.9174M170.716 18.6861C170.675 18.715 170.634 18.7432 170.592 18.7709M170.61 18.9174C170.599 18.9385 170.588 18.9595 170.577 18.9803M170.61 18.9174C170.982 18.8951 171.348 18.8636 171.705 18.8208M170.61 18.9174C170.6 18.918 170.591 18.9186 170.581 18.9191M170.577 18.9803C170.567 18.999 170.557 19.0177 170.547 19.0362M170.577 18.9803C170.576 18.9998 170.575 19.0192 170.575 19.0387M170.577 18.9803C170.578 18.9599 170.58 18.9395 170.581 18.9191M170.547 19.0362C170.546 19.038 170.545 19.0399 170.544 19.0418M170.547 19.0362C170.526 18.9981 170.504 18.9609 170.483 18.9247M170.547 19.0362L170.55 19.0412M170.544 19.0418C170.438 19.2304 170.315 19.4059 170.179 19.5692M170.544 19.0418C170.37 19.0591 170.203 19.0757 170.048 19.092M170.544 19.0418L170.55 19.0412M170.179 19.5692C170.021 19.7595 169.844 19.9331 169.654 20.0914M170.179 19.5692C170.305 19.5794 170.439 19.5893 170.581 19.5992M170.179 19.5692C169.772 19.536 169.455 19.4993 169.236 19.4472M169.654 20.0914C169.559 20.1704 169.46 20.2457 169.359 20.3172M169.654 20.0914C169.966 19.9985 170.28 19.8843 170.593 19.7454M169.654 20.0914C169.547 20.1231 169.44 20.1524 169.334 20.1793M169.359 20.3172C169.312 20.3503 169.265 20.3826 169.217 20.4141M169.359 20.3172C169.362 20.332 169.365 20.3467 169.368 20.3614M169.359 20.3172C169.35 20.2714 169.342 20.2254 169.334 20.1793M169.217 20.4141C169.267 20.3973 169.317 20.3797 169.368 20.3614M164.756 21.5637C164.85 21.3372 164.956 21.1176 165.078 20.9065C165.182 20.7267 165.296 20.5642 165.417 20.4179M164.057 20.7198C164.025 20.4667 164.055 20.2153 164.137 19.9673M164.664 19.062C164.649 19.0461 164.635 19.0301 164.622 19.014M166.625 17.467C166.64 17.4581 166.655 17.4492 166.669 17.4403M166.625 17.467C166.541 17.4902 166.458 17.5135 166.376 17.5372M166.625 17.467C166.782 17.4239 166.942 17.3816 167.104 17.3402M166.669 17.4403C166.569 17.4721 166.471 17.5044 166.376 17.5372M166.669 17.4403C166.861 17.3794 167.06 17.3201 167.266 17.2627M172.347 15.914C172.354 15.9227 172.36 15.9315 172.367 15.9405M172.347 15.914C172.405 15.9066 172.463 15.8994 172.521 15.8924M172.367 15.9405C172.432 16.0322 172.48 16.1345 172.499 16.2539M172.367 15.9405C172.062 16.0404 171.786 16.164 171.555 16.3264M172.367 15.9405C172.418 15.9238 172.469 15.9078 172.521 15.8924M172.499 16.2539C172.504 16.2902 172.507 16.328 172.507 16.3676M172.499 16.2539C172.354 16.2843 172.209 16.3152 172.065 16.3466M172.507 16.3676L172.507 16.3701M172.507 16.3676C172.424 16.3716 172.338 16.3766 172.249 16.3826M172.507 16.3676C172.523 16.3668 172.538 16.3661 172.554 16.3654M172.507 16.3701C172.507 16.4021 172.504 16.4353 172.5 16.4697M172.507 16.3701C172.436 16.3773 172.363 16.385 172.289 16.3932M172.507 16.3701C172.523 16.3685 172.538 16.367 172.554 16.3654M172.5 16.4697C172.483 16.6022 172.434 16.7531 172.342 16.9277M172.5 16.4697C172.434 16.4397 172.363 16.4141 172.289 16.3932M172.5 16.4697C172.73 16.5733 172.913 16.7292 173.061 16.9233M172.342 16.9277C172.599 16.9028 172.84 16.9003 173.061 16.9233M170.592 18.7709C170.544 18.8029 170.495 18.8341 170.446 18.8645M170.592 18.7709C170.588 18.8204 170.584 18.8698 170.581 18.9191M170.592 18.7709C170.636 18.2584 170.747 17.7367 170.907 17.2334M170.446 18.8645C170.409 18.8875 170.372 18.9101 170.335 18.9322M170.446 18.8645C170.403 18.7938 170.359 18.7275 170.315 18.6661C169.946 18.1509 169.58 17.9912 169.169 18.0456M170.446 18.8645C170.458 18.8842 170.47 18.9043 170.483 18.9247M170.335 18.9322C170.24 18.9884 170.144 19.0417 170.048 19.092M170.335 18.9322C170.384 18.9298 170.433 18.9273 170.483 18.9247M170.335 18.9322C169.959 18.9501 169.579 18.9593 169.197 18.9618M170.048 19.092C169.779 19.2326 169.506 19.3502 169.235 19.4455M170.048 19.092C169.701 19.1284 169.409 19.1632 169.214 19.2015M169.235 19.4455L169.233 19.4465M169.235 19.4455L169.236 19.4472M169.235 19.4455C169.227 19.3641 169.22 19.2827 169.214 19.2015M169.233 19.4465L169.236 19.4472M169.233 19.4465C169.157 19.4284 169.093 19.4085 169.041 19.3863C168.863 19.3103 168.952 19.2528 169.214 19.2015M166.852 19.7627C166.631 19.7512 166.421 19.7292 166.223 19.698M166.852 19.7627C166.862 19.715 166.88 19.6644 166.906 19.6112C166.954 19.5118 167.031 19.4036 167.129 19.2922M166.223 19.698C166.087 19.6765 165.956 19.6506 165.832 19.6207M166.223 19.698C166.481 19.5302 166.731 19.4155 166.942 19.3437C167.007 19.3214 167.07 19.3043 167.129 19.2922M165.832 19.6207C166.236 19.3838 166.653 19.1479 167.075 18.9198M164.622 19.014L164.619 19.0098M164.622 19.014C164.626 19.0085 164.63 19.003 164.633 18.9976C164.642 18.9842 164.637 18.9888 164.619 19.0098M166.376 17.5372C165.743 17.7186 165.165 17.9133 164.688 18.1167M167.266 17.2627C167.211 17.2881 167.157 17.3139 167.104 17.3402M170.22 16.6258C170.177 16.6438 170.134 16.6624 170.094 16.6814C170.064 16.6953 170.035 16.7094 170.006 16.7238M171.381 16.4639C171.484 16.452 171.585 16.441 171.684 16.431M171.381 16.4639C171.364 16.4795 171.347 16.4954 171.33 16.5116M171.381 16.4639C171.436 16.4152 171.494 16.3694 171.555 16.3264M171.684 16.431C171.881 16.411 172.07 16.3948 172.249 16.3826M171.684 16.431C171.565 16.4576 171.447 16.4845 171.33 16.5116M171.684 16.431C171.81 16.4025 171.938 16.3744 172.065 16.3466M172.249 16.3826C172.225 16.3766 172.201 16.371 172.176 16.3659C172.14 16.3585 172.103 16.3521 172.065 16.3466M172.249 16.3826C172.262 16.386 172.275 16.3895 172.289 16.3932M172.554 16.3654C172.815 16.354 173.048 16.3529 173.245 16.3632C173.426 16.3728 173.534 16.5101 173.567 16.711M173.567 16.711C173.582 16.8062 173.581 16.9156 173.562 17.0325M173.567 16.711C173.413 16.7822 173.266 16.8554 173.127 16.931M173.562 17.0325C173.536 17.1916 173.479 17.3644 173.389 17.5338M173.562 17.0325C173.428 16.9846 173.283 16.9512 173.127 16.931M173.389 17.5338C173.32 17.6638 173.231 17.7918 173.124 17.91C172.836 18.2246 172.538 18.5027 172.232 18.7481M173.389 17.5338C173.386 17.5265 173.383 17.5193 173.38 17.512C173.3 17.3059 173.204 17.1174 173.085 16.9543M172.232 18.7481C172.179 18.7904 172.126 18.8317 172.072 18.8721M172.232 18.7481C172.299 18.7375 172.366 18.7264 172.433 18.7148M172.072 18.8721C171.985 18.9385 171.897 19.0023 171.808 19.0637M172.072 18.8721C172.123 18.8654 172.173 18.8586 172.223 18.8516M171.808 19.0637C171.815 19.0753 171.822 19.0869 171.83 19.0984M170.864 19.6184C170.856 19.6226 170.847 19.6269 170.838 19.6312M170.864 19.6184C170.884 19.6197 170.904 19.621 170.924 19.6223M170.864 19.6184C170.853 19.6176 170.842 19.6169 170.832 19.6162M170.838 19.6312C170.757 19.671 170.675 19.709 170.593 19.7454M170.838 19.6312C170.836 19.6262 170.834 19.6212 170.832 19.6162M170.838 19.6312C170.843 19.6414 170.847 19.6517 170.851 19.662M170.593 19.7454C170.595 19.7626 170.596 19.7798 170.598 19.797M170.593 19.7454C170.588 19.6969 170.584 19.6482 170.581 19.5992M169.334 20.1793C169.292 19.938 169.26 19.6923 169.236 19.4472M165.507 20.3126C165.413 20.2972 165.322 20.2809 165.235 20.2641M165.507 20.3126C165.476 20.3467 165.446 20.3818 165.417 20.4179M165.235 20.2641C165.112 20.2403 164.997 20.2155 164.889 20.1903M165.235 20.2641C165.291 20.3195 165.352 20.3714 165.417 20.4179M165.235 20.2641C165.175 20.205 165.121 20.142 165.073 20.077M164.889 20.1903C164.95 20.1526 165.011 20.1148 165.073 20.077M163.991 19.9017C163.982 19.8972 163.973 19.8926 163.965 19.888M163.965 19.888C163.902 19.8554 163.844 19.8227 163.792 19.7899M163.792 19.7899C163.448 20.3742 163.061 21.0338 162.701 21.6434M170.006 16.7238C169.887 16.7837 169.779 16.8477 169.683 16.9185M171.3 16.5186C171.309 16.5174 171.318 16.5161 171.327 16.5148M171.3 16.5186C171.31 16.5163 171.32 16.514 171.33 16.5116M171.327 16.5148C171.665 16.467 171.988 16.4262 172.289 16.3932M171.327 16.5148L171.33 16.5116M174.35 16.3851C174.646 16.58 174.509 16.9407 174.108 17.3763M174.35 16.3851C174.719 16.2458 175.111 16.1152 175.516 15.9915M173.518 17.922C173.205 18.1797 172.834 18.4487 172.433 18.7148M173.518 17.922C173.567 18.0907 173.606 18.2615 173.636 18.4333M172.433 18.7148C172.364 18.7605 172.294 18.8061 172.223 18.8516M172.433 18.7148C172.855 18.6415 173.258 18.549 173.636 18.4333M172.223 18.8516C172.095 18.9345 171.963 19.0169 171.83 19.0984M172.223 18.8516C172.652 18.7917 173.064 18.7206 173.416 18.6328C173.502 18.6115 173.582 18.5868 173.657 18.5594M171.83 19.0984C172.007 19.3679 172.336 19.5965 172.8 19.7508M170.924 19.6223C170.9 19.6356 170.876 19.6488 170.851 19.662M170.851 19.662C170.767 19.7078 170.683 19.7528 170.598 19.797M170.598 19.797C170.437 19.8818 170.276 19.9634 170.118 20.0412C169.862 20.1667 169.612 20.2727 169.368 20.3614M174.192 15.7493C174.642 15.7266 175.053 15.7193 175.41 15.7242M174.192 15.7493C174.37 15.7768 174.543 15.8056 174.712 15.8352M175.41 15.7242C175.608 15.7269 175.79 15.7333 175.952 15.7429C176.023 15.7471 176.081 15.7719 176.127 15.8121M175.41 15.7242C175.18 15.7588 174.947 15.7959 174.712 15.8352M175.41 15.7242C176.091 15.6216 176.742 15.5411 177.335 15.4895M176.127 15.8121C176.214 15.8876 176.26 16.0172 176.268 16.1665M176.127 15.8121C175.921 15.8703 175.717 15.9301 175.516 15.9915M176.127 15.8121C176.526 15.6993 176.932 15.5922 177.335 15.4895M176.268 16.1665C176.031 16.1066 175.781 16.048 175.516 15.9915M176.268 16.1665C178.166 16.6483 179.157 17.2195 179.285 17.4734C179.202 17.5653 178.762 17.4774 178.31 17.3869M173.636 18.4333C173.644 18.4753 173.651 18.5173 173.657 18.5594M171.705 18.8208C171.713 18.8524 171.723 18.8837 171.735 18.9146M170.581 18.9191C170.548 18.921 170.515 18.9229 170.483 18.9247M169.197 18.9618C169.202 19.0414 169.207 19.1213 169.214 19.2015M169.197 18.9618C169.178 18.6464 169.17 18.3374 169.169 18.0456M169.683 16.9185C169.376 17.1448 169.191 17.4401 169.171 17.8883M172.065 16.3466C171.905 16.3235 171.733 16.3178 171.555 16.3264M174.712 15.8352C174.993 15.8849 175.261 15.9372 175.516 15.9915M177.335 15.4895C178.48 15.3898 179.412 15.3976 179.943 15.5619C180.49 15.7311 180.264 16.4018 179.911 16.9356C179.598 17.4095 179.205 17.8426 178.751 18.2341M177.335 15.4895C177.343 15.4874 177.351 15.4854 177.359 15.4833C179.14 15.03 180.434 15.4328 181.453 16.0065C181.9 16.2586 182.235 16.7697 182.419 17.2403M178.751 18.2341C178.218 18.6939 177.6 19.0962 176.931 19.4394M178.751 18.2341C178.347 18.3264 177.956 18.4718 177.592 18.6808C177.215 18.8975 177.015 19.1746 176.931 19.4394M178.751 18.2341C179.069 18.1612 179.395 18.1215 179.721 18.1098M176.931 19.4394C176.663 19.5767 176.387 19.7046 176.104 19.8229C175.891 19.912 175.654 19.9721 175.405 20.0085M176.931 19.4394C176.858 19.669 176.874 19.8894 176.937 20.0532C176.964 20.1226 177 20.1836 177.045 20.2358M175.405 20.0085C175.926 20.0723 176.473 20.1471 177.045 20.2358M173.702 19.9641C173.417 19.9172 173.148 19.855 172.912 19.7856C172.874 19.7745 172.837 19.7628 172.8 19.7508M173.702 19.9641C173.706 19.9188 173.709 19.8733 173.712 19.8277M172.8 19.7508C173.09 19.7733 173.394 19.7986 173.712 19.8277M171.735 18.9146C171.338 18.9622 170.94 19.0022 170.575 19.0387M173.085 16.9543C173.099 16.9465 173.113 16.9388 173.127 16.931M173.085 16.9543C173.077 16.9439 173.069 16.9335 173.061 16.9233M173.127 16.931C173.105 16.9282 173.083 16.9256 173.061 16.9233M182.419 17.2403C182.461 17.3489 182.495 17.4553 182.521 17.5559C182.541 17.6325 182.555 17.7071 182.562 17.7798M182.419 17.2403C181.544 17.1823 180.738 17.2704 180.165 17.705C180.014 17.8198 179.864 17.9582 179.721 18.1098M182.419 17.2403C182.969 17.2768 183.547 17.3711 184.112 17.4734C184.713 17.5822 184.96 17.914 185.14 18.2694C186.14 20.2468 184.436 22.7967 183.773 23.3292C183.57 23.492 183.282 23.5254 183.006 23.4522M182.562 17.7798C182.594 18.0883 182.523 18.3619 182.398 18.6042M182.562 17.7798C182.414 17.9281 182.281 18.1952 182.201 18.5254M182.562 17.7798C182.723 17.6196 182.902 17.5979 183.053 17.7849C184.076 19.0528 183.653 21.5439 183.006 23.4522M182.398 18.6042C182.346 18.7047 182.285 18.7998 182.218 18.8898C182.186 18.9328 182.15 18.9749 182.11 19.016M182.398 18.6042C182.334 18.5771 182.268 18.5508 182.201 18.5254M182.398 18.6042C182.693 18.7289 182.959 18.8705 183.183 19.0215C183.713 19.3785 183.022 20.4752 182.576 20.9717C182.452 21.1096 182.329 21.216 182.206 21.2977M182.11 19.016C181.589 19.5549 180.408 19.9397 178.962 20.2483M182.11 19.016C182.033 19.4763 181.966 19.9441 181.928 20.3961M182.11 19.016C182.129 18.9055 182.148 18.7954 182.167 18.6861C182.177 18.6311 182.188 18.5775 182.201 18.5254M178.962 20.2483C178.712 20.3016 178.454 20.3527 178.19 20.402C178.166 20.4064 178.143 20.4105 178.12 20.4144M178.962 20.2483C179.013 20.355 179.08 20.452 179.156 20.5417C179.18 20.5695 179.204 20.5969 179.228 20.6241M178.962 20.2483C178.846 20.0068 178.81 19.7156 178.93 19.3463C179.054 18.9644 179.361 18.4947 179.721 18.1098M178.12 20.4144C177.555 20.5099 177.224 20.4408 177.045 20.2358M178.12 20.4144C178.481 20.4785 178.851 20.5482 179.228 20.6241M178.12 20.4144C177.753 20.3493 177.394 20.29 177.045 20.2358M179.721 18.1098C180.599 18.0783 181.476 18.2501 182.201 18.5254M182.206 21.2977C182.192 21.3071 182.177 21.3161 182.163 21.3249M182.206 21.2977C182.194 21.2188 182.182 21.1398 182.167 21.0609C182.113 20.7596 182.022 20.5321 181.928 20.3961M182.206 21.2977C182.208 21.3125 182.21 21.3272 182.212 21.342M182.163 21.3249C182.076 21.3792 181.988 21.4214 181.9 21.454M182.163 21.3249C182.18 21.3305 182.196 21.3362 182.212 21.342M182.163 21.3249C182.079 21.2957 181.989 21.2676 181.894 21.2402M181.9 21.454C181.735 21.5157 181.569 21.543 181.402 21.5528M181.9 21.454C181.927 22.0046 182.03 22.4923 182.253 22.8609M181.9 21.454C181.897 21.3837 181.895 21.3124 181.894 21.2402M181.402 21.5528C181.35 21.5559 181.297 21.5572 181.245 21.5574C180.398 21.5599 179.713 21.1585 179.228 20.6241M181.402 21.5528C181.21 22.799 181.12 24.1183 181.687 24.6656C181.731 24.7081 181.782 24.7403 181.838 24.7611M181.402 21.5528C181.424 21.4102 181.448 21.2685 181.472 21.1291M179.228 20.6241C179.947 20.7685 180.696 20.9354 181.472 21.1291M183.006 23.4522L183.001 23.4511M183.006 23.4522C182.938 23.6517 182.868 23.8447 182.797 24.0293C182.772 24.0937 182.746 24.1536 182.718 24.2092M183.001 23.4511C182.814 23.4005 182.632 23.3007 182.487 23.1588C182.397 23.0712 182.32 22.9714 182.253 22.8609M183.001 23.4511C182.924 23.6871 182.826 23.9466 182.718 24.2092M183.001 23.4511C183.061 23.268 183.109 23.0991 183.139 22.9538C183.331 22.0321 183.013 21.6293 182.212 21.342M182.253 22.8609C182.291 22.3708 182.282 21.8569 182.212 21.342M182.253 22.8609C182.198 23.5659 182.045 24.2218 181.838 24.7611M181.894 21.2402C181.89 20.9695 181.903 20.6861 181.928 20.3961M181.894 21.2402C181.803 21.2141 181.708 21.1886 181.608 21.1634C181.563 21.1518 181.517 21.1404 181.472 21.1291M181.928 20.3961C181.787 20.1932 181.639 20.194 181.591 20.4579L181.58 20.5185C181.545 20.7141 181.508 20.9191 181.472 21.1291M182.718 24.2092C182.466 24.7098 182.098 24.8574 181.838 24.7611M182.718 24.2092C182.258 25.3206 181.61 26.4876 181.546 26.1685C181.509 25.9868 181.473 25.7775 181.439 25.5568M181.838 24.7611C181.72 25.0683 181.584 25.3377 181.439 25.5568M181.439 25.5568C181.375 25.6521 181.31 25.7379 181.244 25.8131C180.201 26.9928 179.533 24.8031 179.195 23.1132M181.439 25.5568C181.268 24.4725 181.114 23.1118 180.924 23.3851C180.736 23.6558 180.52 24.3818 180.189 24.4096M179.195 23.1132C179.184 23.058 179.173 23.0033 179.163 22.9493M179.195 23.1132C179.616 24.0641 180.195 25.2 180.219 24.7482C180.223 24.6645 180.212 24.5486 180.189 24.4096M179.195 23.1132C179.016 22.7086 178.865 22.3375 178.798 22.1364C178.749 21.99 178.921 22.4244 179.163 22.9493M179.163 22.9493C179.007 22.1325 178.931 21.4686 178.93 21.4243C178.909 20.3276 179.993 23.2181 180.189 24.4096M179.163 22.9493C179.42 23.5088 179.757 24.1711 179.988 24.3422C180.06 24.395 180.127 24.4149 180.189 24.4096M173.712 19.8277C173.736 19.4114 173.722 18.9833 173.657 18.5594M170.832 19.6162C170.745 19.6105 170.662 19.6049 170.581 19.5992M170.832 19.6162C170.75 19.4276 170.663 19.2478 170.573 19.0836M170.581 19.5992C170.57 19.4298 170.567 19.2576 170.573 19.0836M170.55 19.0412C170.558 19.0403 170.566 19.0395 170.575 19.0387M170.55 19.0412C170.557 19.0552 170.565 19.0693 170.573 19.0836M170.575 19.0387C170.574 19.0537 170.574 19.0686 170.573 19.0836M170.907 17.2334C170.355 17.4013 169.769 17.626 169.171 17.8883M169.171 17.8883C169.169 17.9167 169.169 17.9456 169.169 17.9753C169.169 17.9986 169.169 18.0221 169.169 18.0456M162.986 21.4413C162.984 21.4429 162.981 21.4446 162.979 21.4463M162.986 21.4413C163.021 21.3785 163.057 21.3163 163.092 21.2548M162.979 21.4463C163.016 21.3826 163.054 21.3187 163.092 21.2548M184.699 20.5817C185.229 20.9331 186.116 22.3494 186.739 24.3009C187.638 27.1173 188.07 31.4811 188.955 35.2989C189.222 36.1934 189.486 36.8963 189.71 37.5219C189.933 38.1476 190.109 38.6747 190.29 39.7503M188.077 30.7762C188.124 31.1106 188.602 32.2581 190.974 38.1728C192.357 41.6218 192.833 44.4609 193.025 46.7833C193.134 48.1031 193.027 49.7241 192.789 51.8418C192.55 53.9594 192.122 56.5283 191.878 58.5414C191.633 60.5546 191.586 61.9342 191.395 63.4774C190.995 66.7035 190.432 68.6389 190.074 69.7366C189.319 72.0513 188.418 74.5421 187.34 76.3642C186.331 78.0704 184.199 80.0647 181.727 82.3676C180.683 83.3861 180.065 84.0997 179.58 84.6338C179.094 85.1679 178.761 85.5009 178.418 85.844M182.599 89.3038C182.742 89.2086 182.884 89.1135 182.982 88.9693C183.079 88.8252 183.127 88.6349 183.008 88.6796C182.605 89.0097 181.882 89.7319 180.496 91.0466C179.538 91.9332 178.064 93.2652 176.544 94.4934M185.914 91.1778C185.867 91.6074 185.485 93.3286 184.693 97.4025C184.351 99.1623 184.095 101.84 183.924 104.877C183.752 107.914 183.752 111.244 183.728 113.103C183.693 115.828 183.418 117.452 183.225 119.041C183.043 120.536 182.743 121.784 182.719 122.431C182.697 123.034 182.646 125.228 182.742 128.23C182.849 131.573 182.982 135.526 182.984 136.202C182.984 136.476 181.221 133.391 178.462 129.36C177.275 127.625 176.322 126.66 175.024 125.504C172.158 122.949 170.06 121.691 169.509 121.572C168.094 121.211 165.124 121.113 162.356 121.64C161.468 121.926 160.232 122.402 158.525 123.036M172.805 33.6617V36.327C172.805 37.9562 173.093 41.2653 173.501 45.2821C173.621 46.7619 173.563 47.1079 173.504 47.4643M171.757 52.5311C170.827 52.2987 169.321 52.5276 166.99 53.3724C164.822 54.1578 162.392 56.6544 160.291 59.8281C158.704 62.2252 157.262 64.2861 156.356 65.6017C155.982 66.1439 154.299 68.1211 152.058 70.9733C150.963 72.3674 149.867 73.6614 148.154 75.8969C144.898 80.1478 143.809 81.639 141.481 84.3785C140.092 86.0133 137.984 87.2963 136.789 88.141C135.58 88.9959 134.374 89.7423 133.265 90.1809C131.94 90.7047 130.995 91.1435 129.83 91.3174C128.027 91.5864 126.631 92.129 124.826 93.2629C123.958 93.8132 122.459 94.7357 121.571 95.2686C120.684 95.8015 120.453 95.9168 120.215 96.0356M171.058 52.3564C171.231 52.8194 172.735 54.2119 174.779 56.4535C175.611 57.3668 176.237 59.1005 176.935 61.6837C177.314 63.083 177.173 64.7858 176.683 68.1552C176.193 71.5246 175.213 76.5407 174.477 79.932C173.742 83.3232 173.28 84.9376 172.805 86.6009M175.426 72.7983C175.484 73.3189 175.37 75.6357 174.382 81.1332C174.089 82.5702 173.801 83.781 173.22 85.4426C172.639 87.1041 171.774 89.1797 170.883 91.3183M163.196 100.054C163.08 100.4 162.79 100.751 161.98 101.503C160.392 102.976 158.316 105.629 155.674 109.545C154.243 111.903 152.629 115.017 151.336 117.687C150.043 120.358 149.121 122.491 148.17 124.689M172.98 103.374C173.095 103.258 171.771 104.698 167.916 108.526C165.506 110.919 161.927 113.969 158.588 116.581C155.248 119.194 152.192 121.212 150.012 122.511C147.833 123.81 146.622 124.329 145.652 124.654C144.683 124.979 143.991 125.095 143.278 125.213M154.635 100.753C154.521 100.809 152.84 102.2 150.316 104.462C148.857 105.77 147.157 107.532 145.516 109.576C143.876 111.62 142.376 113.927 141.028 116.297C139.679 118.667 138.526 121.031 137.672 122.883C136.819 124.735 136.3 126.003 135.765 127.31M163.012 122.208C162.538 122.444 161.205 123.774 159.447 126.22C158.317 127.792 156.838 130.131 155.776 131.89C154.714 133.65 154.147 134.784 152.862 137.541C151.578 140.299 149.594 144.646 148.501 147.121C147.21 150.045 146.931 150.981 146.479 152.287C145.733 154.443 145.498 156.278 145.332 157.324C145.103 158.763 144.64 161.088 144.236 166.072C143.954 169.539 143.784 174.93 143.45 178.909C143.115 182.889 142.69 185.298 142.424 186.917C142.157 188.537 142.063 189.293 141.966 190.072M145.831 130.512C145.831 130.606 145.075 131.647 143.15 133.859C142.041 135.134 140.422 136.496 139.123 137.675C137.824 138.854 136.831 139.752 136.226 140.309C135.62 140.866 135.431 141.055 135.236 141.25M121.349 153.849C121.397 154.705 120.639 156.509 118.638 161.175C117.894 162.91 117.165 165.303 116.681 166.969C116.196 168.634 116.054 169.532 115.958 171.105C115.861 172.678 115.814 174.898 115.884 177.2C115.954 179.501 116.143 181.816 116.335 183.363C116.527 184.91 116.716 185.619 116.91 186.349M134.377 142.252C134.377 142.157 134.519 141.967 135.041 141.516C136.035 140.734 137.046 139.917 138.02 139.109C138.617 138.631 139.42 138.017 140.248 137.384M124.642 119.487C124.925 120.432 125.118 121.392 125.19 122.485C125.214 123.863 124.884 126.957 124.264 131.008C123.976 132.744 123.74 133.83 123.496 134.95M123.21 109.465C123.115 109.938 122.594 110.606 120.296 111.865C118.535 112.829 115.304 113.927 113.177 114.678C110.058 115.665 108.185 115.955 106.637 115.98C105.939 115.957 105.419 115.862 104.884 115.765M250.318 72.888C249.326 72.5619 247.549 70.3453 247.047 68.2369C246.708 66.8172 246.933 65.3493 247.722 63.1126M247.722 63.1126C248.135 61.9437 248.701 60.5648 249.421 58.8731C250.578 56.1547 253.187 53.8209 255.077 51.5477C255.663 50.8434 254.552 50.4827 253.495 50.5892C249.309 51.0111 247.003 52.7991 244.56 54.7411C242.526 56.3588 240.56 57.0226 239.675 57.189C238.803 57.3529 237.788 56.4768 237.01 55.8611C236.025 55.0805 237.335 58.6834 238.054 59.5137C239.507 61.192 243.579 62.2404 247.722 63.1126ZM247.722 63.1126C247.918 63.1536 248.113 63.1943 248.308 63.2346C250.531 63.6942 253.407 64.7806 255.911 65.18C261.234 66.0288 264.51 58.2507 267.447 57.0276C269.992 55.9676 273.05 55.0423 275.492 53.0904C276.33 52.421 277.493 52.696 278.709 53.1369C281.924 54.3024 283.48 56.2471 285.589 56.4685C287.809 56.7015 289.255 55.8078 289.15 56.0208C286.609 61.1822 284.385 63.0033 283.437 64.9487C282.88 66.0908 281.829 66.894 280.56 67.2834C279.824 67.5091 278.706 67.1808 277.919 66.8669M277.919 66.8669C277.855 66.8414 277.793 66.8159 277.734 66.7908C275.343 65.78 275.06 63.1298 275.002 62.3543C274.974 61.9825 275.712 61.7985 276.215 62.0698C277.785 62.9175 278.039 64.8603 277.919 66.8669ZM277.919 66.8669C277.856 67.9236 277.689 68.9979 277.556 69.9393C277.172 72.651 275.619 75.6437 274.948 77.9285C273.871 81.6007 275.053 87.0794 276.218 89.1878C277.861 92.1622 276.724 96.7311 276.556 99.6682C276.419 102.061 276.391 104.492 275.947 107.707C275.184 113.227 275.28 117.459 275.72 120.914C276.023 123.283 276.666 125.682 277.176 127.777M277.176 127.777C277.528 129.222 277.817 130.521 277.887 131.565C277.984 133.008 277.28 134.233 276.561 135.063C276.2 135.481 275.732 135.784 275.286 135.789C274.84 135.794 274.401 135.464 274.175 134.965C273.311 133.06 274.909 130.276 277.176 127.777ZM277.176 127.777C278.986 125.783 281.221 123.969 282.973 122.929C288.589 119.591 290.363 119.706 291.193 119.814C294.433 120.236 291.594 128.668 290.592 131.289C289.434 134.321 288.592 137.002 289.035 140.16C289.374 142.581 285.723 145.316 283.167 147.045C279.237 149.703 274.095 149.656 269.475 150.1C263.277 150.696 260.526 150.372 257.349 149.405M257.349 149.405C256.413 149.121 255.44 148.78 254.332 148.391C250.369 147 248.228 143.792 243.402 138.972C239.848 135.423 240.334 132.249 240.057 129.091C239.759 125.674 244.317 121.929 246.145 121.097C246.95 120.73 247.642 120.814 248.366 121.143C248.549 121.227 248.725 121.323 248.895 121.432M257.349 149.405C257.789 148.746 258.188 148.049 258.537 147.311L258.573 147.236C260.544 143.067 261.805 140.401 261.522 133.053C261.301 127.304 260.655 119.862 260.413 116.419C260.19 113.259 260.119 109.94 260.248 106.764C260.416 102.609 262.871 95.0151 259.853 95.2417C259.078 95.3 256.368 95.8461 254.465 100.036C251.31 106.982 249.618 111.515 249.316 115.176C249.152 117.171 248.999 119.322 248.895 121.432M257.349 149.405C254.476 153.708 249.864 156.402 246.12 158.469C243.523 159.902 241.013 160.858 238.017 162.023C233.821 163.655 229.597 162.31 225.537 160.759C223.911 160.138 222.591 158.432 220.877 156.715C219.214 155.049 214.407 155.094 209.14 155.314C206.537 155.422 205.504 156.755 204.178 157.968C203.938 158.187 203.712 158.412 203.499 158.641M248.895 121.432C250.237 122.295 251.171 123.931 251.811 125.844C252.746 128.642 252.095 131.454 251.543 133.116C251.306 133.83 250.771 134.12 250.38 134.07C248.72 133.858 248.581 127.829 248.895 121.432ZM203.499 158.641C199.885 162.527 200.09 167.635 200.559 170.009C200.651 170.479 201.274 170.73 202.05 170.515C204.077 169.954 205.368 168.429 205.982 167.705L205.993 167.691C206.607 166.968 206.926 165.798 207.252 164.604L207.272 164.533C207.536 163.563 207.165 162.423 206.558 161.205C205.993 160.072 204.861 159.26 203.499 158.641ZM203.499 158.641C202.024 157.971 200.279 157.526 198.69 157.148C195.745 156.445 192.751 157.311 189.825 157.863C185.055 158.764 180.882 159.527 177.624 160.522C168.959 163.169 164.804 162.749 162.186 162.473C158.47 162.636 151.192 162.862 145.828 163.409C144.718 163.85 143.291 164.619 141.154 166.077" stroke="black" stroke-width="2" stroke-linecap="round"/>
</svg>
