<svg width="14" height="13" viewBox="0 0 14 13" fill="none" xmlns="http://www.w3.org/2000/svg">
<path d="M6.9873 4.2998C7.56398 4.29991 8.13243 4.62684 8.5752 5.17383C8.97549 5.66837 9.22834 6.29463 9.27344 6.88086L8.92578 7.2666L9.60059 7.53027C10.2383 7.77941 10.737 8.13156 11.0762 8.57715C11.4117 9.01802 11.6131 9.57877 11.6133 10.291C11.6131 10.8127 11.4502 11.1808 11.209 11.4453C10.9605 11.7176 10.5962 11.9144 10.1445 12.0264C9.22831 12.2534 8.0758 12.0982 7.24121 11.6855L7.08887 11.6104L6.92285 11.6426C5.74029 11.8735 4.54105 12.0281 3.65527 11.8496C3.22251 11.7624 2.91092 11.6036 2.70703 11.3799C2.50991 11.1634 2.36442 10.8312 2.36426 10.291C2.36443 9.5889 2.56503 9.03234 2.90137 8.59277C3.24146 8.14845 3.74134 7.79642 4.37695 7.54492L4.69531 7.41895L4.69336 7.07617C4.69334 7.07312 4.69336 7.07365 4.69336 7.06348C4.69367 6.4272 4.95853 5.72014 5.40039 5.17383C5.84273 4.62706 6.41091 4.30024 6.9873 4.2998ZM12.4912 4.02441C12.796 4.02683 13.0061 4.13673 13.1201 4.28906C13.1544 4.33504 13.2008 4.44376 13.2119 4.63867C13.2225 4.82645 13.1982 5.05496 13.1357 5.29492C13.0067 5.79053 12.746 6.22832 12.458 6.43848C12.0498 6.73614 11.7172 6.92626 11.4648 6.99023C11.3471 7.02003 11.2765 7.01444 11.2363 7.00293C11.2037 6.99352 11.1574 6.97176 11.1006 6.89551C11.0591 6.8396 10.997 6.69537 10.9619 6.44629C10.9286 6.21003 10.926 5.92653 10.96 5.6377C10.994 5.34831 11.063 5.07039 11.1611 4.84082C11.2612 4.60673 11.3781 4.4557 11.4873 4.37598L11.4863 4.375C11.8215 4.13069 12.1866 4.02209 12.4912 4.02441ZM1.39746 3.37793C1.45835 3.37797 1.57612 3.40721 1.74219 3.51465C1.90226 3.61824 2.0741 3.77355 2.23242 3.96582C2.56008 4.36384 2.76066 4.83122 2.76074 5.18262C2.76073 5.68442 2.71881 6.06017 2.62207 6.29688C2.57703 6.40701 2.53113 6.45814 2.49902 6.48242C2.47274 6.50228 2.42718 6.52637 2.3291 6.52637C2.25622 6.52628 2.10034 6.48947 1.87598 6.36914C1.66291 6.25486 1.43028 6.08771 1.21484 5.88867C0.999118 5.68936 0.813254 5.46952 0.68457 5.25488C0.553393 5.03604 0.500231 4.85464 0.5 4.72266C0.5 4.31274 0.626529 3.95988 0.807617 3.7207C0.965915 3.51176 1.14908 3.40595 1.32324 3.38281L1.39746 3.37793ZM4.4668 0.59668C4.5265 0.606833 4.6373 0.654831 4.78223 0.788086C4.92199 0.916696 5.06447 1.09873 5.1875 1.31445C5.44214 1.76117 5.56098 2.2552 5.50098 2.60156C5.41529 3.09605 5.30881 3.4593 5.17285 3.67676C5.10951 3.778 5.05584 3.82199 5.01953 3.84082C4.99711 3.85244 4.96344 3.86405 4.90723 3.8623L4.84375 3.85547C4.77219 3.84327 4.62519 3.78099 4.4248 3.625C4.23453 3.47687 4.03365 3.27308 3.85547 3.04102C3.67709 2.80866 3.53143 2.56095 3.44141 2.32812C3.34972 2.09093 3.3283 1.90355 3.35059 1.77344C3.42064 1.36905 3.60632 1.04178 3.82617 0.835938C4.0458 0.630366 4.27413 0.564014 4.4668 0.59668ZM9.49219 0.521484C9.75358 0.470425 9.96127 0.513994 10.1055 0.611328L10.1631 0.65625C10.2067 0.695029 10.2746 0.792696 10.3252 0.981445C10.3739 1.16314 10.396 1.39156 10.3838 1.63867C10.3586 2.14948 10.1936 2.62989 9.95508 2.89258C9.61597 3.26571 9.32874 3.51791 9.09473 3.63086C8.98539 3.68361 8.915 3.69181 8.87305 3.68848C8.83873 3.68572 8.78834 3.67302 8.7168 3.60938C8.66397 3.56178 8.57406 3.43236 8.48926 3.19629C8.40849 2.97133 8.34881 2.69397 8.32324 2.4043C8.29764 2.11407 8.30808 1.82817 8.35742 1.58398C8.40774 1.33502 8.49091 1.16464 8.58105 1.06543C8.85925 0.759313 9.19359 0.579843 9.49219 0.521484Z" fill="black" stroke="black"/>
</svg>
