<svg width="200" height="200" viewBox="0 0 200 200" fill="none" xmlns="http://www.w3.org/2000/svg">
<path d="M16.4129 7.5406C17.8595 7.65843 18.9037 9.50252 18.7904 11.04L18.7893 11.0412C20.0654 11.7008 20.8541 12.8297 20.7334 14.4666C20.5434 17.029 17.4995 17.0042 15.8215 15.9342C13.575 16.2185 10.9374 16.2483 11.1266 13.686C11.2468 12.0659 12.1965 11.0811 13.5491 10.6303C13.5494 10.6251 13.5499 10.6195 13.5503 10.6142C13.6645 9.07688 14.9665 7.42355 16.4129 7.5406Z" fill="#FCEBDA"/>
<path d="M20.4199 7.52966C21.218 6.9198 22.2229 6.92808 22.6643 7.54835C23.1056 8.16917 22.7216 9.81851 21.9234 10.4286C21.1252 11.0385 20.3869 11.404 19.9457 10.7836C19.5045 10.1629 19.622 8.14011 20.4199 7.52966Z" fill="#FCEBDA"/>
<path d="M10.982 6.42466C11.7257 6.42466 12.7778 7.72353 12.778 8.75176C12.778 9.78004 12.6238 10.6142 11.88 10.6142C11.1363 10.6141 9.63606 9.31526 9.63561 8.28709C9.63561 7.25893 10.2384 6.42486 10.982 6.42466Z" fill="#FCEBDA"/>
<path d="M14.0201 3.62292C14.7532 3.75319 15.5781 5.21806 15.4106 6.23156C15.2431 7.24486 14.9552 8.03988 14.2223 7.90962C13.4893 7.7791 12.2227 6.2359 12.3898 5.22249C12.5573 4.20899 13.287 3.49266 14.0201 3.62292Z" fill="#FCEBDA"/>
<path d="M17.5475 4.25452C18.2104 3.48998 19.1957 3.28819 19.7489 3.80355C20.3018 4.31906 20.2469 6.01356 19.5843 6.77846C18.9213 7.54312 18.2683 8.05649 17.7152 7.54087C17.1624 7.02464 16.8846 5.019 17.5475 4.25452Z" fill="#FCEBDA"/>
<path d="M64.5469 21.4936C66.0339 21.4939 67.2403 23.2479 67.2408 24.7899L67.2398 24.7912C68.5936 25.3455 69.4849 26.4071 69.4853 28.0489C69.4848 30.619 66.3725 30.8408 64.577 29.91C62.303 30.3754 59.61 30.6189 59.6097 28.0489C59.61 26.4239 60.506 25.3651 61.8541 24.8061C61.854 24.8009 61.8541 24.7952 61.8541 24.7899C61.8546 23.248 63.06 21.4941 64.5469 21.4936Z" fill="#FCEBDA"/>
<path d="M68.598 21.668C69.3961 21.0582 70.401 21.0664 70.8424 21.6867C71.2837 22.3075 70.8997 23.9569 70.1015 24.5669C69.3033 25.1769 68.565 25.5424 68.1238 24.922C67.6826 24.3013 67.8001 22.2785 68.598 21.668Z" fill="#FCEBDA"/>
<path d="M59.1601 20.563C59.9038 20.563 60.9559 21.8619 60.9561 22.8901C60.9561 23.9184 60.8019 24.7525 60.0581 24.7525C59.3144 24.7524 57.8142 23.4536 57.8137 22.4254C57.8137 21.3973 58.4165 20.5632 59.1601 20.563Z" fill="#FCEBDA"/>
<path d="M62.1982 17.7613C62.9313 17.8915 63.7562 19.3564 63.5887 20.3699C63.4212 21.3832 63.1333 22.1782 62.4004 22.048C61.6674 21.9175 60.4008 20.3742 60.5679 19.3608C60.7354 18.3473 61.4651 17.631 62.1982 17.7613Z" fill="#FCEBDA"/>
<path d="M65.7256 18.3929C66.3885 17.6283 67.3738 17.4265 67.927 17.9419C68.4799 18.4574 68.425 20.1519 67.7624 20.9168C67.0994 21.6815 66.4464 22.1948 65.8933 21.6792C65.3405 21.163 65.0627 19.1573 65.7256 18.3929Z" fill="#FCEBDA"/>
<path d="M41.8785 5.83718C43.3412 6.11788 44.2268 8.07073 43.9626 9.58771L43.9613 9.58873C45.1979 10.3893 45.8924 11.6016 45.6109 13.2167C45.1692 15.7448 42.0696 15.3761 40.4632 14.1219C38.1464 14.1509 35.4556 13.8825 35.8965 11.3544C36.1758 9.75599 37.2389 8.88343 38.6609 8.58781C38.6618 8.58268 38.6628 8.57708 38.6637 8.57188C38.9289 7.05518 40.4158 5.55725 41.8785 5.83718Z" fill="#FCEBDA"/>
<path d="M45.4725 5.5099C46.2706 4.90003 47.2755 4.90832 47.7169 5.52858C48.1582 6.1494 47.7743 7.79874 46.976 8.40881C46.1778 9.01875 45.4395 9.38425 44.9983 8.76385C44.5571 8.14314 44.6746 6.12035 45.4725 5.5099Z" fill="#FCEBDA"/>
<path d="M36.0347 4.4049C36.7783 4.4049 37.8304 5.70377 37.8306 6.732C37.8306 7.76028 37.6764 8.59443 36.9326 8.59443C36.189 8.59433 34.6887 7.29549 34.6882 6.26732C34.6882 5.23917 35.291 4.40509 36.0347 4.4049Z" fill="#FCEBDA"/>
<path d="M39.0727 1.60315C39.8058 1.73343 40.6307 3.1983 40.4632 4.2118C40.2957 5.2251 40.0079 6.02011 39.2749 5.88986C38.5419 5.75934 37.2753 4.21613 37.4424 3.20272C37.6099 2.18923 38.3396 1.47289 39.0727 1.60315Z" fill="#FCEBDA"/>
<path d="M42.6001 2.23476C43.263 1.47021 44.2484 1.26843 44.8015 1.78379C45.3544 2.2993 45.2996 3.9938 44.6369 4.75869C43.9739 5.52336 43.3209 6.03673 42.7679 5.52111C42.215 5.00488 41.9372 2.99923 42.6001 2.23476Z" fill="#FCEBDA"/>
<path d="M118.438 72.6515C119.822 73.22 120.335 75.3143 119.799 76.7504L119.798 76.7511C120.866 77.7846 121.326 79.1137 120.756 80.6427C119.861 83.0357 116.886 82.0529 115.538 80.5001C113.258 80.0644 110.666 79.262 111.56 76.8688C112.125 75.3558 113.328 74.7123 114.778 74.707C114.78 74.7021 114.782 74.6968 114.783 74.6919C115.32 73.2563 117.053 72.0838 118.438 72.6515Z" fill="#FCEBDA"/>
<path d="M122.025 73.0502C122.92 72.6114 123.905 72.8209 124.225 73.5181C124.545 74.2159 123.867 75.7579 122.972 76.1968C122.078 76.6356 121.286 76.8465 120.966 76.1492C120.646 75.4515 121.131 73.4896 122.025 73.0502Z" fill="#FCEBDA"/>
<path d="M112.963 70.0751C113.693 70.224 114.488 71.7097 114.301 72.719C114.114 73.7283 113.81 74.5162 113.08 74.3672C112.35 74.2182 111.114 72.6428 111.301 71.6335C111.489 70.6243 112.233 69.9263 112.963 70.0751Z" fill="#FCEBDA"/>
<path d="M116.456 67.9335C117.151 68.2082 117.694 69.8114 117.345 70.7726C116.996 71.7337 116.568 72.4564 115.872 72.1817C115.177 71.9068 114.215 70.1383 114.564 69.177C114.913 68.2158 115.76 67.6588 116.456 67.9335Z" fill="#FCEBDA"/>
<path d="M119.803 69.2601C120.593 68.6424 121.597 68.6417 122.046 69.2584C122.495 69.8751 122.132 71.5274 121.342 72.1455C120.552 72.7632 119.817 73.1363 119.368 72.5194C118.92 71.902 119.013 69.8777 119.803 69.2601Z" fill="#FCEBDA"/>
<path d="M85.8309 106.166C87.2154 106.734 87.7286 108.829 87.1926 110.265L87.1912 110.266C88.259 111.299 88.7196 112.628 88.1488 114.157C87.2542 116.55 84.279 115.567 82.9309 114.014C80.6515 113.579 78.0593 112.776 78.953 110.383C79.5187 108.87 80.7213 108.227 82.171 108.221C82.1728 108.216 82.1748 108.211 82.1767 108.206C82.7136 106.771 84.4462 105.598 85.8309 106.166Z" fill="#FCEBDA"/>
<path d="M89.4183 106.565C90.3129 106.126 91.2978 106.335 91.618 107.033C91.9379 107.73 91.2603 109.272 90.3654 109.711C89.4708 110.15 88.6795 110.361 88.3594 109.664C88.0396 108.966 88.5238 107.004 89.4183 106.565Z" fill="#FCEBDA"/>
<path d="M80.356 103.589C81.0859 103.738 81.8817 105.224 81.6944 106.233C81.5069 107.243 81.2034 108.031 80.4734 107.882C79.7434 107.733 78.5077 106.157 78.6947 105.148C78.8822 104.139 79.626 103.441 80.356 103.589Z" fill="#FCEBDA"/>
<path d="M83.8489 101.448C84.5447 101.723 85.0873 103.326 84.7381 104.287C84.3889 105.248 83.9614 105.971 83.2657 105.696C82.57 105.421 81.6081 103.653 81.9569 102.691C82.3062 101.73 83.1531 101.173 83.8489 101.448Z" fill="#FCEBDA"/>
<path d="M87.1961 102.774C87.9862 102.157 88.9902 102.156 89.4391 102.773C89.8879 103.39 89.525 105.042 88.7351 105.66C87.9449 106.278 87.2103 106.651 86.7615 106.034C86.313 105.416 86.4061 103.392 87.1961 102.774Z" fill="#FCEBDA"/>
<path d="M36.6036 26.543C38.0906 26.5433 39.297 28.2973 39.2975 29.8393L39.2965 29.8406C40.6503 30.3949 41.5416 31.4565 41.5419 33.0983C41.5415 35.6684 38.4292 35.8902 36.6337 34.9595C34.3597 35.4249 31.6667 35.6683 31.6664 33.0983C31.6667 31.4733 32.5627 30.4145 33.9108 29.8555C33.9107 29.8503 33.9108 29.8446 33.9108 29.8393C33.9113 28.2974 35.1167 26.5435 36.6036 26.543Z" fill="#FCEBDA"/>
<path d="M40.6547 26.7174C41.4528 26.1076 42.4577 26.1158 42.8991 26.7361C43.3404 27.3569 42.9564 29.0063 42.1582 29.6163C41.36 30.2263 40.6217 30.5918 40.1805 29.9714C39.7393 29.3507 39.8568 27.3279 40.6547 26.7174Z" fill="#FCEBDA"/>
<path d="M31.2168 25.6124C31.9605 25.6124 33.0126 26.9113 33.0128 27.9395C33.0128 28.9678 32.8586 29.802 32.1148 29.802C31.3711 29.8019 29.8709 28.503 29.8704 27.4749C29.8704 26.4467 30.4732 25.6126 31.2168 25.6124Z" fill="#FCEBDA"/>
<path d="M34.2549 22.8107C34.988 22.941 35.8129 24.4058 35.6454 25.4193C35.4779 26.4326 35.19 27.2276 34.4571 27.0974C33.7241 26.9669 32.4575 25.4237 32.6246 24.4102C32.7921 23.3968 33.5218 22.6804 34.2549 22.8107Z" fill="#FCEBDA"/>
<path d="M37.7823 23.4423C38.4452 22.6777 39.4305 22.476 39.9837 22.9913C40.5366 23.5068 40.4817 25.2013 39.8191 25.9662C39.1561 26.7309 38.5031 27.2443 37.95 26.7286C37.3972 26.2124 37.1194 24.2068 37.7823 23.4423Z" fill="#FCEBDA"/>
<path d="M14.53 32.9184C15.8658 33.603 16.2148 35.7341 15.5692 37.1197L15.5677 37.1204C16.5518 38.2414 16.9077 39.6054 16.2201 41.0806C15.1429 43.3895 12.2538 42.1564 11.0307 40.4938C8.7926 39.8653 6.27121 38.8447 7.34768 36.5355C8.02887 35.0757 9.27745 34.5369 10.7228 34.6551C10.7249 34.6504 10.7273 34.6453 10.7296 34.6405C11.3761 33.2554 13.1939 32.2345 14.53 32.9184Z" fill="#FCEBDA"/>
<path d="M18.0965 34.9396C19.069 34.7589 19.9684 35.2289 20.1051 35.9893C20.2414 36.7501 19.2055 38.0553 18.2327 38.2359C17.26 38.4166 16.4436 38.4052 16.3071 37.6447C16.1708 36.884 17.1239 35.1208 18.0965 34.9396Z" fill="#FCEBDA"/>
<path d="M10.0803 29.6031C10.7484 29.9454 11.1494 31.5965 10.7188 32.5204C10.2879 33.4443 9.7999 34.1227 9.13169 33.7804C8.4636 33.438 7.6599 31.5807 8.09028 30.6567C8.52107 29.733 9.41209 29.2611 10.0803 29.6031Z" fill="#FCEBDA"/>
<path d="M13.9836 28.4842C14.5877 28.9386 14.7151 30.6344 14.1399 31.4679C13.5649 32.3011 12.9731 32.8829 12.3692 32.4285C11.7653 31.9739 11.274 30.0045 11.8487 29.171C12.4238 28.3375 13.3796 28.0298 13.9836 28.4842Z" fill="#FCEBDA"/>
<path d="M16.8881 30.6751C17.804 30.2933 18.7738 30.5655 19.0548 31.2831C19.3356 32.0007 18.5763 33.4978 17.6605 33.8801C16.7445 34.2619 15.9427 34.4226 15.6619 33.7048C15.3815 32.9866 15.9722 31.0568 16.8881 30.6751Z" fill="#FCEBDA"/>
<path d="M38.5307 49.7703C40.0178 49.7706 41.2241 51.5246 41.2247 53.0666L41.2236 53.0679C42.5775 53.6222 43.4687 54.6838 43.4691 56.3256C43.4686 58.8957 40.3563 59.1175 38.5608 58.1867C36.2868 58.6521 33.5939 58.8956 33.5935 56.3256C33.5939 54.7006 34.4898 53.6418 35.8379 53.0828C35.8379 53.0776 35.8379 53.0719 35.8379 53.0666C35.8384 51.5247 37.0438 49.7708 38.5307 49.7703Z" fill="#FCEBDA"/>
<path d="M42.5818 49.9447C43.3799 49.3349 44.3848 49.3431 44.8262 49.9634C45.2675 50.5842 44.8836 52.2336 44.0853 52.8436C43.2871 53.4536 42.5489 53.8191 42.1076 53.1987C41.6664 52.578 41.7839 50.5552 42.5818 49.9447Z" fill="#FCEBDA"/>
<path d="M33.144 48.8397C33.8876 48.8397 34.9397 50.1386 34.9399 51.1668C34.9399 52.1951 34.7857 53.0292 34.0419 53.0292C33.2983 53.0291 31.798 51.7303 31.7975 50.7021C31.7975 49.674 32.4003 48.8399 33.144 48.8397Z" fill="#FCEBDA"/>
<path d="M36.182 46.038C36.9151 46.1682 37.7401 47.6331 37.5725 48.6466C37.405 49.6599 37.1172 50.4549 36.3842 50.3247C35.6512 50.1942 34.3846 48.651 34.5517 47.6375C34.7192 46.624 35.449 45.9077 36.182 46.038Z" fill="#FCEBDA"/>
<path d="M39.7094 46.6696C40.3723 45.905 41.3577 45.7032 41.9108 46.2186C42.4638 46.7341 42.4089 48.4286 41.7463 49.1935C41.0832 49.9582 40.4302 50.4715 39.8772 49.9559C39.3243 49.4397 39.0465 47.434 39.7094 46.6696Z" fill="#FCEBDA"/>
<path d="M177.415 49.6099C178.846 50.032 179.555 52.0627 179.157 53.5474L179.156 53.5483C180.316 54.4659 180.9 55.7407 180.476 57.3214C179.812 59.7954 176.759 59.1261 175.271 57.7208C172.961 57.5238 170.306 56.9942 170.969 54.52C171.389 52.9558 172.525 52.1907 173.967 52.035C173.969 52.0299 173.97 52.0245 173.971 52.0194C174.37 50.5351 175.983 49.1886 177.415 49.6099Z" fill="#FCEBDA"/>
<path d="M180.516 50.1382C181.314 49.5284 182.319 49.5367 182.76 50.1569C183.202 50.7778 182.818 52.4271 182.019 53.0372C181.221 53.6471 180.483 54.0126 180.042 53.3922C179.601 52.7715 179.718 50.7487 180.516 50.1382Z" fill="#FCEBDA"/>
<path d="M171.116 47.8536C171.859 47.8536 172.911 49.1525 172.911 50.1807C172.911 51.209 172.757 52.0431 172.013 52.0431C171.27 52.043 169.77 50.7442 169.769 49.716C169.769 48.6879 170.372 47.8538 171.116 47.8536Z" fill="#FCEBDA"/>
<path d="M174.405 45.2449C175.138 45.3752 175.963 46.8401 175.795 47.8536C175.628 48.8669 175.34 49.6619 174.607 49.5316C173.874 49.4011 172.607 47.8579 172.774 46.8445C172.942 45.831 173.672 45.1147 174.405 45.2449Z" fill="#FCEBDA"/>
<path d="M178.439 46.4221C179.102 45.6576 180.088 45.4558 180.641 45.9711C181.194 46.4866 181.139 48.1811 180.476 48.946C179.813 49.7107 179.16 50.2241 178.607 49.7085C178.054 49.1922 177.776 47.1866 178.439 46.4221Z" fill="#FCEBDA"/>
<path d="M84.3114 190.756C85.4875 191.709 85.4182 193.87 84.5185 195.09L84.517 195.091C85.2645 196.397 85.3499 197.808 84.392 199.107C82.8916 201.14 80.3 199.32 79.4229 197.433C77.3523 196.343 75.0799 194.809 76.5796 192.776C77.5283 191.491 78.8551 191.228 80.2477 191.65C80.2508 191.645 80.2541 191.641 80.2572 191.637C81.1576 190.417 83.1348 189.803 84.3114 190.756Z" fill="#FCEBDA"/>
<path d="M87.4143 193.491C88.4016 193.52 89.1917 194.171 89.1789 194.945C89.1656 195.719 87.8993 196.777 86.9117 196.748C85.9243 196.719 85.1269 196.535 85.1399 195.761C85.1532 194.987 86.4268 193.462 87.4143 193.491Z" fill="#FCEBDA"/>
<path d="M80.5931 186.566C81.1814 187.043 81.2556 188.745 80.6557 189.558C80.0555 190.372 79.4466 190.933 78.8583 190.456C78.27 189.979 77.8412 187.99 78.441 187.176C79.0411 186.363 80.0047 186.089 80.5931 186.566Z" fill="#FCEBDA"/>
<path d="M84.6317 186.297C85.1356 186.87 84.9333 188.558 84.2092 189.252C83.4853 189.947 82.7935 190.391 82.2897 189.818C81.786 189.245 81.6848 187.212 82.4084 186.517C83.1325 185.823 84.1278 185.724 84.6317 186.297Z" fill="#FCEBDA"/>
<path d="M87.0535 189.058C88.0242 188.879 88.9214 189.351 89.0582 190.113C89.1948 190.875 88.1623 192.181 87.1917 192.361C86.2209 192.541 85.4047 192.528 85.2682 191.766C85.1321 191.003 86.083 189.238 87.0535 189.058Z" fill="#FCEBDA"/>
<path d="M96.3445 171.966C97.8315 171.966 99.0379 173.72 99.0384 175.262L99.0373 175.264C100.391 175.818 101.282 176.88 101.283 178.521C101.282 181.091 98.1701 181.313 96.3746 180.382C94.1005 180.848 91.4076 181.091 91.4072 178.521C91.4076 176.896 92.3036 175.838 93.6516 175.279C93.6516 175.273 93.6516 175.268 93.6516 175.262C93.6521 173.72 94.8576 171.967 96.3445 171.966Z" fill="#FCEBDA"/>
<path d="M100.396 172.14C101.194 171.531 102.199 171.539 102.64 172.159C103.081 172.78 102.697 174.429 101.899 175.039C101.101 175.649 100.363 176.015 99.9213 175.394C99.4801 174.774 99.5977 172.751 100.396 172.14Z" fill="#FCEBDA"/>
<path d="M90.9577 171.035C91.7014 171.035 92.7534 172.334 92.7536 173.363C92.7536 174.391 92.5994 175.225 91.8557 175.225C91.112 175.225 89.6117 173.926 89.6113 172.898C89.6113 171.87 90.2141 171.036 90.9577 171.035Z" fill="#FCEBDA"/>
<path d="M93.9957 168.234C94.7288 168.364 95.5538 169.829 95.3863 170.842C95.2187 171.856 94.9309 172.651 94.1979 172.52C93.4649 172.39 92.1983 170.847 92.3654 169.833C92.5329 168.82 93.2627 168.103 93.9957 168.234Z" fill="#FCEBDA"/>
<path d="M97.5231 168.865C98.1861 168.101 99.1714 167.899 99.7245 168.414C100.277 168.93 100.223 170.624 99.56 171.389C98.897 172.154 98.244 172.667 97.6909 172.152C97.1381 171.635 96.8603 169.63 97.5231 168.865Z" fill="#FCEBDA"/>
<path d="M107.701 150.446C108.959 151.276 108.935 153.689 108.018 155.219L108.016 155.219C108.832 156.525 108.954 158.075 107.976 159.704C106.445 162.252 103.679 160.735 102.714 158.809C100.512 158.001 98.0882 156.739 99.6184 154.191C100.586 152.579 101.975 152.029 103.449 152.228C103.452 152.223 103.455 152.217 103.459 152.212C104.377 150.683 106.442 149.616 107.701 150.446Z" fill="#FCEBDA"/>
<path d="M111.025 152.881C112.064 152.721 112.91 153.29 112.914 154.152C112.918 155.014 111.61 156.435 110.571 156.595C109.533 156.754 108.69 156.704 108.686 155.843C108.682 154.981 109.987 153.04 111.025 152.881Z" fill="#FCEBDA"/>
<path d="M103.696 146.516C104.325 146.931 104.442 148.806 103.83 149.826C103.218 150.846 102.59 151.587 101.961 151.172C101.332 150.757 100.835 148.631 101.447 147.611C102.059 146.592 103.066 146.101 103.696 146.516Z" fill="#FCEBDA"/>
<path d="M107.936 145.433C108.478 145.972 108.304 147.885 107.559 148.797C106.814 149.708 106.097 150.336 105.554 149.797C105.011 149.259 104.858 147.021 105.603 146.11C106.348 145.198 107.393 144.895 107.936 145.433Z" fill="#FCEBDA"/>
<path d="M110.545 148.029C111.561 147.641 112.515 147.991 112.676 148.811C112.837 149.631 111.782 151.28 110.766 151.669C109.749 152.057 108.891 152.202 108.73 151.382C108.569 150.561 109.528 148.417 110.545 148.029Z" fill="#FCEBDA"/>
<path d="M135.979 129.891C137.302 130.602 137.612 132.74 136.942 134.112L136.94 134.113C137.904 135.253 138.235 136.624 137.521 138.085C136.402 140.372 133.535 139.082 132.343 137.395C130.116 136.722 127.614 135.651 128.732 133.364C129.44 131.918 130.698 131.404 132.141 131.551C132.143 131.547 132.146 131.542 132.148 131.537C132.82 130.165 134.656 129.181 135.979 129.891Z" fill="#FCEBDA"/>
<path d="M139.508 131.983C140.484 131.822 141.374 132.31 141.497 133.073C141.62 133.836 140.56 135.12 139.584 135.282C138.609 135.443 137.793 135.415 137.67 134.652C137.547 133.889 138.532 132.145 139.508 131.983Z" fill="#FCEBDA"/>
<path d="M131.59 126.488C132.252 126.843 132.623 128.502 132.176 129.417C131.728 130.332 131.228 131.001 130.566 130.645C129.904 130.289 129.135 128.416 129.582 127.501C130.029 126.586 130.929 126.132 131.59 126.488Z" fill="#FCEBDA"/>
<path d="M135.513 125.447C136.109 125.913 136.206 127.611 135.615 128.433C135.025 129.255 134.423 129.824 133.828 129.358C133.232 128.892 132.777 126.913 133.366 126.091C133.957 125.269 134.918 124.98 135.513 125.447Z" fill="#FCEBDA"/>
<path d="M138.377 127.695C139.3 127.332 140.265 127.623 140.533 128.346C140.8 129.069 140.014 130.551 139.092 130.915C138.169 131.279 137.364 131.423 137.096 130.7C136.829 129.976 137.455 128.059 138.377 127.695Z" fill="#FCEBDA"/>
<path d="M110.028 116.803C111.329 117.558 111.575 119.704 110.864 121.054L110.863 121.055C111.792 122.226 112.082 123.607 111.324 125.044C110.138 127.294 107.311 125.91 106.17 124.185C103.965 123.439 101.495 122.287 102.681 120.038C103.431 118.616 104.704 118.143 106.142 118.337C106.145 118.333 106.147 118.328 106.15 118.323C106.862 116.974 108.726 116.05 110.028 116.803Z" fill="#FCEBDA"/>
<path d="M113.493 119.01C114.473 118.881 115.349 119.398 115.449 120.164C115.548 120.931 114.451 122.18 113.471 122.309C112.491 122.439 111.676 122.384 111.576 121.617C111.476 120.851 112.513 119.14 113.493 119.01Z" fill="#FCEBDA"/>
<path d="M105.743 113.258C106.394 113.635 106.715 115.305 106.241 116.205C105.766 117.105 105.246 117.757 104.595 117.38C103.944 117.003 103.231 115.105 103.705 114.205C104.179 113.306 105.092 112.881 105.743 113.258Z" fill="#FCEBDA"/>
<path d="M109.695 112.346C110.276 112.832 110.322 114.532 109.708 115.334C109.094 116.136 108.475 116.686 107.893 116.2C107.312 115.715 106.916 113.722 107.53 112.92C108.144 112.117 109.113 111.86 109.695 112.346Z" fill="#FCEBDA"/>
<path d="M112.491 114.687C113.424 114.354 114.379 114.677 114.625 115.409C114.871 116.14 114.041 117.595 113.108 117.929C112.175 118.262 111.367 118.38 111.121 117.649C110.875 116.916 111.558 115.02 112.491 114.687Z" fill="#FCEBDA"/>
<path d="M80.273 150.21C81.5311 151.041 81.6601 153.199 80.8765 154.504L80.875 154.504C81.7387 155.729 81.9531 157.125 81.1187 158.515C79.8115 160.689 77.0652 159.139 76.0191 157.349C73.8582 156.472 71.4557 155.174 72.7621 152.999C73.5887 151.624 74.8852 151.229 76.3101 151.509C76.3127 151.504 76.3156 151.5 76.3183 151.495C77.1028 150.191 79.0145 149.38 80.273 150.21Z" fill="#FCEBDA"/>
<path d="M83.6123 152.62C84.5977 152.55 85.4437 153.118 85.5019 153.889C85.5596 154.661 84.3962 155.842 83.4105 155.913C82.425 155.983 81.6144 155.88 81.5565 155.109C81.4988 154.337 82.6267 152.691 83.6123 152.62Z" fill="#FCEBDA"/>
<path d="M76.1879 146.414C76.8172 146.829 77.047 148.516 76.5244 149.386C76.0016 150.256 75.447 150.876 74.8176 150.46C74.1884 150.045 73.5793 148.108 74.1017 147.238C74.6244 146.368 75.5586 145.999 76.1879 146.414Z" fill="#FCEBDA"/>
<path d="M80.1832 145.74C80.7373 146.26 80.6906 147.96 80.0335 148.724C79.3765 149.488 78.7287 150 78.1747 149.48C77.6208 148.96 77.3337 146.947 77.9904 146.183C78.6474 145.419 79.6292 145.22 80.1832 145.74Z" fill="#FCEBDA"/>
<path d="M82.8469 148.244C83.7966 147.968 84.733 148.347 84.939 149.092C85.1448 149.837 84.2367 151.241 83.2871 151.518C82.3373 151.794 81.5237 151.864 81.3179 151.119C81.1126 150.373 81.8973 148.521 82.8469 148.244Z" fill="#FCEBDA"/>
<path d="M65.5105 171.966C66.9975 171.966 68.2039 173.72 68.2044 175.262L68.2033 175.264C69.5572 175.818 70.4484 176.88 70.4488 178.521C70.4484 181.091 67.3361 181.313 65.5406 180.382C63.2665 180.848 60.5736 181.091 60.5732 178.521C60.5736 176.896 61.4696 175.838 62.8176 175.279C62.8176 175.273 62.8176 175.268 62.8176 175.262C62.8182 173.72 64.0236 171.967 65.5105 171.966Z" fill="#FCEBDA"/>
<path d="M69.5616 172.14C70.3597 171.531 71.3645 171.539 71.806 172.159C72.2472 172.78 71.8633 174.429 71.065 175.039C70.2669 175.649 69.5286 176.015 69.0873 175.394C68.6462 174.774 68.7637 172.751 69.5616 172.14Z" fill="#FCEBDA"/>
<path d="M60.1237 171.035C60.8674 171.035 61.9194 172.334 61.9197 173.363C61.9197 174.391 61.7654 175.225 61.0217 175.225C60.278 175.225 58.7777 173.926 58.7773 172.898C58.7773 171.87 59.3801 171.036 60.1237 171.035Z" fill="#FCEBDA"/>
<path d="M63.1618 168.234C63.8948 168.364 64.7198 169.829 64.5523 170.842C64.3848 171.856 64.0969 172.651 63.3639 172.52C62.6309 172.39 61.3644 170.847 61.5314 169.833C61.6989 168.82 62.4287 168.103 63.1618 168.234Z" fill="#FCEBDA"/>
<path d="M66.6891 168.865C67.3521 168.101 68.3374 167.899 68.8905 168.414C69.4435 168.93 69.3886 170.624 68.726 171.389C68.063 172.154 67.41 172.667 66.8569 172.152C66.3041 171.635 66.0263 169.63 66.6891 168.865Z" fill="#FCEBDA"/>
<path d="M45.9076 186.542C47.1582 187.385 47.2676 189.544 46.4722 190.842L46.4706 190.842C47.3233 192.076 47.525 193.474 46.6779 194.855C45.3511 197.016 42.6189 195.439 41.5892 193.638C39.4363 192.74 37.0457 191.418 38.3718 189.256C39.2108 187.89 40.5108 187.507 41.9331 187.801C41.9358 187.797 41.9388 187.792 41.9415 187.788C42.7378 186.491 44.6568 185.699 45.9076 186.542Z" fill="#FCEBDA"/>
<path d="M49.2249 188.985C50.2109 188.925 51.0518 189.501 51.103 190.273C51.1537 191.046 49.9795 192.215 48.9933 192.276C48.0072 192.336 47.1976 192.225 47.1466 191.453C47.0959 190.681 48.2388 189.046 49.2249 188.985Z" fill="#FCEBDA"/>
<path d="M41.8572 182.705C42.4827 183.127 42.6972 184.816 42.1667 185.681C41.636 186.546 41.0758 187.16 40.4503 186.738C39.8248 186.316 39.2333 184.373 39.7636 183.508C40.2942 182.644 41.2317 182.284 41.8572 182.705Z" fill="#FCEBDA"/>
<path d="M45.8585 182.071C46.4078 182.596 46.3456 184.296 45.6817 185.054C45.0178 185.811 44.3654 186.316 43.8161 185.791C43.267 185.266 42.9981 183.25 43.6617 182.492C44.3256 181.735 45.3091 181.546 45.8585 182.071Z" fill="#FCEBDA"/>
<path d="M48.4993 184.602C49.4515 184.335 50.3843 184.724 50.5836 185.471C50.7826 186.218 49.8619 187.612 48.9098 187.88C47.9575 188.147 47.1433 188.209 46.9443 187.461C46.7458 186.714 47.5472 184.869 48.4993 184.602Z" fill="#FCEBDA"/>
<path d="M13.4781 183.075C14.9652 183.075 16.1715 184.829 16.1721 186.371L16.171 186.372C17.5248 186.927 18.4161 187.988 18.4165 189.63C18.416 192.2 15.3037 192.422 13.5082 191.491C11.2342 191.957 8.54126 192.2 8.54088 189.63C8.54126 188.005 9.43723 186.946 10.7853 186.387C10.7852 186.382 10.7853 186.376 10.7853 186.371C10.7858 184.829 11.9912 183.075 13.4781 183.075Z" fill="#FCEBDA"/>
<path d="M17.5292 183.249C18.3273 182.639 19.3322 182.648 19.7736 183.268C20.2149 183.889 19.831 185.538 19.0327 186.148C18.2345 186.758 17.4962 187.124 17.055 186.503C16.6138 185.882 16.7313 183.86 17.5292 183.249Z" fill="#FCEBDA"/>
<path d="M8.09135 182.144C8.83503 182.144 9.88708 183.443 9.8873 184.471C9.8873 185.5 9.73309 186.334 8.98933 186.334C8.24566 186.334 6.74538 185.035 6.74493 184.007C6.74493 182.978 7.34772 182.144 8.09135 182.144Z" fill="#FCEBDA"/>
<path d="M11.1294 179.342C11.8625 179.473 12.6874 180.938 12.5199 181.951C12.3524 182.964 12.0646 183.759 11.3316 183.629C10.5986 183.499 9.332 181.955 9.49908 180.942C9.66659 179.929 10.3963 179.212 11.1294 179.342Z" fill="#FCEBDA"/>
<path d="M14.6568 179.974C15.3197 179.209 16.3051 179.008 16.8582 179.523C17.4111 180.039 17.3563 181.733 16.6936 182.498C16.0306 183.263 15.3776 183.776 14.8246 183.26C14.2717 182.744 13.9939 180.739 14.6568 179.974Z" fill="#FCEBDA"/>
<path d="M129.437 98.7225C130.686 99.5681 130.792 101.727 129.994 103.023L129.993 103.024C130.843 104.259 131.043 105.658 130.193 107.037C128.863 109.196 126.133 107.613 125.107 105.81C122.955 104.909 120.567 103.582 121.897 101.423C122.738 100.058 124.039 99.6779 125.46 99.9746C125.463 99.9702 125.466 99.9655 125.469 99.961C126.267 98.6659 128.187 97.8777 129.437 98.7225Z" fill="#FCEBDA"/>
<path d="M132.75 101.172C133.736 101.113 134.576 101.692 134.626 102.464C134.675 103.236 133.499 104.403 132.513 104.462C131.527 104.521 130.717 104.408 130.668 103.636C130.618 102.864 131.764 101.231 132.75 101.172Z" fill="#FCEBDA"/>
<path d="M125.393 94.8785C126.018 95.3012 126.229 96.9905 125.697 97.8545C125.165 98.7184 124.604 99.3315 123.979 98.9087C123.354 98.4858 122.766 96.5418 123.298 95.6777C123.83 94.814 124.768 94.4559 125.393 94.8785Z" fill="#FCEBDA"/>
<path d="M129.395 94.2517C129.944 94.7779 129.879 96.4775 129.213 97.2338C128.548 97.9898 127.895 98.4941 127.347 97.968C126.798 97.4417 126.533 95.4252 127.198 94.6688C127.863 93.9125 128.847 93.7256 129.395 94.2517Z" fill="#FCEBDA"/>
<path d="M132.032 96.7876C132.984 96.5221 133.917 96.9127 134.115 97.6601C134.312 98.4076 133.389 99.7999 132.437 100.066C131.484 100.331 130.67 100.391 130.472 99.6439C130.275 98.8959 131.079 97.053 132.032 96.7876Z" fill="#FCEBDA"/>
<path d="M186.919 104.304C188.406 104.304 189.613 106.058 189.613 107.6L189.612 107.602C190.966 108.156 191.857 109.217 191.858 110.859C191.857 113.429 188.745 113.651 186.949 112.72C184.675 113.186 181.982 113.429 181.982 110.859C181.982 109.234 182.878 108.175 184.226 107.616C184.226 107.611 184.226 107.606 184.226 107.6C184.227 106.058 185.432 104.304 186.919 104.304Z" fill="#FCEBDA"/>
<path d="M190.97 104.478C191.768 103.868 192.773 103.877 193.215 104.497C193.656 105.118 193.272 106.767 192.474 107.377C191.676 107.987 190.937 108.353 190.496 107.732C190.055 107.112 190.173 105.089 190.97 104.478Z" fill="#FCEBDA"/>
<path d="M181.533 103.373C182.276 103.373 183.328 104.672 183.328 105.7C183.328 106.729 183.174 107.563 182.431 107.563C181.687 107.563 180.187 106.264 180.186 105.236C180.186 104.208 180.789 103.374 181.533 103.373Z" fill="#FCEBDA"/>
<path d="M184.571 100.572C185.304 100.702 186.129 102.167 185.961 103.18C185.794 104.194 185.506 104.989 184.773 104.858C184.04 104.728 182.773 103.185 182.94 102.171C183.108 101.158 183.838 100.441 184.571 100.572Z" fill="#FCEBDA"/>
<path d="M188.098 101.203C188.761 100.439 189.746 100.237 190.299 100.752C190.852 101.268 190.797 102.962 190.135 103.727C189.472 104.492 188.819 105.005 188.266 104.49C187.713 103.973 187.435 101.968 188.098 101.203Z" fill="#FCEBDA"/>
<path d="M156.085 107.334C157.572 107.334 158.779 109.088 158.779 110.63L158.778 110.631C160.132 111.185 161.023 112.247 161.024 113.889C161.023 116.459 157.911 116.681 156.115 115.75C153.841 116.215 151.148 116.459 151.148 113.889C151.148 112.264 152.044 111.205 153.392 110.646C153.392 110.641 153.392 110.635 153.392 110.63C153.393 109.088 154.598 107.334 156.085 107.334Z" fill="#FCEBDA"/>
<path d="M160.136 107.508C160.934 106.898 161.939 106.906 162.381 107.527C162.822 108.148 162.438 109.797 161.64 110.407C160.842 111.017 160.103 111.382 159.662 110.762C159.221 110.141 159.339 108.118 160.136 107.508Z" fill="#FCEBDA"/>
<path d="M150.699 106.403C151.442 106.403 152.494 107.702 152.494 108.73C152.494 109.758 152.34 110.593 151.597 110.593C150.853 110.592 149.353 109.294 149.352 108.265C149.352 107.237 149.955 106.403 150.699 106.403Z" fill="#FCEBDA"/>
<path d="M153.737 103.601C154.47 103.732 155.295 105.196 155.127 106.21C154.96 107.223 154.672 108.018 153.939 107.888C153.206 107.757 151.939 106.214 152.106 105.201C152.274 104.187 153.004 103.471 153.737 103.601Z" fill="#FCEBDA"/>
<path d="M157.264 104.233C157.927 103.468 158.912 103.267 159.465 103.782C160.018 104.297 159.963 105.992 159.301 106.757C158.638 107.521 157.985 108.035 157.432 107.519C156.879 107.003 156.601 104.997 157.264 104.233Z" fill="#FCEBDA"/>
<path d="M13.4781 116.423C14.9652 116.423 16.1715 118.177 16.1721 119.719L16.171 119.72C17.5248 120.274 18.4161 121.336 18.4165 122.978C18.416 125.548 15.3037 125.77 13.5082 124.839C11.2342 125.304 8.54126 125.548 8.54088 122.978C8.54126 121.353 9.43723 120.294 10.7853 119.735C10.7852 119.73 10.7853 119.724 10.7853 119.719C10.7858 118.177 11.9912 116.423 13.4781 116.423Z" fill="#FCEBDA"/>
<path d="M17.5292 116.597C18.3273 115.987 19.3322 115.995 19.7736 116.616C20.2149 117.236 19.831 118.886 19.0327 119.496C18.2345 120.106 17.4962 120.471 17.055 119.851C16.6138 119.23 16.7313 117.207 17.5292 116.597Z" fill="#FCEBDA"/>
<path d="M8.09135 115.492C8.83503 115.492 9.88708 116.791 9.8873 117.819C9.8873 118.847 9.73309 119.681 8.98933 119.681C8.24566 119.681 6.74538 118.383 6.74493 117.354C6.74493 116.326 7.34772 115.492 8.09135 115.492Z" fill="#FCEBDA"/>
<path d="M11.1294 112.69C11.8625 112.82 12.6874 114.285 12.5199 115.299C12.3524 116.312 12.0646 117.107 11.3316 116.977C10.5986 116.846 9.332 115.303 9.49908 114.29C9.66659 113.276 10.3963 112.56 11.1294 112.69Z" fill="#FCEBDA"/>
<path d="M14.6568 113.322C15.3197 112.557 16.3051 112.355 16.8582 112.871C17.4111 113.386 17.3563 115.081 16.6936 115.846C16.0306 116.61 15.3776 117.124 14.8246 116.608C14.2717 116.092 13.9939 114.086 14.6568 113.322Z" fill="#FCEBDA"/>
<path d="M31.0694 159.255C32.3514 160.044 32.5439 162.197 31.7991 163.527L31.7975 163.527C32.697 164.724 32.9524 166.112 32.1592 167.528C30.9168 169.744 28.126 168.283 27.0278 166.527C24.8421 165.721 22.4025 164.502 23.6443 162.286C24.4299 160.885 25.7142 160.447 27.1466 160.681C27.1491 160.677 27.1519 160.672 27.1545 160.667C27.9001 159.338 29.7871 158.466 31.0694 159.255Z" fill="#FCEBDA"/>
<path d="M34.4781 161.556C35.4609 161.453 36.3233 161.994 36.4042 162.763C36.4846 163.533 35.3565 164.751 34.3733 164.853C33.3904 164.955 32.5772 164.879 32.4965 164.109C32.4161 163.34 33.4951 161.658 34.4781 161.556Z" fill="#FCEBDA"/>
<path d="M26.8745 155.592C27.5157 155.987 27.7951 157.666 27.2984 158.552C26.8014 159.439 26.2653 160.076 25.624 159.682C24.9828 159.287 24.317 157.37 24.8135 156.484C25.3104 155.597 26.2332 155.198 26.8745 155.592Z" fill="#FCEBDA"/>
<path d="M30.8481 154.79C31.4172 155.291 31.4205 156.992 30.7863 157.777C30.1521 158.562 29.5197 159.094 28.9507 158.593C28.3817 158.091 28.0354 156.088 28.6693 155.303C29.3035 154.518 30.2789 154.288 30.8481 154.79Z" fill="#FCEBDA"/>
<path d="M33.5842 157.207C34.5253 156.899 35.4724 157.249 35.7002 157.987C35.9279 158.725 35.0616 160.157 34.1206 160.464C33.1794 160.772 32.3683 160.868 32.1406 160.129C31.9134 159.391 32.6432 157.514 33.5842 157.207Z" fill="#FCEBDA"/>
<path d="M50.0935 148.739C51.5805 148.739 52.7869 150.493 52.7874 152.035L52.7863 152.036C54.1402 152.591 55.0314 153.652 55.0318 155.294C55.0314 157.864 51.9191 158.086 50.1236 157.155C47.8495 157.621 45.1566 157.864 45.1562 155.294C45.1566 153.669 46.0526 152.61 47.4006 152.051C47.4006 152.046 47.4006 152.04 47.4006 152.035C47.4012 150.493 48.6066 148.739 50.0935 148.739Z" fill="#FCEBDA"/>
<path d="M54.1446 148.913C54.9426 148.303 55.9475 148.312 56.389 148.932C56.8302 149.553 56.4463 151.202 55.648 151.812C54.8499 152.422 54.1116 152.788 53.6703 152.167C53.2292 151.546 53.3467 149.524 54.1446 148.913Z" fill="#FCEBDA"/>
<path d="M44.7067 147.808C45.4504 147.808 46.5024 149.107 46.5027 150.135C46.5027 151.164 46.3484 151.998 45.6047 151.998C44.861 151.998 43.3607 150.699 43.3603 149.671C43.3603 148.642 43.9631 147.808 44.7067 147.808Z" fill="#FCEBDA"/>
<path d="M47.7448 145.006C48.4778 145.137 49.3028 146.602 49.1353 147.615C48.9678 148.628 48.6799 149.423 47.947 149.293C47.214 149.163 45.9474 147.619 46.1144 146.606C46.2819 145.593 47.0117 144.876 47.7448 145.006Z" fill="#FCEBDA"/>
<path d="M51.2722 145.638C51.9351 144.873 52.9204 144.672 53.4735 145.187C54.0265 145.703 53.9716 147.397 53.309 148.162C52.646 148.927 51.993 149.44 51.4399 148.924C50.8871 148.408 50.6093 146.403 51.2722 145.638Z" fill="#FCEBDA"/>
<path d="M71.2919 129.551C72.7789 129.551 73.9853 131.305 73.9858 132.847L73.9847 132.849C75.3386 133.403 76.2298 134.464 76.2302 136.106C76.2297 138.676 73.1175 138.898 71.322 137.967C69.0479 138.433 66.355 138.676 66.3546 136.106C66.355 134.481 67.251 133.422 68.599 132.864C68.599 132.858 68.599 132.853 68.599 132.847C68.5995 131.305 69.805 129.551 71.2919 129.551Z" fill="#FCEBDA"/>
<path d="M75.3429 129.725C76.141 129.116 77.1459 129.124 77.5874 129.744C78.0286 130.365 77.6447 132.014 76.8464 132.624C76.0482 133.234 75.31 133.6 74.8687 132.979C74.4275 132.359 74.545 130.336 75.3429 129.725Z" fill="#FCEBDA"/>
<path d="M65.9051 128.62C66.6488 128.62 67.7008 129.919 67.701 130.948C67.701 131.976 67.5468 132.81 66.8031 132.81C66.0594 132.81 64.5591 131.511 64.5587 130.483C64.5587 129.455 65.1614 128.621 65.9051 128.62Z" fill="#FCEBDA"/>
<path d="M68.9431 125.819C69.6762 125.949 70.5012 127.414 70.3337 128.427C70.1661 129.441 69.8783 130.236 69.1453 130.105C68.4123 129.975 67.1457 128.432 67.3128 127.418C67.4803 126.405 68.2101 125.688 68.9431 125.819Z" fill="#FCEBDA"/>
<path d="M72.4705 126.45C73.1334 125.686 74.1188 125.484 74.6719 125.999C75.2248 126.515 75.17 128.209 74.5074 128.974C73.8443 129.739 73.1914 130.252 72.6383 129.737C72.0855 129.22 71.8076 127.215 72.4705 126.45Z" fill="#FCEBDA"/>
<path d="M6.73319 151.768C8.22022 151.769 9.42659 153.523 9.42712 155.065L9.42605 155.066C10.7799 155.62 11.6711 156.682 11.6715 158.324C11.6711 160.894 8.55879 161.116 6.76331 160.185C4.48924 160.65 1.79632 160.894 1.79595 158.324C1.79632 156.699 2.69229 155.64 4.04034 155.081C4.04031 155.076 4.04034 155.07 4.04034 155.065C4.04087 153.523 5.24629 151.769 6.73319 151.768Z" fill="#FCEBDA"/>
<path d="M10.7843 151.943C11.5824 151.333 12.5872 151.341 13.0287 151.962C13.4699 152.582 13.086 154.232 12.2877 154.842C11.4896 155.452 10.7513 155.817 10.31 155.197C9.86887 154.576 9.98639 152.553 10.7843 151.943Z" fill="#FCEBDA"/>
<path d="M1.34642 150.838C2.0901 150.838 3.14214 152.137 3.14237 153.165C3.14237 154.193 2.98815 155.027 2.2444 155.027C1.50072 155.027 0.000450832 153.728 0 152.7C0 151.672 0.602788 150.838 1.34642 150.838Z" fill="#FCEBDA"/>
<path d="M4.38448 148.036C5.11754 148.166 5.94251 149.631 5.775 150.645C5.60747 151.658 5.31963 152.453 4.58666 152.323C3.85366 152.192 2.58706 150.649 2.75414 149.636C2.92165 148.622 3.65141 147.906 4.38448 148.036Z" fill="#FCEBDA"/>
<path d="M7.91185 148.668C8.57479 147.903 9.56012 147.701 10.1132 148.217C10.6662 148.732 10.6113 150.427 9.94869 151.192C9.28567 151.956 8.6327 152.47 8.07962 151.954C7.52681 151.438 7.24899 149.432 7.91185 148.668Z" fill="#FCEBDA"/>
<path d="M34.0878 130.063C35.3186 130.937 35.3785 133.098 34.5535 134.375L34.5519 134.376C35.376 135.631 35.5456 137.033 34.6671 138.393C33.2911 140.52 30.5959 138.874 29.6077 137.048C27.4761 136.096 25.1165 134.714 26.4919 132.586C27.362 131.241 28.6704 130.892 30.0855 131.221C30.0883 131.217 30.0914 131.212 30.0942 131.208C30.92 129.932 32.8566 129.189 34.0878 130.063Z" fill="#FCEBDA"/>
<path d="M37.348 132.589C38.3351 132.553 39.1625 133.151 39.196 133.924C39.229 134.697 38.0283 135.837 37.0409 135.873C36.0537 135.908 35.247 135.777 35.2137 135.004C35.1808 134.23 36.3608 132.625 37.348 132.589Z" fill="#FCEBDA"/>
<path d="M30.1266 126.125C30.7422 126.562 30.9179 128.256 30.3677 129.107C29.8173 129.959 29.2432 130.558 28.6275 130.121C28.0119 129.684 27.4651 127.727 28.0151 126.875C28.5654 126.024 29.5109 125.688 30.1266 126.125Z" fill="#FCEBDA"/>
<path d="M34.1412 125.592C34.6783 126.131 34.5772 127.828 33.896 128.569C33.215 129.309 32.5511 129.798 32.0141 129.259C31.4772 128.72 31.2547 126.698 31.9354 125.958C32.6166 125.217 33.6041 125.053 34.1412 125.592Z" fill="#FCEBDA"/>
<path d="M36.7232 128.189C37.6812 127.946 38.6049 128.358 38.7869 129.11C38.9688 129.862 38.0163 131.232 37.0584 131.476C36.1002 131.719 35.2849 131.76 35.103 131.008C34.9217 130.256 35.7653 128.432 36.7232 128.189Z" fill="#FCEBDA"/>
<path d="M61.6562 66.9383C63.1433 66.9386 64.3496 68.6926 64.3502 70.2346L64.3491 70.2359C65.703 70.7902 66.5942 71.8518 66.5946 73.4936C66.5941 76.0637 63.4818 76.2855 61.6864 75.3547C59.4123 75.8201 56.7194 76.0636 56.719 73.4936C56.7194 71.8686 57.6153 70.8098 58.9634 70.2508C58.9633 70.2456 58.9634 70.2399 58.9634 70.2346C58.9639 68.6927 60.1693 66.9388 61.6562 66.9383Z" fill="#FCEBDA"/>
<path d="M65.7073 67.1127C66.5054 66.5028 67.5103 66.5111 67.9517 67.1314C68.393 67.7522 68.0091 69.4016 67.2108 70.0116C66.4126 70.6216 65.6743 70.9871 65.2331 70.3667C64.7919 69.746 64.9094 67.7232 65.7073 67.1127Z" fill="#FCEBDA"/>
<path d="M56.2695 66.0077C57.0131 66.0077 58.0652 67.3066 58.0654 68.3348C58.0654 69.3631 57.9112 70.1972 57.1674 70.1972C56.4238 70.1971 54.9235 68.8983 54.923 67.8701C54.923 66.842 55.5258 66.0079 56.2695 66.0077Z" fill="#FCEBDA"/>
<path d="M59.3075 63.206C60.0406 63.3362 60.8655 64.8011 60.698 65.8146C60.5305 66.8279 60.2427 67.6229 59.5097 67.4927C58.7767 67.3622 57.5101 65.819 57.6772 64.8055C57.8447 63.792 58.5745 63.0757 59.3075 63.206Z" fill="#FCEBDA"/>
<path d="M62.8349 63.8376C63.4978 63.073 64.4831 62.8712 65.0363 63.3866C65.5892 63.9021 65.5344 65.5966 64.8717 66.3615C64.2087 67.1262 63.5557 67.6395 63.0027 67.1239C62.4499 66.6077 62.172 64.602 62.8349 63.8376Z" fill="#FCEBDA"/>
<path d="M38.4208 76.2402C39.8106 76.7944 40.3433 78.8833 39.8207 80.3248L39.8193 80.3256C40.8967 81.3481 41.3697 82.6724 40.8132 84.2071C39.9411 86.6092 36.9568 85.657 35.5943 84.1181C33.3109 83.7058 30.7113 82.9301 31.5826 80.5278C32.1342 79.0091 33.3307 78.3532 34.7803 78.333C34.7821 78.3281 34.784 78.3228 34.7858 78.3179C35.3093 76.8768 37.0309 75.6866 38.4208 76.2402Z" fill="#FCEBDA"/>
<path d="M42.1482 77.9125C43.1009 77.6398 44.0374 78.0219 44.2396 78.7662C44.4415 79.5108 43.5232 80.9094 42.5702 81.1822C41.6172 81.4549 40.8032 81.5215 40.6012 80.7772C40.3994 80.0327 41.1953 78.1858 42.1482 77.9125Z" fill="#FCEBDA"/>
<path d="M33.7015 73.3634C34.3966 73.6405 34.9394 75.2465 34.5909 76.2076C34.2421 77.1687 33.815 77.8909 33.1198 77.6138C32.4248 77.3367 31.463 75.5637 31.8113 74.6025C32.1601 73.6415 33.0064 73.0865 33.7015 73.3634Z" fill="#FCEBDA"/>
<path d="M37.4914 71.8765C38.1324 72.2714 38.4067 73.948 37.9063 74.8329C37.4061 75.7176 36.8674 76.3534 36.2264 75.9586C35.5856 75.5635 34.9251 73.6492 35.425 72.7642C35.9254 71.8793 36.8504 71.4817 37.4914 71.8765Z" fill="#FCEBDA"/>
<path d="M40.5742 73.7811C41.4531 73.3135 42.4425 73.492 42.7847 74.1797C43.1267 74.8676 42.5007 76.431 41.6219 76.899C40.7429 77.3667 39.9584 77.6033 39.6163 76.9153C39.2747 76.2268 39.6953 74.2487 40.5742 73.7811Z" fill="#FCEBDA"/>
<path d="M131.033 158.838C132.52 158.838 133.726 160.592 133.727 162.134L133.726 162.135C135.079 162.689 135.971 163.751 135.971 165.393C135.971 167.963 132.858 168.185 131.063 167.254C128.789 167.719 126.096 167.963 126.095 165.393C126.096 163.768 126.992 162.709 128.34 162.15C128.34 162.145 128.34 162.139 128.34 162.134C128.34 160.592 129.546 158.838 131.033 158.838Z" fill="#FCEBDA"/>
<path d="M135.084 159.012C135.882 158.402 136.887 158.41 137.328 159.031C137.769 159.652 137.386 161.301 136.587 161.911C135.789 162.521 135.051 162.886 134.61 162.266C134.168 161.645 134.286 159.622 135.084 159.012Z" fill="#FCEBDA"/>
<path d="M125.646 157.907C126.39 157.907 127.442 159.206 127.442 160.234C127.442 161.262 127.288 162.097 126.544 162.097C125.8 162.096 124.3 160.798 124.3 159.769C124.3 158.741 124.902 157.907 125.646 157.907Z" fill="#FCEBDA"/>
<path d="M128.684 155.105C129.417 155.236 130.242 156.7 130.075 157.714C129.907 158.727 129.619 159.522 128.886 159.392C128.153 159.261 126.887 157.718 127.054 156.705C127.221 155.691 127.951 154.975 128.684 155.105Z" fill="#FCEBDA"/>
<path d="M132.211 155.737C132.874 154.972 133.86 154.771 134.413 155.286C134.966 155.801 134.911 157.496 134.248 158.261C133.585 159.025 132.932 159.539 132.379 159.023C131.826 158.507 131.549 156.501 132.211 155.737Z" fill="#FCEBDA"/>
<path d="M125.732 184.685C126.914 185.631 126.859 187.792 125.967 189.018L125.965 189.019C126.721 190.32 126.816 191.731 125.866 193.036C124.379 195.08 121.776 193.278 120.886 191.397C118.809 190.322 116.527 188.804 118.013 186.76C118.954 185.468 120.279 185.195 121.674 185.608C121.677 185.604 121.681 185.599 121.684 185.595C122.576 184.369 124.55 183.741 125.732 184.685Z" fill="#FCEBDA"/>
<path d="M128.853 187.399C129.84 187.421 130.634 188.066 130.626 188.84C130.618 189.614 129.358 190.681 128.371 190.659C127.383 190.637 126.585 190.458 126.593 189.685C126.601 188.911 127.865 187.377 128.853 187.399Z" fill="#FCEBDA"/>
<path d="M121.987 180.522C122.579 180.994 122.664 182.696 122.069 183.514C121.474 184.331 120.869 184.896 120.277 184.424C119.686 183.951 119.245 181.965 119.839 181.147C120.434 180.329 121.396 180.049 121.987 180.522Z" fill="#FCEBDA"/>
<path d="M126.024 180.225C126.532 180.794 126.34 182.483 125.62 183.183C124.901 183.882 124.212 184.331 123.705 183.762C123.197 183.192 123.083 181.16 123.802 180.46C124.522 179.761 125.517 179.655 126.024 180.225Z" fill="#FCEBDA"/>
<path d="M128.463 182.969C129.433 182.782 130.333 183.248 130.475 184.009C130.616 184.771 129.592 186.083 128.623 186.27C127.653 186.457 126.837 186.45 126.695 185.689C126.555 184.927 127.494 183.155 128.463 182.969Z" fill="#FCEBDA"/>
<path d="M184.88 182.481C186.075 183.409 186.049 185.571 185.174 186.811L185.172 186.811C185.945 188.101 186.059 189.51 185.127 190.829C183.667 192.895 181.04 191.132 180.126 189.264C178.034 188.22 175.731 186.736 177.19 184.67C178.113 183.365 179.434 183.072 180.835 183.464C180.838 183.46 180.841 183.455 180.844 183.451C181.72 182.212 183.685 181.554 184.88 182.481Z" fill="#FCEBDA"/>
<path d="M188.037 185.148C189.024 185.156 189.827 185.789 189.83 186.563C189.832 187.337 188.587 188.423 187.599 188.415C186.611 188.408 185.811 188.241 185.808 187.467C185.806 186.693 187.049 185.141 188.037 185.148Z" fill="#FCEBDA"/>
<path d="M181.079 178.374C181.677 178.838 181.785 180.538 181.201 181.364C180.617 182.19 180.02 182.765 179.422 182.301C178.825 181.837 178.356 179.857 178.94 179.031C179.523 178.205 180.481 177.91 181.079 178.374Z" fill="#FCEBDA"/>
<path d="M185.112 178.017C185.627 178.579 185.458 180.27 184.748 180.981C184.038 181.69 183.355 182.15 182.84 181.588C182.325 181.026 182.183 178.996 182.893 178.286C183.603 177.576 184.596 177.455 185.112 178.017Z" fill="#FCEBDA"/>
<path d="M187.588 180.724C188.555 180.523 189.461 180.976 189.613 181.735C189.765 182.494 188.759 183.822 187.792 184.023C186.825 184.224 186.009 184.229 185.857 183.47C185.706 182.71 186.621 180.925 187.588 180.724Z" fill="#FCEBDA"/>
<path d="M153.195 190.144C154.682 190.144 155.888 191.898 155.889 193.44L155.887 193.441C157.241 193.996 158.133 195.057 158.133 196.699C158.133 199.269 155.02 199.491 153.225 198.56C150.951 199.026 148.258 199.269 148.257 196.699C148.258 195.074 149.154 194.015 150.502 193.456C150.502 193.451 150.502 193.446 150.502 193.44C150.502 191.898 151.708 190.144 153.195 190.144Z" fill="#FCEBDA"/>
<path d="M157.246 190.318C158.044 189.708 159.049 189.717 159.49 190.337C159.931 190.958 159.547 192.607 158.749 193.217C157.951 193.827 157.213 194.193 156.771 193.572C156.33 192.952 156.448 190.929 157.246 190.318Z" fill="#FCEBDA"/>
<path d="M147.808 189.213C148.552 189.213 149.604 190.512 149.604 191.54C149.604 192.569 149.45 193.403 148.706 193.403C147.962 193.403 146.462 192.104 146.461 191.076C146.461 190.048 147.064 189.214 147.808 189.213Z" fill="#FCEBDA"/>
<path d="M150.846 186.412C151.579 186.542 152.404 188.007 152.236 189.02C152.069 190.034 151.781 190.829 151.048 190.698C150.315 190.568 149.049 189.025 149.216 188.011C149.383 186.998 150.113 186.281 150.846 186.412Z" fill="#FCEBDA"/>
<path d="M154.373 187.043C155.036 186.279 156.022 186.077 156.575 186.592C157.128 187.108 157.073 188.802 156.41 189.567C155.747 190.332 155.094 190.845 154.541 190.33C153.988 189.813 153.71 187.808 154.373 187.043Z" fill="#FCEBDA"/>
<path d="M186.919 157.828C188.406 157.828 189.613 159.582 189.613 161.124L189.612 161.125C190.966 161.68 191.857 162.741 191.858 164.383C191.857 166.953 188.745 167.175 186.949 166.244C184.675 166.71 181.982 166.953 181.982 164.383C181.982 162.758 182.878 161.699 184.226 161.14C184.226 161.135 184.226 161.129 184.226 161.124C184.227 159.582 185.432 157.828 186.919 157.828Z" fill="#FCEBDA"/>
<path d="M190.97 158.002C191.768 157.392 192.773 157.401 193.215 158.021C193.656 158.642 193.272 160.291 192.474 160.901C191.676 161.511 190.937 161.876 190.496 161.256C190.055 160.635 190.173 158.613 190.97 158.002Z" fill="#FCEBDA"/>
<path d="M181.533 156.897C182.276 156.897 183.328 158.196 183.328 159.224C183.328 160.252 183.174 161.087 182.431 161.087C181.687 161.087 180.187 159.788 180.186 158.76C180.186 157.731 180.789 156.897 181.533 156.897Z" fill="#FCEBDA"/>
<path d="M184.571 154.095C185.304 154.226 186.129 155.691 185.961 156.704C185.794 157.717 185.506 158.512 184.773 158.382C184.04 158.252 182.773 156.708 182.94 155.695C183.108 154.681 183.838 153.965 184.571 154.095Z" fill="#FCEBDA"/>
<path d="M188.098 154.727C188.761 153.962 189.746 153.761 190.299 154.276C190.852 154.792 190.797 156.486 190.135 157.251C189.472 158.016 188.819 158.529 188.266 158.013C187.713 157.497 187.435 155.491 188.098 154.727Z" fill="#FCEBDA"/>
<path d="M159.213 170.357C160.499 171.14 160.701 173.292 159.963 174.625L159.961 174.626C160.866 175.818 161.128 177.205 160.341 178.625C159.109 180.847 156.311 179.4 155.205 177.65C153.016 176.855 150.571 175.647 151.802 173.425C152.581 172.02 153.864 171.576 155.297 171.803C155.3 171.798 155.302 171.793 155.305 171.789C156.045 170.456 157.927 169.574 159.213 170.357Z" fill="#FCEBDA"/>
<path d="M162.633 172.64C163.615 172.533 164.48 173.069 164.564 173.838C164.648 174.607 163.526 175.831 162.543 175.938C161.56 176.046 160.747 175.973 160.663 175.204C160.579 174.435 161.65 172.748 162.633 172.64Z" fill="#FCEBDA"/>
<path d="M155.002 166.716C155.645 167.107 155.932 168.784 155.439 169.673C154.946 170.562 154.413 171.203 153.77 170.811C153.127 170.419 152.452 168.506 152.945 167.617C153.438 166.728 154.359 166.324 155.002 166.716Z" fill="#FCEBDA"/>
<path d="M158.972 165.893C159.543 166.391 159.554 168.092 158.923 168.88C158.293 169.668 157.663 170.204 157.092 169.706C156.52 169.207 156.165 167.206 156.795 166.417C157.426 165.629 158.4 165.394 158.972 165.893Z" fill="#FCEBDA"/>
<path d="M161.719 168.296C162.658 167.984 163.607 168.328 163.838 169.065C164.069 169.802 163.21 171.238 162.27 171.551C161.33 171.863 160.52 171.963 160.289 171.226C160.058 170.489 160.779 168.608 161.719 168.296Z" fill="#FCEBDA"/>
<path d="M159.94 141.67C161.427 141.67 162.633 143.424 162.633 144.966L162.632 144.967C163.986 145.521 164.878 146.583 164.878 148.225C164.877 150.795 161.765 151.017 159.97 150.086C157.696 150.551 155.003 150.795 155.002 148.225C155.003 146.6 155.899 145.541 157.247 144.982C157.247 144.977 157.247 144.971 157.247 144.966C157.247 143.424 158.453 141.67 159.94 141.67Z" fill="#FCEBDA"/>
<path d="M163.991 141.844C164.789 141.234 165.794 141.242 166.235 141.863C166.676 142.484 166.292 144.133 165.494 144.743C164.696 145.353 163.958 145.718 163.516 145.098C163.075 144.477 163.193 142.454 163.991 141.844Z" fill="#FCEBDA"/>
<path d="M154.553 140.739C155.296 140.739 156.349 142.038 156.349 143.066C156.349 144.094 156.195 144.929 155.451 144.929C154.707 144.928 153.207 143.63 153.206 142.601C153.206 141.573 153.809 140.739 154.553 140.739Z" fill="#FCEBDA"/>
<path d="M157.591 137.937C158.324 138.068 159.149 139.532 158.981 140.546C158.814 141.559 158.526 142.354 157.793 142.224C157.06 142.093 155.793 140.55 155.961 139.537C156.128 138.523 156.858 137.807 157.591 137.937Z" fill="#FCEBDA"/>
<path d="M161.118 138.569C161.781 137.804 162.766 137.603 163.32 138.118C163.873 138.633 163.818 140.328 163.155 141.093C162.492 141.857 161.839 142.371 161.286 141.855C160.733 141.339 160.455 139.333 161.118 138.569Z" fill="#FCEBDA"/>
<path d="M183.907 127.739C185.3 128.286 185.843 130.372 185.327 131.816L185.326 131.817C186.408 132.834 186.888 134.155 186.339 135.693C185.478 138.1 182.489 137.163 181.119 135.632C178.834 135.232 176.231 134.47 177.09 132.063C177.634 130.541 178.828 129.879 180.277 129.851C180.279 129.846 180.281 129.841 180.282 129.836C180.799 128.392 182.515 127.193 183.907 127.739Z" fill="#FCEBDA"/>
<path d="M187.643 129.391C188.594 129.114 189.533 129.491 189.738 130.234C189.944 130.977 189.032 132.381 188.081 132.659C187.129 132.937 186.315 133.007 186.11 132.264C185.904 131.521 186.691 129.67 187.643 129.391Z" fill="#FCEBDA"/>
<path d="M179.174 124.887C179.871 125.161 180.421 126.764 180.077 127.727C179.733 128.69 179.31 129.414 178.613 129.141C177.917 128.868 176.946 127.1 177.29 126.137C177.634 125.174 178.478 124.614 179.174 124.887Z" fill="#FCEBDA"/>
<path d="M182.957 123.38C183.6 123.772 183.882 125.447 183.386 126.334C182.89 127.222 182.354 127.86 181.712 127.469C181.069 127.077 180.399 125.167 180.895 124.279C181.391 123.392 182.314 122.989 182.957 123.38Z" fill="#FCEBDA"/>
<path d="M186.049 125.268C186.925 124.796 187.916 124.969 188.261 125.655C188.607 126.341 187.988 127.908 187.112 128.381C186.235 128.853 185.452 129.094 185.106 128.408C184.761 127.721 185.172 125.741 186.049 125.268Z" fill="#FCEBDA"/>
<path d="M13.4781 85.1162C14.9652 85.1165 16.1715 86.8704 16.1721 88.4125L16.171 88.4137C17.5248 88.968 18.4161 90.0296 18.4165 91.6714C18.416 94.2416 15.3037 94.4634 13.5082 93.5326C11.2342 93.998 8.54126 94.2415 8.54088 91.6714C8.54126 90.0464 9.43723 88.9876 10.7853 88.4287C10.7852 88.4235 10.7853 88.4178 10.7853 88.4125C10.7858 86.8705 11.9912 85.1167 13.4781 85.1162Z" fill="#FCEBDA"/>
<path d="M17.5292 85.2906C18.3273 84.6807 19.3322 84.689 19.7736 85.3093C20.2149 85.9301 19.831 87.5794 19.0327 88.1895C18.2345 88.7994 17.4962 89.1649 17.055 88.5445C16.6138 87.9238 16.7313 85.901 17.5292 85.2906Z" fill="#FCEBDA"/>
<path d="M8.09135 84.1856C8.83503 84.1856 9.88708 85.4845 9.8873 86.5127C9.8873 87.541 9.73309 88.3751 8.98933 88.3751C8.24566 88.375 6.74538 87.0762 6.74493 86.048C6.74493 85.0199 7.34772 84.1858 8.09135 84.1856Z" fill="#FCEBDA"/>
<path d="M11.1294 81.3838C11.8625 81.5141 12.6874 82.979 12.5199 83.9925C12.3524 85.0058 12.0646 85.8008 11.3316 85.6706C10.5986 85.54 9.332 83.9968 9.49908 82.9834C9.66659 81.9699 10.3963 81.2536 11.1294 81.3838Z" fill="#FCEBDA"/>
<path d="M14.6568 82.0155C15.3197 81.2509 16.3051 81.0491 16.8582 81.5645C17.4111 82.08 17.3563 83.7745 16.6936 84.5394C16.0306 85.304 15.3776 85.8174 14.8246 85.3018C14.2717 84.7856 13.9939 82.7799 14.6568 82.0155Z" fill="#FCEBDA"/>
<path d="M33.2164 101.863C34.4054 102.799 34.3651 104.961 33.482 106.194L33.4804 106.194C34.2454 107.49 34.3499 108.899 33.4095 110.212C31.9366 112.267 29.3208 110.486 28.4183 108.612C26.3333 107.553 24.0404 106.053 25.5126 103.997C26.444 102.698 27.7671 102.415 29.1652 102.817C29.1682 102.813 29.1715 102.808 29.1745 102.804C30.0584 101.571 32.0272 100.927 33.2164 101.863Z" fill="#FCEBDA"/>
<path d="M36.3559 104.552C37.3435 104.566 38.1423 105.205 38.1399 105.979C38.137 106.753 36.8851 107.831 35.8972 107.816C34.9095 107.801 34.1097 107.629 34.1123 106.855C34.1152 106.081 35.3681 104.538 36.3559 104.552Z" fill="#FCEBDA"/>
<path d="M29.4422 97.7284C30.0368 98.1964 30.1339 99.8972 29.545 100.72C28.9558 101.542 28.3546 102.112 27.7598 101.644C27.1652 101.176 26.7097 99.1927 27.2985 98.3703C27.8875 97.5481 28.8474 97.2606 29.4422 97.7284Z" fill="#FCEBDA"/>
<path d="M33.4768 97.4001C33.9883 97.9656 33.8087 99.6561 33.094 100.361C32.3795 101.066 31.6938 101.521 31.1824 100.955C30.671 100.389 30.5424 98.3583 31.2566 97.6531C31.9712 96.9481 32.9652 96.8345 33.4768 97.4001Z" fill="#FCEBDA"/>
<path d="M35.9355 100.125C36.9036 99.9309 37.8071 100.39 37.9542 101.15C38.101 101.91 37.0862 103.231 36.1181 103.425C35.1499 103.619 34.3336 103.619 34.1867 102.859C34.0405 102.098 34.9674 100.319 35.9355 100.125Z" fill="#FCEBDA"/>
<path d="M59.7291 92.1854C61.2161 92.1856 62.4225 93.9396 62.423 95.4817L62.422 95.4829C63.7758 96.0372 64.6671 97.0988 64.6674 98.7406C64.667 101.311 61.5547 101.533 59.7592 100.602C57.4852 101.067 54.7922 101.311 54.7919 98.7406C54.7922 97.1156 55.6882 96.0568 57.0363 95.4979C57.0362 95.4926 57.0363 95.487 57.0363 95.4817C57.0368 93.9397 58.2422 92.1858 59.7291 92.1854Z" fill="#FCEBDA"/>
<path d="M63.7802 92.3598C64.5783 91.7499 65.5832 91.7582 66.0246 92.3784C66.4659 92.9993 66.0819 94.6486 65.2837 95.2587C64.4855 95.8686 63.7472 96.2341 63.306 95.6137C62.8648 94.993 62.9823 92.9702 63.7802 92.3598Z" fill="#FCEBDA"/>
<path d="M54.3423 91.2548C55.086 91.2548 56.1381 92.5536 56.1383 93.5819C56.1383 94.6101 55.9841 95.4443 55.2403 95.4443C54.4966 95.4442 52.9964 94.1454 52.9959 93.1172C52.9959 92.089 53.5987 91.255 54.3423 91.2548Z" fill="#FCEBDA"/>
<path d="M57.3804 88.453C58.1135 88.5833 58.9384 90.0482 58.7709 91.0617C58.6034 92.075 58.3155 92.87 57.5826 92.7397C56.8496 92.6092 55.583 91.066 55.7501 90.0526C55.9176 89.0391 56.6473 88.3228 57.3804 88.453Z" fill="#FCEBDA"/>
<path d="M60.9078 89.0846C61.5707 88.3201 62.556 88.1183 63.1091 88.6337C63.6621 89.1492 63.6072 90.8437 62.9446 91.6086C62.2816 92.3732 61.6286 92.8866 61.0755 92.371C60.5227 91.8547 60.2449 89.8491 60.9078 89.0846Z" fill="#FCEBDA"/>
<path d="M83.8858 81.3809C85.228 82.0519 85.5966 84.1793 84.9638 85.5715L84.9623 85.5721C85.9568 86.6831 86.3253 88.0434 85.6514 89.5255C84.5956 91.8452 81.6952 90.6416 80.4567 88.9915C78.213 88.3858 75.6822 87.3908 76.7373 85.0708C77.405 83.6042 78.6485 83.0526 80.0948 83.1562C80.0969 83.1514 80.0993 83.1463 80.1015 83.1416C80.7352 81.75 82.5435 80.7106 83.8858 81.3809Z" fill="#FCEBDA"/>
<path d="M87.4709 83.3657C88.4417 83.1752 89.3453 83.636 89.4891 84.395C89.6324 85.1544 88.6086 86.47 87.6375 86.6606C86.6666 86.8511 85.8501 86.848 85.7065 86.0889C85.5632 85.3296 86.5 83.5568 87.4709 83.3657Z" fill="#FCEBDA"/>
<path d="M79.4057 78.111C80.0769 78.4465 80.4931 80.0934 80.0711 81.0217C79.6488 81.9498 79.1671 82.6332 78.4957 82.2977C77.8245 81.9621 77.0037 80.113 77.4255 79.1847C77.8477 78.2567 78.7343 77.7757 79.4057 78.111Z" fill="#FCEBDA"/>
<path d="M83.2985 76.9525C83.9067 77.4007 84.0498 79.0951 83.4824 79.9344C82.915 80.7734 82.3287 81.3612 81.7206 80.913C81.1126 80.4645 80.603 78.5002 81.17 77.6609C81.7374 76.8216 82.6903 76.5042 83.2985 76.9525Z" fill="#FCEBDA"/>
<path d="M86.2231 79.1137C87.1354 78.7226 88.1077 78.985 88.3953 79.6997C88.6827 80.4144 87.9373 81.9192 87.0251 82.3107C86.1126 82.7018 85.3124 82.8707 85.0249 82.1558C84.7379 81.4404 85.3108 79.5048 86.2231 79.1137Z" fill="#FCEBDA"/>
<path d="M136.765 52.0322C138.14 52.6264 138.617 54.7298 138.057 56.1557L138.056 56.1564C139.106 57.2097 139.544 58.5471 138.947 60.0652C138.012 62.4412 135.054 61.4032 133.732 59.8255C131.461 59.3474 128.883 58.4969 129.817 56.1207C130.408 54.6184 131.621 53.9974 133.071 54.0191C133.073 54.0143 133.075 54.009 133.077 54.0041C133.638 52.5787 135.39 51.4387 136.765 52.0322Z" fill="#FCEBDA"/>
<path d="M140.447 53.8115C141.407 53.5664 142.333 53.9755 142.515 54.7252C142.697 55.4755 141.743 56.847 140.783 57.0922C139.823 57.3373 139.008 57.3803 138.825 56.6305C138.643 55.8804 139.487 54.0572 140.447 53.8115Z" fill="#FCEBDA"/>
<path d="M132.123 49.0202C132.811 49.3172 133.311 50.9383 132.937 51.889C132.563 52.8397 132.118 53.5493 131.43 53.2522C130.742 52.9551 129.828 51.155 130.201 50.2043C130.575 49.2537 131.436 48.7234 132.123 49.0202Z" fill="#FCEBDA"/>
<path d="M135.951 47.6434C136.581 48.0566 136.811 49.7404 136.288 50.6105C135.764 51.4805 135.209 52.1005 134.579 51.6873C133.949 51.2739 133.339 49.3412 133.862 48.471C134.385 47.6009 135.32 47.2301 135.951 47.6434Z" fill="#FCEBDA"/>
<path d="M138.982 49.6362C139.873 49.1942 140.857 49.4012 141.181 50.0986C141.505 50.796 140.838 52.3407 139.948 52.7832C139.057 53.2254 138.266 53.4392 137.942 52.7416C137.619 52.0435 138.091 50.0782 138.982 49.6362Z" fill="#FCEBDA"/>
<path d="M156.085 29.5727C157.572 29.5729 158.779 31.3269 158.779 32.869L158.778 32.8702C160.132 33.4245 161.023 34.4861 161.024 36.1279C161.023 38.698 157.911 38.9199 156.115 37.9891C153.841 38.4545 151.148 38.6979 151.148 36.1279C151.148 34.5029 152.044 33.4441 153.392 32.8852C153.392 32.88 153.392 32.8743 153.392 32.869C153.393 31.327 154.598 29.5731 156.085 29.5727Z" fill="#FCEBDA"/>
<path d="M160.136 29.7471C160.934 29.1372 161.939 29.1455 162.381 29.7658C162.822 30.3866 162.438 32.0359 161.64 32.646C160.842 33.2559 160.103 33.6214 159.662 33.001C159.221 32.3803 159.339 30.3575 160.136 29.7471Z" fill="#FCEBDA"/>
<path d="M150.699 28.6421C151.442 28.6421 152.494 29.9409 152.494 30.9692C152.494 31.9974 152.34 32.8316 151.597 32.8316C150.853 32.8315 149.353 31.5327 149.352 30.5045C149.352 29.4763 149.955 28.6423 150.699 28.6421Z" fill="#FCEBDA"/>
<path d="M153.737 25.8403C154.47 25.9706 155.295 27.4355 155.127 28.449C154.96 29.4623 154.672 30.2573 153.939 30.127C153.206 29.9965 151.939 28.4533 152.106 27.4399C152.274 26.4264 153.004 25.7101 153.737 25.8403Z" fill="#FCEBDA"/>
<path d="M157.264 26.4719C157.927 25.7074 158.912 25.5056 159.465 26.021C160.018 26.5365 159.963 28.231 159.301 28.9959C158.638 29.7605 157.985 30.2739 157.432 29.7583C156.879 29.242 156.601 27.2364 157.264 26.4719Z" fill="#FCEBDA"/>
<path d="M171.087 11.7191C172.394 12.4627 172.656 14.6073 171.955 15.963L171.953 15.9635C172.891 17.1275 173.191 18.506 172.444 19.9493C171.274 22.208 168.438 20.8473 167.283 19.1317C165.073 18.4041 162.595 17.272 163.764 15.0129C164.504 13.5848 165.773 13.102 167.213 13.2846C167.215 13.28 167.218 13.275 167.22 13.2704C167.922 11.9153 169.78 10.9763 171.087 11.7191Z" fill="#FCEBDA"/>
<path d="M174.701 13.5326C175.683 13.4197 176.55 13.9509 176.639 14.7192C176.727 15.4878 175.611 16.7183 174.629 16.8312C173.647 16.9441 172.833 16.8761 172.745 16.1079C172.657 15.3394 173.719 13.646 174.701 13.5326Z" fill="#FCEBDA"/>
<path d="M166.195 8.51911C166.899 8.77108 167.493 10.3567 167.177 11.3297C166.859 12.3028 166.456 13.0399 165.752 12.7879C165.049 12.5359 164.03 10.7985 164.346 9.82537C164.663 8.85242 165.491 8.26735 166.195 8.51911Z" fill="#FCEBDA"/>
<path d="M170.239 7.34766C170.804 7.85473 170.792 9.55569 170.151 10.3344C169.51 11.1128 168.872 11.6393 168.308 11.1323C167.744 10.625 167.415 8.61872 168.056 7.8399C168.697 7.06124 169.675 6.84061 170.239 7.34766Z" fill="#FCEBDA"/>
<path d="M173.6 9.64001C174.529 9.29443 175.489 9.60448 175.744 10.3326C175.999 11.0607 175.187 12.527 174.258 12.8731C173.329 13.2187 172.522 13.3478 172.267 12.6195C172.012 11.8908 172.671 9.98556 173.6 9.64001Z" fill="#FCEBDA"/>
<path d="M185.956 30.5825C187.443 30.5828 188.649 32.3368 188.65 33.8789L188.649 33.8801C190.002 34.4344 190.894 35.496 190.894 37.1378C190.894 39.7079 187.781 39.9298 185.986 38.999C183.712 39.4644 181.019 39.7078 181.018 37.1378C181.019 35.5128 181.915 34.454 183.263 33.8951C183.263 33.8898 183.263 33.8841 183.263 33.8789C183.263 32.3369 184.469 30.583 185.956 30.5825Z" fill="#FCEBDA"/>
<path d="M190.007 30.757C190.805 30.1471 191.81 30.1554 192.251 30.7756C192.693 31.3965 192.309 33.0458 191.51 33.6559C190.712 34.2658 189.974 34.6313 189.533 34.0109C189.091 33.3902 189.209 31.3674 190.007 30.757Z" fill="#FCEBDA"/>
<path d="M180.569 29.652C181.313 29.652 182.365 30.9508 182.365 31.9791C182.365 33.0073 182.211 33.8415 181.467 33.8415C180.723 33.8414 179.223 32.5425 179.223 31.5144C179.223 30.4862 179.825 29.6521 180.569 29.652Z" fill="#FCEBDA"/>
<path d="M183.607 26.8502C184.34 26.9805 185.165 28.4454 184.998 29.4589C184.83 30.4722 184.542 31.2672 183.809 31.1369C183.076 31.0064 181.81 29.4632 181.977 28.4498C182.144 27.4363 182.874 26.7199 183.607 26.8502Z" fill="#FCEBDA"/>
<path d="M187.134 27.4818C187.797 26.7173 188.783 26.5155 189.336 27.0308C189.889 27.5464 189.834 29.2409 189.171 30.0057C188.508 30.7704 187.855 31.2838 187.302 30.7682C186.749 30.2519 186.472 28.2463 187.134 27.4818Z" fill="#FCEBDA"/>
<path d="M195.221 12.1013C196.345 13.1217 196.161 15.2753 195.198 16.4414L195.197 16.4416C195.874 17.7895 195.885 19.2035 194.86 20.4449C193.254 22.3876 190.763 20.4201 189.987 18.4846C187.977 17.2763 185.789 15.6128 187.394 13.6697C188.409 12.4414 189.748 12.2557 191.116 12.758C191.119 12.754 191.123 12.7498 191.126 12.7458C192.09 11.5804 194.096 11.0815 195.221 12.1013Z" fill="#FCEBDA"/>
<path d="M198.174 15.0124C199.158 15.0989 199.913 15.7946 199.859 16.5664C199.805 17.3384 198.485 18.3219 197.5 18.2354C196.516 18.1489 195.729 17.9187 195.783 17.147C195.837 16.3751 197.19 14.9265 198.174 15.0124Z" fill="#FCEBDA"/>
<path d="M191.73 7.7021C192.292 8.21231 192.276 9.91601 191.634 10.6935C190.992 11.4708 190.354 11.9956 189.792 11.4854C189.23 10.9751 188.907 8.96391 189.548 8.18633C190.191 7.40906 191.167 7.19207 191.73 7.7021Z" fill="#FCEBDA"/>
<path d="M195.776 7.66835C196.249 8.26976 195.958 9.94315 195.198 10.5944C194.438 11.2455 193.724 11.649 193.252 11.0477C192.779 10.4462 192.785 8.41057 193.545 7.75908C194.304 7.10782 195.303 7.06695 195.776 7.66835Z" fill="#FCEBDA"/>
<path d="M198.048 10.5658C199.027 10.4427 199.898 10.9661 199.994 11.7352C200.09 12.5043 198.99 13.7476 198.012 13.8713C197.033 13.9945 196.219 13.9346 196.123 13.1653C196.027 12.3958 197.07 10.689 198.048 10.5658Z" fill="#FCEBDA"/>
<path d="M158.976 61.8889C160.463 61.8892 161.669 63.6432 161.67 65.1852L161.669 65.1865C163.023 65.7407 163.914 66.8024 163.914 68.4442C163.914 71.0143 160.802 71.2361 159.006 70.3053C156.732 70.7707 154.039 71.0142 154.039 68.4442C154.039 66.8192 154.935 65.7604 156.283 65.2014C156.283 65.1962 156.283 65.1905 156.283 65.1852C156.284 63.6432 157.489 61.8894 158.976 61.8889Z" fill="#FCEBDA"/>
<path d="M163.027 62.0633C163.825 61.4534 164.83 61.4617 165.272 62.082C165.713 62.7028 165.329 64.3521 164.531 64.9622C163.732 65.5722 162.994 65.9376 162.553 65.3173C162.112 64.6965 162.229 62.6738 163.027 62.0633Z" fill="#FCEBDA"/>
<path d="M153.589 60.9583C154.333 60.9583 155.385 62.2572 155.385 63.2854C155.385 64.3137 155.231 65.1478 154.487 65.1478C153.744 65.1477 152.243 63.8489 152.243 62.8207C152.243 61.7926 152.846 60.9585 153.589 60.9583Z" fill="#FCEBDA"/>
<path d="M156.627 58.1566C157.36 58.2868 158.185 59.7517 158.018 60.7652C157.85 61.7785 157.562 62.5735 156.829 62.4433C156.096 62.3127 154.83 60.7695 154.997 59.7561C155.164 58.7426 155.894 58.0263 156.627 58.1566Z" fill="#FCEBDA"/>
<path d="M160.155 58.7882C160.818 58.0236 161.803 57.8218 162.356 58.3372C162.909 58.8527 162.854 60.5472 162.192 61.3121C161.528 62.0768 160.876 62.5901 160.322 62.0745C159.77 61.5583 159.492 59.5526 160.155 58.7882Z" fill="#FCEBDA"/>
<path d="M189.81 69.968C191.297 69.9682 192.503 71.7222 192.504 73.2643L192.503 73.2655C193.857 73.8198 194.748 74.8814 194.748 76.5232C194.748 79.0933 191.636 79.3152 189.84 78.3844C187.566 78.8498 184.873 79.0932 184.873 76.5232C184.873 74.8982 185.769 73.8394 187.117 73.2805C187.117 73.2752 187.117 73.2695 187.117 73.2643C187.118 71.7223 188.323 69.9684 189.81 69.968Z" fill="#FCEBDA"/>
<path d="M193.861 70.1424C194.659 69.5325 195.664 69.5408 196.106 70.161C196.547 70.7819 196.163 72.4312 195.365 73.0413C194.566 73.6512 193.828 74.0167 193.387 73.3963C192.946 72.7756 193.063 70.7528 193.861 70.1424Z" fill="#FCEBDA"/>
<path d="M184.423 69.0374C185.167 69.0374 186.219 70.3362 186.219 71.3645C186.219 72.3927 186.065 73.2269 185.321 73.2269C184.578 73.2268 183.077 71.928 183.077 70.8998C183.077 69.8716 183.68 69.0376 184.423 69.0374Z" fill="#FCEBDA"/>
<path d="M187.461 66.2356C188.194 66.3659 189.019 67.8308 188.852 68.8443C188.684 69.8576 188.396 70.6526 187.663 70.5223C186.93 70.3918 185.664 68.8486 185.831 67.8352C185.998 66.8217 186.728 66.1054 187.461 66.2356Z" fill="#FCEBDA"/>
<path d="M190.989 66.8672C191.652 66.1027 192.637 65.9009 193.19 66.4163C193.743 66.9318 193.688 68.6263 193.026 69.3912C192.363 70.1558 191.71 70.6692 191.156 70.1536C190.604 69.6373 190.326 67.6317 190.989 66.8672Z" fill="#FCEBDA"/>
<path d="M144.523 80.0668C146.01 80.0671 147.216 81.821 147.216 83.3631L147.215 83.3643C148.569 83.9186 149.461 84.9802 149.461 86.622C149.46 89.1921 146.348 89.414 144.553 88.4832C142.279 88.9486 139.586 89.1921 139.585 86.622C139.586 84.997 140.482 83.9382 141.83 83.3793C141.83 83.3741 141.83 83.3684 141.83 83.3631C141.83 81.8211 143.036 80.0673 144.523 80.0668Z" fill="#FCEBDA"/>
<path d="M148.574 80.2412C149.372 79.6313 150.377 79.6396 150.818 80.2599C151.259 80.8807 150.875 82.53 150.077 83.1401C149.279 83.75 148.541 84.1155 148.099 83.4951C147.658 82.8744 147.776 80.8516 148.574 80.2412Z" fill="#FCEBDA"/>
<path d="M139.136 79.1362C139.879 79.1362 140.932 80.4351 140.932 81.4633C140.932 82.4916 140.778 83.3257 140.034 83.3257C139.29 83.3256 137.79 82.0268 137.789 80.9986C137.789 79.9704 138.392 79.1364 139.136 79.1362Z" fill="#FCEBDA"/>
<path d="M142.174 76.3344C142.907 76.4647 143.732 77.9296 143.564 78.9431C143.397 79.9564 143.109 80.7514 142.376 80.6211C141.643 80.4906 140.376 78.9474 140.544 77.934C140.711 76.9205 141.441 76.2042 142.174 76.3344Z" fill="#FCEBDA"/>
<path d="M145.701 76.966C146.364 76.2015 147.349 75.9997 147.903 76.5151C148.456 77.0306 148.401 78.7251 147.738 79.49C147.075 80.2546 146.422 80.768 145.869 80.2524C145.316 79.7362 145.038 77.7305 145.701 76.966Z" fill="#FCEBDA"/>
<path d="M173.418 84.3674C174.783 84.9862 175.226 87.0979 174.642 88.5136L174.641 88.5143C175.674 89.5862 176.09 90.9313 175.468 92.4384C174.495 94.7973 171.554 93.7063 170.258 92.1051C167.995 91.5864 165.431 90.6896 166.404 88.3305C167.019 86.8392 168.243 86.24 169.692 86.2877C169.694 86.2829 169.696 86.2777 169.698 86.2729C170.282 84.8578 172.053 83.7493 173.418 84.3674Z" fill="#FCEBDA"/>
<path d="M177.07 86.2126C178.034 85.9848 178.953 86.4104 179.123 87.1634C179.293 87.9167 178.316 89.2709 177.352 89.4988C176.389 89.7266 175.573 89.755 175.403 89.002C175.233 88.2488 176.107 86.441 177.07 86.2126Z" fill="#FCEBDA"/>
<path d="M168.826 81.2725C169.508 81.5819 169.982 83.2117 169.593 84.1556C169.204 85.0994 168.746 85.8009 168.064 85.4915C167.381 85.1821 166.496 83.3658 166.885 82.4219C167.274 81.4782 168.143 80.9634 168.826 81.2725Z" fill="#FCEBDA"/>
<path d="M172.675 79.9646C173.299 80.3891 173.501 82.0769 172.964 82.9374C172.426 83.7978 171.861 84.4078 171.238 83.9834C170.614 83.5587 170.036 81.6153 170.573 80.7547C171.111 79.8941 172.052 79.5401 172.675 79.9646Z" fill="#FCEBDA"/>
<path d="M175.674 82.0116C176.572 81.5856 177.553 81.8103 177.865 82.5134C178.178 83.2166 177.485 84.7491 176.588 85.1755C175.689 85.6016 174.896 85.8012 174.583 85.0978C174.271 84.3941 174.776 82.4376 175.674 82.0116Z" fill="#FCEBDA"/>
<path d="M54.9856 114.408C56.4719 114.456 57.6264 116.248 57.5818 117.789L57.5807 117.791C58.9177 118.388 59.7775 119.478 59.7298 121.119C59.6542 123.688 56.5369 123.809 54.7695 122.821C52.4829 123.214 49.7841 123.37 49.8589 120.802C49.9068 119.177 50.8333 118.148 52.1971 117.632C52.1972 117.627 52.1974 117.622 52.1976 117.616C52.2432 116.075 53.4994 114.361 54.9856 114.408Z" fill="#FCEBDA"/>
<path d="M59.0297 114.713C59.8452 114.129 60.8494 114.169 61.2725 114.803C61.6953 115.438 61.2634 117.074 60.4476 117.658C59.632 118.242 58.8834 118.584 58.4604 117.95C58.0376 117.315 58.2143 115.297 59.0297 114.713Z" fill="#FCEBDA"/>
<path d="M49.6285 113.305C50.3719 113.329 51.3854 114.661 51.3556 115.688C51.3255 116.716 51.147 117.545 50.4035 117.521C49.6602 117.497 48.1987 116.151 48.2283 115.123C48.2584 114.095 48.8853 113.281 49.6285 113.305Z" fill="#FCEBDA"/>
<path d="M52.7471 110.602C53.4761 110.756 54.2578 112.246 54.0607 113.254C53.8636 114.262 53.5526 115.047 52.8238 114.893C52.095 114.739 50.8741 113.156 51.0708 112.148C51.2679 111.141 52.0182 110.448 52.7471 110.602Z" fill="#FCEBDA"/>
<path d="M56.2544 111.347C56.9394 110.604 57.9301 110.434 58.4679 110.967C59.0055 111.5 58.9011 113.192 58.2164 113.935C57.5314 114.678 56.8637 115.17 56.3259 114.637C55.7885 114.103 55.5695 112.089 56.2544 111.347Z" fill="#FCEBDA"/>
<path d="M65.8441 43.1807C67.0923 44.0278 67.1957 46.1872 66.3967 47.4821L66.3951 47.4825C67.2443 48.7189 67.4422 50.1176 66.5913 51.4961C65.2585 53.6535 62.5307 52.0673 61.5059 50.2635C59.3556 49.3591 56.9687 48.03 58.3008 45.8722C59.1435 44.5082 60.4446 44.1296 61.8661 44.428C61.8688 44.4237 61.8717 44.4189 61.8745 44.4144C62.6743 43.1203 64.5956 42.3344 65.8441 43.1807Z" fill="#FCEBDA"/>
<path d="M69.1545 45.6341C70.1407 45.5766 70.98 46.1559 71.029 46.928C71.0776 47.7004 69.9002 48.8664 68.9138 48.924C67.9275 48.9815 67.1183 48.8679 67.0694 48.0958C67.0209 47.3234 68.1682 45.6922 69.1545 45.6341Z" fill="#FCEBDA"/>
<path d="M61.8043 39.3318C62.4286 39.7553 62.6384 41.4449 62.1056 42.3082C61.5725 43.1714 61.0105 43.7839 60.3862 43.3603C59.7619 42.9367 59.1758 40.992 59.7084 40.1286C60.2415 39.2654 61.1799 38.9085 61.8043 39.3318Z" fill="#FCEBDA"/>
<path d="M65.8073 38.7099C66.3552 39.2367 66.2883 40.9363 65.6222 41.6917C64.9562 42.447 64.3024 42.9505 63.7546 42.4237C63.2069 41.8967 62.9437 39.8799 63.6093 39.1243C64.2754 38.3688 65.2594 38.1831 65.8073 38.7099Z" fill="#FCEBDA"/>
<path d="M68.4411 41.2489C69.394 40.9846 70.3258 41.3763 70.5229 42.1239C70.7199 42.8716 69.7953 44.2629 68.8425 44.5276C67.8895 44.792 67.0752 44.8511 66.8782 44.1033C66.6817 43.3551 67.4883 41.5132 68.4411 41.2489Z" fill="#FCEBDA"/>
<path d="M13.4781 58.8592C14.9652 58.8595 16.1715 60.6135 16.1721 62.1556L16.171 62.1568C17.5248 62.7111 18.4161 63.7727 18.4165 65.4145C18.416 67.9846 15.3037 68.2065 13.5082 67.2757C11.2342 67.7411 8.54126 67.9845 8.54088 65.4145C8.54126 63.7895 9.43723 62.7307 10.7853 62.1718C10.7852 62.1665 10.7853 62.1608 10.7853 62.1556C10.7858 60.6136 11.9912 58.8597 13.4781 58.8592Z" fill="#FCEBDA"/>
<path d="M17.5292 59.0337C18.3273 58.4238 19.3322 58.4321 19.7736 59.0523C20.2149 59.6732 19.831 61.3225 19.0327 61.9326C18.2345 62.5425 17.4962 62.908 17.055 62.2876C16.6138 61.6669 16.7313 59.6441 17.5292 59.0337Z" fill="#FCEBDA"/>
<path d="M8.09135 57.9287C8.83503 57.9287 9.88708 59.2275 9.8873 60.2558C9.8873 61.284 9.73309 62.1182 8.98933 62.1182C8.24566 62.1181 6.74538 60.8192 6.74493 59.7911C6.74493 58.7629 7.34772 57.9288 8.09135 57.9287Z" fill="#FCEBDA"/>
<path d="M11.1294 55.1269C11.8625 55.2572 12.6874 56.7221 12.5199 57.7356C12.3524 58.7489 12.0646 59.5439 11.3316 59.4136C10.5986 59.2831 9.332 57.7399 9.49908 56.7265C9.66659 55.713 10.3963 54.9966 11.1294 55.1269Z" fill="#FCEBDA"/>
<path d="M14.6568 55.7585C15.3197 54.994 16.3051 54.7922 16.8582 55.3075C17.4111 55.8231 17.3563 57.5176 16.6936 58.2825C16.0306 59.0471 15.3776 59.5605 14.8246 59.0449C14.2717 58.5286 13.9939 56.523 14.6568 55.7585Z" fill="#FCEBDA"/>
<path d="M83.8162 4.59177C85.1783 5.21694 85.6124 7.33072 85.0229 8.7436L85.0215 8.74429C86.0497 9.82104 86.46 11.1681 85.8322 12.6723C84.8485 15.0266 81.9125 13.9219 80.6238 12.3146C78.3625 11.7853 75.8024 10.8767 76.7853 8.52211C77.4073 7.03363 78.6332 6.44021 80.082 6.49467C80.0839 6.48987 80.0862 6.48467 80.0882 6.47983C80.6786 5.06747 82.4538 3.96734 83.8162 4.59177Z" fill="#FCEBDA"/>
<path d="M87.4606 6.454C88.4251 6.2307 89.3424 6.66059 89.5096 7.41432C89.6763 8.16848 88.6935 9.51809 87.7288 9.74149C86.7643 9.96482 85.9482 9.9894 85.7813 9.23562C85.6146 8.48159 86.4961 6.67792 87.4606 6.454Z" fill="#FCEBDA"/>
<path d="M79.2374 1.47549C79.9187 1.78801 80.3856 3.42002 79.9924 4.36206C79.599 5.30406 79.1386 6.00341 78.4572 5.69085C77.776 5.37823 76.8985 3.55789 77.2915 2.61581C77.6848 1.67392 78.5561 1.16316 79.2374 1.47549Z" fill="#FCEBDA"/>
<path d="M83.0925 0.18557C83.7142 0.612982 83.9095 2.30162 83.3683 3.15969C82.8271 4.01756 82.2593 4.6249 81.6377 4.19754C81.0161 3.76994 80.4462 1.82394 80.987 0.96578C81.5282 0.107723 82.4707 -0.241826 83.0925 0.18557Z" fill="#FCEBDA"/>
<path d="M86.0822 2.24655C86.982 1.82475 87.9619 2.05398 88.2714 2.75854C88.5807 3.46318 87.8822 4.99243 86.9825 5.41468C86.0826 5.83654 85.288 6.03243 84.9786 5.32764C84.6697 4.62241 85.1825 2.66831 86.0822 2.24655Z" fill="#FCEBDA"/>
<path d="M90.4445 32.691C91.9019 33.0008 92.7519 34.9709 92.4602 36.4824L92.4589 36.4834C93.6808 37.3084 94.3531 38.5343 94.0424 40.1435C93.555 42.6624 90.4627 42.232 88.8793 40.9461C86.5624 40.9289 83.877 40.6071 84.3635 38.0881C84.6718 36.4956 85.7506 35.6443 87.1777 35.3771C87.1786 35.372 87.1797 35.3664 87.1807 35.3612C87.4734 33.8501 88.9871 32.382 90.4445 32.691Z" fill="#FCEBDA"/>
<path d="M93.7992 33.138C94.5973 32.5281 95.6021 32.5364 96.0436 33.1567C96.4848 33.7775 96.1009 35.4268 95.3026 36.0369C94.5045 36.6469 93.7662 37.0123 93.3249 36.3919C92.8838 35.7712 93.0013 33.7484 93.7992 33.138Z" fill="#FCEBDA"/>
<path d="M84.6623 30.8296C85.406 30.8296 86.458 32.1284 86.4582 33.1567C86.4582 34.185 86.304 35.0191 85.5603 35.0191C84.8166 35.019 83.3163 33.7202 83.3159 32.692C83.3159 31.6638 83.9186 30.8298 84.6623 30.8296Z" fill="#FCEBDA"/>
<path d="M88.0886 28.4043C88.8216 28.5346 89.6466 29.9995 89.4791 31.013C89.3116 32.0263 89.0237 32.8213 88.2907 32.691C87.5577 32.5605 86.2912 31.0173 86.4582 30.0039C86.6257 28.9904 87.3555 28.274 88.0886 28.4043Z" fill="#FCEBDA"/>
<path d="M92.4167 29.1896C93.3077 28.7476 94.292 28.9547 94.6159 29.6521C94.9397 30.3496 94.2727 31.8943 93.3819 32.3367C92.4908 32.7787 91.7004 32.9925 91.3766 32.2949C91.0533 31.5967 91.5259 29.6315 92.4167 29.1896Z" fill="#FCEBDA"/>
<path d="M90.4364 60.9608C91.8869 61.3038 92.6958 63.2929 92.3727 64.7973L92.3714 64.7983C93.5758 65.6511 94.2225 66.8921 93.8783 68.4938C93.3386 71.0009 90.256 70.5 88.6997 69.1781C86.3837 69.108 83.7056 68.7248 84.2445 66.2176C84.5858 64.6325 85.6821 63.8061 87.1144 63.5715C87.1154 63.5664 87.1167 63.5609 87.1178 63.5557C87.4419 62.0516 88.9858 60.6186 90.4364 60.9608Z" fill="#FCEBDA"/>
<path d="M94.8727 62.2483C95.7441 61.7611 96.7381 61.9162 97.0926 62.595C97.4469 63.2742 96.8472 64.8513 95.9755 65.3387C95.1039 65.8259 94.3243 66.0799 93.9699 65.401C93.6157 64.7219 94.0013 62.7361 94.8727 62.2483Z" fill="#FCEBDA"/>
<path d="M85.1763 58.9105C85.92 58.9105 86.972 60.2093 86.9723 61.2376C86.9723 62.2658 86.8181 63.1 86.0743 63.1C85.3306 63.0999 83.8304 61.8011 83.8299 60.7729C83.8299 59.7447 84.4327 58.9107 85.1763 58.9105Z" fill="#FCEBDA"/>
<path d="M89.3384 56.5772C90.0145 56.9016 90.45 58.5403 90.0382 59.4739C89.6264 60.4073 89.1522 61.0973 88.4763 60.7729C87.8004 60.4482 86.9576 58.6142 87.369 57.6806C87.7808 56.7469 88.6624 56.2527 89.3384 56.5772Z" fill="#FCEBDA"/>
<path d="M93.0131 58.6099C93.8958 58.1502 94.8837 58.3376 95.2203 59.0284C95.5567 59.7193 94.9179 61.277 94.0353 61.7372C93.1524 62.1969 92.3661 62.4265 92.0296 61.7354C91.6937 61.0439 92.1304 59.0696 93.0131 58.6099Z" fill="#FCEBDA"/>
<path d="M110.798 11.3948C112.285 11.3951 113.491 13.149 113.492 14.6911L113.491 14.6923C114.845 15.2466 115.736 16.3082 115.736 17.95C115.736 20.5202 112.623 20.742 110.828 19.8112C108.554 20.2766 105.861 20.5201 105.861 17.95C105.861 16.325 106.757 15.2662 108.105 14.7073C108.105 14.7021 108.105 14.6964 108.105 14.6911C108.106 13.1491 109.311 11.3953 110.798 11.3948Z" fill="#FCEBDA"/>
<path d="M114.849 11.5692C115.647 10.9593 116.652 10.9676 117.093 11.5879C117.535 12.2087 117.151 13.858 116.352 14.4681C115.554 15.078 114.816 15.4435 114.375 14.8231C113.934 14.2024 114.051 12.1796 114.849 11.5692Z" fill="#FCEBDA"/>
<path d="M105.411 10.4642C106.155 10.4642 107.207 11.7631 107.207 12.7913C107.207 13.8196 107.053 14.6537 106.309 14.6537C105.565 14.6536 104.065 13.3548 104.065 12.3266C104.065 11.2985 104.667 10.4644 105.411 10.4642Z" fill="#FCEBDA"/>
<path d="M108.449 7.66244C109.182 7.79272 110.007 9.25759 109.84 10.2711C109.672 11.2844 109.384 12.0794 108.651 11.9491C107.918 11.8186 106.652 10.2754 106.819 9.26202C106.986 8.24852 107.716 7.53219 108.449 7.66244Z" fill="#FCEBDA"/>
<path d="M111.977 8.29405C112.639 7.52951 113.625 7.32772 114.178 7.84308C114.731 8.35859 114.676 10.0531 114.013 10.818C113.35 11.5826 112.697 12.096 112.144 11.5804C111.592 11.0642 111.314 9.05853 111.977 8.29405Z" fill="#FCEBDA"/>
<path d="M128.87 28.5329C130.263 28.9574 130.918 31.018 130.5 32.5271L130.499 32.5281C131.617 33.4567 132.164 34.7499 131.719 36.3566C131.021 38.8715 128.045 38.2007 126.615 36.7776C124.358 36.5842 121.769 36.0542 122.466 33.5391C122.907 31.949 124.034 31.1685 125.448 31.0061C125.45 31.001 125.451 30.9955 125.453 30.9903C125.872 29.4815 127.477 28.1091 128.87 28.5329Z" fill="#FCEBDA"/>
<path d="M132.699 28.4797C133.594 28.0416 134.579 28.2519 134.899 28.9494C135.218 29.6474 134.539 31.1889 133.644 31.6271C132.749 32.0652 131.958 32.2754 131.638 31.5778C131.319 30.8799 131.805 28.9183 132.699 28.4797Z" fill="#FCEBDA"/>
<path d="M123.237 26.4364C123.981 26.4364 125.033 27.7353 125.033 28.7635C125.033 29.7918 124.879 30.626 124.135 30.626C123.391 30.6259 121.891 29.327 121.891 28.2989C121.891 27.2707 122.493 26.4366 123.237 26.4364Z" fill="#FCEBDA"/>
<path d="M126.97 24.2208C127.651 24.4518 128.186 25.9822 127.845 26.9348C127.505 27.8872 127.088 28.6119 126.406 28.3809C125.725 28.1497 124.78 26.4802 125.119 25.5276C125.46 24.5751 126.288 23.9897 126.97 24.2208Z" fill="#FCEBDA"/>
<path d="M130.457 25.3957C131.253 24.7873 132.257 24.7983 132.699 25.4201C133.142 26.0421 132.761 27.69 131.965 28.2989C131.168 28.9074 130.43 29.2719 129.987 28.6498C129.545 28.0272 129.66 26.0041 130.457 25.3957Z" fill="#FCEBDA"/>
<path d="M110.798 42.7011C112.285 42.7014 113.491 44.4554 113.492 45.9974L113.491 45.9987C114.845 46.553 115.736 47.6146 115.736 49.2564C115.736 51.8265 112.623 52.0483 110.828 51.1176C108.554 51.583 105.861 51.8264 105.861 49.2564C105.861 47.6314 106.757 46.5726 108.105 46.0136C108.105 46.0084 108.105 46.0027 108.105 45.9974C108.106 44.4555 109.311 42.7016 110.798 42.7011Z" fill="#FCEBDA"/>
<path d="M114.849 42.8755C115.647 42.2657 116.652 42.274 117.093 42.8942C117.535 43.515 117.151 45.1644 116.352 45.7744C115.554 46.3844 114.816 46.7499 114.375 46.1295C113.934 45.5088 114.051 43.486 114.849 42.8755Z" fill="#FCEBDA"/>
<path d="M105.411 41.7705C106.155 41.7705 107.207 43.0694 107.207 44.0976C107.207 45.1259 107.053 45.9601 106.309 45.9601C105.565 45.96 104.065 44.6611 104.065 43.633C104.065 42.6048 104.667 41.7707 105.411 41.7705Z" fill="#FCEBDA"/>
<path d="M108.449 38.9688C109.182 39.0991 110.007 40.5639 109.84 41.5774C109.672 42.5907 109.384 43.3858 108.651 43.2555C107.918 43.125 106.652 41.5818 106.819 40.5684C106.986 39.5549 107.716 38.8385 108.449 38.9688Z" fill="#FCEBDA"/>
<path d="M111.977 39.6004C112.639 38.8359 113.625 38.6341 114.178 39.1494C114.731 39.6649 114.676 41.3594 114.013 42.1243C113.35 42.889 112.697 43.4024 112.144 42.8867C111.592 42.3705 111.314 40.3649 111.977 39.6004Z" fill="#FCEBDA"/>
<path d="M138.899 4.68401C140.213 5.41486 140.494 7.55689 139.805 8.91926L139.803 8.91983C140.751 10.0746 141.064 11.4502 140.33 12.9006C139.18 15.1707 136.331 13.8375 135.162 12.1332C132.945 11.427 130.457 10.3189 131.606 8.0486C132.333 6.61341 133.598 6.11837 135.039 6.28695C135.042 6.28233 135.044 6.27732 135.046 6.27265C135.737 4.91087 137.586 3.95389 138.899 4.68401Z" fill="#FCEBDA"/>
<path d="M142.4 6.82844C143.378 6.68184 144.262 7.18288 144.374 7.94766C144.486 8.71283 143.409 9.98109 142.431 10.1278C141.453 10.2744 140.638 10.2345 140.526 9.4697C140.413 8.70466 141.422 6.97564 142.4 6.82844Z" fill="#FCEBDA"/>
<path d="M134.558 1.21539C135.214 1.58077 135.563 3.24497 135.103 4.15333C134.643 5.06163 134.134 5.72267 133.477 5.35725C132.82 4.99179 132.076 3.10739 132.535 2.19898C132.995 1.29079 133.901 0.850203 134.558 1.21539Z" fill="#FCEBDA"/>
<path d="M138.494 0.23322C139.084 0.708461 139.157 2.40772 138.556 3.22066C137.954 4.03341 137.345 4.59423 136.755 4.11906C136.166 3.64364 135.738 1.6582 136.339 0.845132C136.94 0.0322004 137.905 -0.242005 138.494 0.23322Z" fill="#FCEBDA"/>
<path d="M141.328 2.52419C142.255 2.17456 143.216 2.48043 143.474 3.20742C143.732 3.93445 142.925 5.40426 141.998 5.75435C141.07 6.10403 140.264 6.23669 140.006 5.50949C139.748 4.78189 140.4 2.87378 141.328 2.52419Z" fill="#FCEBDA"/>
<path d="M104.053 90.1656C105.54 90.1659 106.746 91.9199 106.747 93.4619L106.746 93.4632C108.1 94.0175 108.991 95.0791 108.991 96.7209C108.991 99.291 105.879 99.5128 104.083 98.582C101.809 99.0474 99.1161 99.2909 99.1157 96.7209C99.1161 95.0959 100.012 94.0371 101.36 93.4781C101.36 93.4729 101.36 93.4672 101.36 93.4619C101.361 91.9199 102.566 90.1661 104.053 90.1656Z" fill="#FCEBDA"/>
<path d="M108.104 90.34C108.902 89.7301 109.907 89.7384 110.348 90.3587C110.79 90.9795 110.406 92.6288 109.607 93.2389C108.809 93.8489 108.071 94.2144 107.63 93.594C107.189 92.9732 107.306 90.9505 108.104 90.34Z" fill="#FCEBDA"/>
<path d="M98.6662 89.235C99.4099 89.235 100.462 90.5339 100.462 91.5621C100.462 92.5904 100.308 93.4245 99.5642 93.4245C98.8205 93.4244 97.3202 92.1256 97.3198 91.0974C97.3198 90.0693 97.9226 89.2352 98.6662 89.235Z" fill="#FCEBDA"/>
<path d="M101.704 86.4333C102.437 86.5635 103.262 88.0284 103.095 89.0419C102.927 90.0552 102.639 90.8502 101.906 90.72C101.173 90.5894 99.9068 89.0462 100.074 88.0328C100.241 87.0193 100.971 86.303 101.704 86.4333Z" fill="#FCEBDA"/>
<path d="M105.232 87.0649C105.895 86.3003 106.88 86.0985 107.433 86.6139C107.986 87.1294 107.931 88.8239 107.268 89.5888C106.605 90.3535 105.952 90.8668 105.399 90.3512C104.847 89.835 104.569 87.8293 105.232 87.0649Z" fill="#FCEBDA"/>
</svg>
