<?xml version="1.0" encoding="UTF-8"?>
<svg
                  xmlns="http://www.w3.org/2000/svg"
                  width="24"
                  height="24"
                  fill="currentColor"
                  viewBox="0 0 24 24"
                  aria-hidden="true"
                  class="nav-icon"
                >
                  <path
                    stroke="currentColor"
                    d="M6.114 12.508c.5 0 .985.256 1.357.672.323.36.526.806.576 1.218l-.401.402.747.264c.555.197.98.47 1.264.808.278.33.441.744.442 1.274l-.006.135a1.07 1.07 0 0 1-.314.69c-.204.203-.512.357-.907.446-.798.179-1.803.056-2.526-.268l-.14-.063-.151.027c-1.035.183-2.082.304-2.854.163-.379-.069-.64-.193-.804-.355-.15-.15-.266-.38-.266-.774l.008-.19c.035-.434.19-.784.434-1.072.285-.337.711-.611 1.265-.81l.334-.119-.003-.355v-.01l.01-.175c.046-.417.251-.87.579-1.236.325-.364.737-.606 1.17-.66zm-4.891-.73a.6.6 0 0 1 .287.104c.134.079.279.196.412.343.28.308.431.649.432.877 0 .395-.038.667-.11.827-.033.07-.061.096-.076.106-.013.009-.046.027-.13.027-.06 0-.192-.027-.385-.12a3 3 0 0 1-.566-.373 2.3 2.3 0 0 1-.446-.482c-.11-.165-.14-.283-.141-.349 0-.578.354-.916.662-.956zm9.707.512a.77.77 0 0 1 .44.118l.075.07c.011.013.045.07.053.204.008.129-.01.293-.061.471-.107.37-.321.693-.554.847-.355.234-.64.381-.856.43a.4.4 0 0 1-.191.01c-.023-.006-.051-.018-.088-.063-.019-.023-.067-.112-.096-.295a2.2 2.2 0 0 1 0-.6c.053-.41.195-.716.35-.866l.066-.054c.284-.188.597-.274.862-.272ZM3.905 9.576a.6.6 0 0 1 .256.14c.115.097.233.233.335.395.216.342.3.697.257.922-.074.388-.162.653-.267.804a.3.3 0 0 1-.105.101c-.019.01-.058.023-.14.01-.057-.009-.18-.055-.35-.175a2.7 2.7 0 0 1-.483-.448 2.2 2.2 0 0 1-.345-.536c-.075-.176-.083-.294-.07-.36.117-.613.59-.902.912-.853Zm4.404-.06a.8.8 0 0 1 .464.039l.097.058c.02.017.069.073.108.203.037.127.055.29.045.473-.02.38-.156.727-.341.912q-.44.441-.734.572a.4.4 0 0 1-.182.043c-.028-.002-.064-.01-.116-.052-.03-.025-.099-.11-.169-.284a2.2 2.2 0 0 1-.136-.59c-.046-.474.054-.82.192-.958.231-.23.514-.37.772-.415Zm6.805-6.008c.5 0 .985.256 1.357.672.323.36.526.805.576 1.217l-.402.403.748.264c.555.197.98.47 1.264.808.278.33.442.744.442 1.274l-.006.135a1.07 1.07 0 0 1-.314.69c-.204.203-.512.357-.907.446-.798.179-1.803.056-2.526-.268l-.14-.062-.151.026c-1.035.183-2.082.304-2.854.163-.379-.069-.64-.193-.803-.355-.152-.15-.267-.38-.267-.775l.008-.19c.035-.432.19-.783.434-1.071.285-.337.711-.612 1.265-.81l.334-.119-.003-.355v-.01c0-.462.215-.993.589-1.411.325-.364.737-.606 1.17-.66zm-4.891-.73a.6.6 0 0 1 .287.104c.134.079.279.196.412.343.28.308.431.649.431.878 0 .394-.037.666-.11.826-.032.07-.06.096-.075.106-.012.009-.046.027-.13.027-.06 0-.192-.027-.385-.12a3 3 0 0 1-.566-.373 2.4 2.4 0 0 1-.446-.482c-.11-.165-.14-.283-.141-.349l.005-.112c.045-.546.418-.848.718-.848Zm9.707.512c.27.002.436.092.515.188.011.013.045.07.053.204.008.129-.01.293-.062.471-.106.37-.32.693-.553.847-.355.234-.64.381-.856.43a.4.4 0 0 1-.191.01c-.023-.006-.051-.018-.088-.063-.019-.023-.067-.112-.096-.295a2.2 2.2 0 0 1 0-.6c.053-.41.195-.717.35-.866l.066-.054c.284-.188.597-.274.862-.272ZM12.905.576a.6.6 0 0 1 .256.14c.115.097.233.233.335.395.216.342.3.697.257.922-.074.388-.162.653-.267.804a.3.3 0 0 1-.105.102c-.019.01-.058.022-.14.01l-.054-.015a1.2 1.2 0 0 1-.296-.16 2.7 2.7 0 0 1-.483-.449 2.2 2.2 0 0 1-.344-.536c-.075-.176-.084-.294-.072-.36.118-.613.59-.902.913-.853Zm4.404-.06a.8.8 0 0 1 .464.039l.097.058c.02.017.069.072.107.203.038.127.056.29.046.473-.02.38-.156.727-.341.912-.294.293-.538.486-.734.571a.4.4 0 0 1-.182.044c-.028-.002-.064-.01-.116-.052-.03-.025-.099-.11-.169-.285a2.2 2.2 0 0 1-.136-.59c-.046-.473.054-.82.192-.957.231-.23.514-.37.772-.415Z"
                  />
                </svg>