<?xml version="1.0" encoding="UTF-8"?>
<svg
                  xmlns="http://www.w3.org/2000/svg"
                  width="24"
                  height="24"
                  fill="currentColor"
                  viewBox="0 0 24 24"
                  aria-hidden="true"
                  class="nav-icon"
                >
                  <path
                    d="M19.96 13.016v.5h.5v-.5zm-13.96 0h-.5v.5H6zm0-.409h.5v-.218l-.16-.149zm-.032-.178.44.237zm.032-.06.44.238.06-.112v-.126zM6 .5V0h-.5v.5zm13.96 0h.5V0h-.5zM6.2 12.002h-.5l.938.239zm2.058-3.64-.43-.256zm1.089-1.736-.412-.283zm.401-.534-.377-.329zm.16-.16-.314-.389zm.08-.053-.225-.447zm.112-.03v-.5zm.083.026.277-.416zm1.884 1.357.31-.393zm.81.696.352-.356zm.242.272-.4.3.422.566.394-.587zm2.46-3.538-.405-.294zm1.22-1.601-.384-.32zm.442-.493-.348-.358zm.171-.145-.286-.41zm.082-.048-.204-.456zm.106-.025.07-.495-.035-.005H17.6zm.034.004.115-.486-.022-.005-.023-.003zm.033.012-.224.447zm2 1 .226-.446-.002-.001zm.066.201.447.225v-.001zm-.2.067-.224.447zm-1.942-.97.223-.448-.26-.13-.24.161zm-.007.004.287.41zm-.134.115-.348-.358zm-.42.469-.385-.319zm-1.209 1.586-.404-.294zm-2.596 3.745-.416-.277zm-.17.06-.146.479h.003zM12.95 8.5h.5v-.067l-.017-.065zm-.06-.107.407-.292zm-.223-.252.352-.356zm-.784-.673.309-.393zm-1.794-1.295.279-.415-.314-.21-.288.243zm-.114.116-.377-.329zm-.38.507-.412-.283zM8.516 8.514l-.43-.256zM6.23 12.57l.44.238zm-.032.038-.337-.369-.163.149v.22zm0 .206h-.5v.5h.5zm13.56 0v.5h.5v-.5zM19.76.7h.5V.2h-.5zM6.2.7V.2h-.5v.5zm2.4.701V.9zm0 3.2v.5zm0-3v-.5zm0 2.8v.5zM.7 6.6v-.5a.5.5 0 0 0-.5.5zm0 12.3H.2a.5.5 0 0 0 .5.5zm12.801 0v.5a.5.5 0 0 0 .5-.5zm6.46-5.884v-.5H6v1h13.96zm-13.96 0h.5v-.409h-1v.409zm0-.409.34-.367a.35.35 0 0 1 .068.426l-.44-.237-.44-.237a.65.65 0 0 0 .133.783zm-.032-.178.44.237.032-.06L6 12.37l-.44-.237-.032.06zm.032-.06h.5V.5h-1v11.87zM6 .5V1h13.96V0H6zm13.96 0h-.5v12.516h1V.5zM6.2 12.002l.438.239a118 118 0 0 1 2.05-3.624l-.43-.256-.43-.255a119 119 0 0 0-2.068 3.657zm2.058-3.64.43.255c.4-.675.775-1.277 1.07-1.708l-.411-.283-.412-.283a34 34 0 0 0-1.107 1.763zm1.089-1.736.412.283q.224-.326.366-.488l-.377-.33-.377-.328a6.64 6.64 0 0 0-.436.58zm.401-.534.377.329a1 1 0 0 1 .096-.1l-.314-.388-.314-.39a2 2 0 0 0-.222.22zm.16-.16.313.39.004-.003-.01.006-.227-.446-.226-.446a1 1 0 0 0-.168.11zm.08-.053.225.446-.033.013a.3.3 0 0 1-.08.012v-1a.75.75 0 0 0-.337.082zm.112-.03-.001.5a.35.35 0 0 1-.193-.057l.277-.417.276-.417a.65.65 0 0 0-.358-.108zm.083.026-.278.416c.495.33 1.238.85 1.853 1.334l.31-.393.309-.393a33 33 0 0 0-1.917-1.38zm1.884 1.357-.309.393c.31.243.578.471.767.658l.352-.355.352-.356c-.23-.226-.533-.482-.852-.733zm.81.696-.352.355q.128.127.193.216l.401-.299.4-.299a3 3 0 0 0-.29-.329zm.242.272.416.279c.663-.99 1.606-2.365 2.448-3.523l-.405-.294-.404-.294a123 123 0 0 0-2.47 3.554zm2.46-3.538.404.294c.453-.623.873-1.179 1.202-1.577l-.385-.318-.385-.32c-.35.423-.785.999-1.241 1.627zm1.22-1.601.386.318q.25-.301.405-.452l-.349-.359-.348-.358a7 7 0 0 0-.478.532zm.442-.493.349.359a1 1 0 0 1 .109-.095l-.287-.41-.287-.409a2 2 0 0 0-.232.197zm.171-.145.287.41.008-.006-.008.004-.205-.456-.204-.456a.982.982 0 0 0-.164.094zm.082-.048.204.456-.025.01a.3.3 0 0 1-.073.009v-1a.8.8 0 0 0-.31.069zm.106-.025-.071.495.034.004.07-.495.072-.494-.035-.005zm.034.004-.115.487a.4.4 0 0 1-.076-.028l.224-.447.224-.447a.7.7 0 0 0-.142-.051zm.033.012-.224.447 2 1 .224-.447.224-.447-2-1zm2 1-.226.446a.35.35 0 0 1-.155-.468l.447.223.448.224a.65.65 0 0 0-.288-.871zm.066.201-.446-.225a.35.35 0 0 1 .468-.156l-.223.448-.223.447a.65.65 0 0 0 .871-.289zm-.2.067.223-.447-1.942-.971-.223.447-.224.447 1.942.971zm-1.942-.97-.278-.417-.013.01-.008.005.005-.003.287.409.287.41.008-.007.002-.001-.002.002-.01.007zm-.007.004-.287-.41q-.096.07-.195.167l.348.358.349.359q.032-.031.052-.048l.02-.016zm-.134.115-.348-.358c-.13.126-.286.302-.457.508l.385.319.385.319a6 6 0 0 1 .384-.43zm-.42.469-.385-.319a34 34 0 0 0-1.228 1.611l.404.294.405.294c.451-.622.866-1.171 1.19-1.561zm-1.209 1.586-.404-.294c-.912 1.255-1.94 2.76-2.608 3.762l.416.277.416.277c.664-.995 1.684-2.488 2.585-3.728zm-2.596 3.745-.416-.277a.35.35 0 0 1 .39-.141l-.143.479-.144.478a.65.65 0 0 0 .729-.262zm-.17.06.147-.478a.35.35 0 0 1 .247.335h-1a.65.65 0 0 0 .46.622zM12.95 8.5l.483-.132-.012-.038a1.033 1.033 0 0 0-.124-.229l-.406.292-.406.291q.015.024.003.003a.3.3 0 0 1-.02-.054l-.002-.01v.002l.002.007zm-.06-.107.407-.292a2.6 2.6 0 0 0-.278-.316l-.352.356-.352.355q.131.132.17.189zm-.223-.252.352-.356a10.001 10.001 0 0 0-.827-.71l-.31.393-.308.393c.305.24.564.46.741.635zm-.784-.673.309-.393a32 32 0 0 0-1.824-1.317l-.28.415-.278.415c.49.329 1.185.818 1.764 1.273zm-1.794-1.295-.323-.382a2 2 0 0 0-.168.17l.377.328.376.329a1 1 0 0 1 .06-.063zm-.114.116-.377-.329c-.12.138-.262.33-.415.553l.412.283.412.283q.22-.32.344-.461zm-.38.507-.412-.283c-.31.45-.693 1.066-1.096 1.745l.43.256.43.255c.4-.673.77-1.268 1.06-1.69zM8.516 8.514l-.43-.256c-.808 1.36-1.71 2.99-2.295 4.076l.44.237.44.237a123.877 123.877 0 0 1 2.275-4.039zM6.23 12.57l-.44-.237a.4.4 0 0 1 .051-.073l.02-.021.337.37.337.369c.018-.017.084-.076.135-.17zm-.032.038h-.5v.206h1v-.206zm0 .206v.5h13.56v-1H6.2zm13.56 0h.5V.7h-1v12.116zM19.76.7V.2H6.2v1h13.56zM6.2.7h-.5v11.303h1V.699zm2.4.701v.5A1.1 1.1 0 0 1 9.7 3h1A2.1 2.1 0 0 0 8.6.9zM10.2 3h-.5a1.1 1.1 0 0 1-1.1 1.1v1A2.1 2.1 0 0 0 10.7 3zM8.6 4.6v-.5A1.1 1.1 0 0 1 7.5 3h-1c0 1.16.94 2.1 2.1 2.1zM7 3h.5a1.1 1.1 0 0 1 1.1-1.1v-1A2.1 2.1 0 0 0 6.5 3zm1.6-1.4v-.5A1.9 1.9 0 0 0 6.7 3h1a.9.9 0 0 1 .9-.9zM7.2 3h-.5a1.9 1.9 0 0 0 1.9 1.9v-1a.9.9 0 0 1-.9-.9zm1.4 1.4v.5A1.9 1.9 0 0 0 10.5 3h-1a.9.9 0 0 1-.9.9zM10 3h.5a1.9 1.9 0 0 0-1.9-1.9v1a.9.9 0 0 1 .9.9zM6.1 6.4v.5a.4.4 0 0 1-.4-.4h1a.6.6 0 0 0-.6-.6zm.1.1h-.5a.4.4 0 0 1 .4-.4v1a.6.6 0 0 0 .6-.6zm-.1.1v-.5H.7v1h5.4zm-5.4 0H.2v12.3h1V6.6zm0 12.3v.5h12.8v-1H.7zm12.8 0h.5V13h-1v5.9zm0-5.9h.5a.4.4 0 0 1-.4.4v-1a.6.6 0 0 0-.6.6zm.1-.1v.5a.4.4 0 0 1-.4-.4h1a.6.6 0 0 0-.6-.6zm.1.1h-.5v6h1v-6zm0 6h-.5a.4.4 0 0 1 .4-.4v1a.6.6 0 0 0 .6-.6zm-.1.1v-.5H.6v1h13zm-13 0v-.5c.22 0 .4.18.4.4H0a.6.6 0 0 0 .6.6zM.5 19H1V6.5H0V19zm0-12.5H1a.4.4 0 0 1-.4.4v-1a.6.6 0 0 0-.6.6zm.1-.1v.5h5.5v-1H.6z"
                  />
                </svg>