<?xml version="1.0" encoding="UTF-8"?>
<svg
                  xmlns="http://www.w3.org/2000/svg"
                  width="24"
                  height="24"
                  fill="currentColor"
                  viewBox="0 0 24 24"
                  aria-hidden="true"
                  class="nav-icon"
                >
                  <g clip-path="url(#a)">
                    <path
                      fill="currentColor"
                      d="m24.004 21.078-.358.106c-1.827.538-3.642.7-6.212.73-2.54.03-5.908-.068-10.78-.068-.86.226-1.631.212-2.31-.041-.698-.26-1.247-.753-1.674-1.382-.84-1.237-1.262-3.077-1.473-5.059-.424-3.965-.032-8.917-.032-11.666v-.114l.05-.104c.561-1.161 1.253-1.815 2.096-2.152C4.118 1.006 5.014 1 5.893 1h18.111v20.078ZM5.393 2.005c-.675.011-1.226.058-1.71.252-.546.217-1.055.643-1.52 1.566-.01 2.896-.383 7.59.028 11.436.208 1.95.613 3.58 1.307 4.602.34.5.736.835 1.196 1.007.375.14.827.181 1.38.082L5.393 8.795v-6.79Zm1 6.75.677 12.093c4.697.006 7.877.096 10.352.066 2.36-.028 4-.169 5.582-.59V2H6.393v6.755Zm15.411-6.241a.25.25 0 0 1 .25.25.39.39 0 0 1-.107.253l-.031.029a.25.25 0 0 1 .135.263c-.106.662-.137 1.542-.21 2.356-.035.398-.08.779-.153 1.089a2.27 2.27 0 0 1-.139.426.886.886 0 0 1-.225.31l.062.072c.028.031.061.07.093.112a.868.868 0 0 1 .163.34c.064.301-.053.633-.39 1.022-.326.375-.887.84-1.802 1.44-.007.345-.043.551-.16.757-.058.104-.135.205-.216.313-.029.038-.06.079-.092.124a.27.27 0 0 1-.013.108.3.3 0 0 1-.045.08.485.485 0 0 1-.033.037c-.04.04-.101.093-.184.158l-.032-.029-.038.032c-.11.097-.236.229-.332.377a.954.954 0 0 0-.14.32l1.192.926.22.17-.194.2-1.95 2.021-.003.001a.248.248 0 0 1-.16.073l-.017.002c-.882 0-2.219.27-3.398.597-.586.163-1.126.338-1.541.495a6.235 6.235 0 0 0-.513.217c-.14.069-.206.115-.223.133a.248.248 0 0 1-.121.066l-.004.002h-.001a.25.25 0 0 1-.228-.066l-.015-.019c-.003-.003-.004-.009-.007-.012l-2.425 2.826a.3.3 0 1 1-.455-.39l2.589-3.018.116-.163c-.183-.966-.367-2.185-.429-3.277-.038-.676-.032-1.318.056-1.822.043-.252.11-.483.209-.671.099-.188.242-.352.447-.432l.043-.016h.491a19.77 19.77 0 0 1 .504-2.035c.118-.373.25-.723.39-.983.07-.13.15-.25.238-.34a.534.534 0 0 1 .375-.178l.087-.014c.082-.027.15-.097.206-.22.078-.167.107-.381.107-.526v-.85l.46.714c.1.154.281.388.495.581.223.202.433.314.595.315.006 0 .046-.002.11-.104a1.59 1.59 0 0 0 .168-.46c.091-.396.123-.881.123-1.207v-.178l.169-.058a78.038 78.038 0 0 0 3.644-1.359 20.843 20.843 0 0 0 1.534-.682c.194-.1.342-.186.437-.254a.596.596 0 0 0 .08-.068.25.25 0 0 1 .238-.176Zm-.526.943c-.085.044-.178.087-.276.134l.146.104-9.497 13.279c.137-.064.301-.134.485-.204.433-.164.988-.343 1.585-.508 1.143-.317 2.474-.592 3.421-.613l1.687-1.747-1.08-.838-.096-.076v-.122c0-.268.107-.511.233-.706.128-.196.287-.362.42-.48.047-.04.094-.076.135-.107.09-.134.168-.24.232-.326.09-.12.143-.19.182-.26.064-.113.099-.235.099-.647v-.136l.113-.073c.968-.627 1.515-1.087 1.806-1.423.291-.336.296-.51.28-.588a.375.375 0 0 0-.073-.145 1.386 1.386 0 0 0-.068-.081c-.023-.027-.055-.062-.08-.093a.522.522 0 0 1-.139-.314c-.004-.17.1-.292.207-.375a.39.39 0 0 0 .095-.141 1.79 1.79 0 0 0 .106-.33c.064-.275.107-.628.142-1.02.066-.74.101-1.635.201-2.31-.08.047-.17.097-.266.146Zm-1.574.7a77.762 77.762 0 0 1-3.507 1.31c-.01.335-.045.767-.132 1.141-.051.221-.124.442-.23.613-.106.169-.279.338-.534.339-.357 0-.689-.225-.931-.444a3.265 3.265 0 0 1-.22-.221c-.015.047-.03.095-.052.141-.117.253-.344.514-.73.522a.208.208 0 0 0-.036.03 1.039 1.039 0 0 0-.154.227 5.457 5.457 0 0 0-.353.896 19.673 19.673 0 0 0-.529 2.18l-.038.205h-.8a.441.441 0 0 0-.153.181 1.82 1.82 0 0 0-.158.524c-.078.449-.087 1.046-.05 1.708.05.894.186 1.881.335 2.737l8.81-12.317c-.173.074-.353.153-.538.228Z"
                    />
                  </g>
                  <defs>
                    <clipPath id="a">
                      <path fill="currentColor" d="M0 0h24v24H0z" />
                    </clipPath>
                  </defs>
                </svg>